<svg width="74" height="19" viewBox="0 0 74 19" fill="none" xmlns="http://www.w3.org/2000/svg">
<path d="M17.004 18H14.508C14.228 18 13.996 17.932 13.812 17.796C13.636 17.652 13.508 17.476 13.428 17.268L12.132 13.728H4.944L3.648 17.268C3.584 17.452 3.456 17.62 3.264 17.772C3.08 17.924 2.852 18 2.58 18H0.072L6.888 0.647999H10.188L17.004 18ZM5.772 11.448H11.304L9.192 5.676C9.096 5.42 8.988 5.12 8.868 4.776C8.756 4.424 8.644 4.044 8.532 3.636C8.42 4.044 8.308 4.424 8.196 4.776C8.092 5.128 7.988 5.436 7.884 5.7L5.772 11.448ZM22.4271 18H19.1871V0.647999H22.4271V18ZM42.9819 9.324C42.9819 10.596 42.7699 11.776 42.3459 12.864C41.9219 13.944 41.3259 14.88 40.5579 15.672C39.7899 16.464 38.8659 17.084 37.7859 17.532C36.7059 17.972 35.5099 18.192 34.1979 18.192C32.8859 18.192 31.6859 17.972 30.5979 17.532C29.5179 17.084 28.5899 16.464 27.8139 15.672C27.0459 14.88 26.4499 13.944 26.0259 12.864C25.6019 11.776 25.3899 10.596 25.3899 9.324C25.3899 8.052 25.6019 6.876 26.0259 5.796C26.4499 4.708 27.0459 3.768 27.8139 2.976C28.5899 2.184 29.5179 1.568 30.5979 1.128C31.6859 0.68 32.8859 0.456 34.1979 0.456C35.5099 0.456 36.7059 0.68 37.7859 1.128C38.8659 1.576 39.7899 2.196 40.5579 2.988C41.3259 3.772 41.9219 4.708 42.3459 5.796C42.7699 6.876 42.9819 8.052 42.9819 9.324ZM39.6699 9.324C39.6699 8.372 39.5419 7.52 39.2859 6.768C39.0379 6.008 38.6779 5.364 38.2059 4.836C37.7339 4.308 37.1579 3.904 36.4779 3.624C35.8059 3.344 35.0459 3.204 34.1979 3.204C33.3499 3.204 32.5859 3.344 31.9059 3.624C31.2259 3.904 30.6459 4.308 30.1659 4.836C29.6939 5.364 29.3299 6.008 29.0739 6.768C28.8179 7.52 28.6899 8.372 28.6899 9.324C28.6899 10.276 28.8179 11.132 29.0739 11.892C29.3299 12.644 29.6939 13.284 30.1659 13.812C30.6459 14.332 31.2259 14.732 31.9059 15.012C32.5859 15.292 33.3499 15.432 34.1979 15.432C35.0459 15.432 35.8059 15.292 36.4779 15.012C37.1579 14.732 37.7339 14.332 38.2059 13.812C38.6779 13.284 39.0379 12.644 39.2859 11.892C39.5419 11.132 39.6699 10.276 39.6699 9.324ZM56.8238 0.647999V3.3H51.6038V18H48.3758V3.3H43.1318V0.647999H56.8238ZM68.6372 4.02C68.7012 4.164 68.7572 4.308 68.8052 4.452C68.8612 4.588 68.9092 4.728 68.9492 4.872C68.9972 4.728 69.0492 4.584 69.1052 4.44C69.1612 4.296 69.2252 4.156 69.2972 4.02L70.8932 0.959999C70.9732 0.808 71.0612 0.72 71.1572 0.696C71.2532 0.663999 71.3852 0.647999 71.5532 0.647999H73.3172V7.884H71.5172V4.26L71.6492 3.072L69.8132 6.696C69.6612 6.992 69.4292 7.14 69.1172 7.14H68.8292C68.5012 7.14 68.2652 6.992 68.1212 6.696L66.3092 3.132L66.4412 4.26V7.884H64.6412V0.647999H66.4052C66.5812 0.647999 66.7132 0.659999 66.8012 0.683999C66.8972 0.707999 66.9852 0.799999 67.0652 0.959999L68.6372 4.02ZM63.7772 0.647999V2.328H61.8092V7.884H59.7572V2.328H57.8012V0.647999H63.7772Z" fill="white"/>
</svg>
