<svg width="71" height="70" viewBox="0 0 71 70" fill="none" xmlns="http://www.w3.org/2000/svg">
<path d="M28.9375 8.75H38.0635C39.2234 8.75018 40.3358 9.21096 41.1561 10.0311L60.4689 29.3439C61.289 30.1642 61.7498 31.2766 61.75 32.4365V59.0625C61.75 60.803 61.0586 62.4722 59.8279 63.7029C58.5972 64.9336 56.928 65.625 55.1875 65.625H26.75C25.0095 65.625 23.3403 64.9336 22.1096 63.7029C20.8789 62.4722 20.1875 60.803 20.1875 59.0625V41.5625" stroke="#6C75C7" stroke-width="4.375" stroke-linecap="round" stroke-linejoin="round"/>
<path d="M39.875 9.84375V26.25C39.875 27.4103 40.3359 28.5231 41.1564 29.3436C41.9769 30.1641 43.0897 30.625 44.25 30.625H60.6562" stroke="#6C75C7" stroke-width="4.375" stroke-linecap="round" stroke-linejoin="round"/>
<path d="M22.375 10.9375V31.7188C22.3807 32.1512 22.2997 32.5805 22.1368 32.9811C21.974 33.3818 21.7325 33.7458 21.4266 34.0516C21.1208 34.3575 20.7568 34.599 20.3561 34.7618C19.9555 34.9247 19.5262 35.0057 19.0938 35C17.4531 35 15.8125 33.7559 15.8125 31.7188V12.0312C15.8125 7.84902 18.0779 4.375 22.375 4.375C26.6721 4.375 28.9375 7.76562 28.9375 11.9465V30.9162C28.9375 36.7951 25.134 41.5625 19.0938 41.5625C13.0535 41.5625 9.25 36.7965 9.25 30.9162V19.6875" stroke="#6C75C7" stroke-width="4.375" stroke-miterlimit="10" stroke-linecap="round"/>
</svg>
