<svg width="394" height="355" viewBox="0 0 394 355" fill="none" xmlns="http://www.w3.org/2000/svg">
<path d="M278.833 46.3367H210.691L211.38 36.4013H279.522L278.833 46.3367Z" fill="#CCCCCC"/>
<path d="M278.833 60.2537H210.691L211.38 50.3183H279.522L278.833 60.2537Z" fill="#CCCCCC"/>
<path d="M278.833 74.1802H210.691L211.38 64.2354H279.522L278.833 74.1802Z" fill="#CCCCCC"/>
<path d="M278.833 88.0972H210.691L211.38 78.1524H279.522L278.833 88.0972Z" fill="#CCCCCC"/>
<path d="M278.833 102.014H210.691L211.38 92.0695H279.522L278.833 102.014Z" fill="#CCCCCC"/>
<path d="M278.833 115.931H210.691L211.38 105.996H279.522L278.833 115.931Z" fill="#CCCCCC"/>
<path d="M278.833 129.848H210.691L211.38 119.913H279.522L278.833 129.848Z" fill="#CCCCCC"/>
<path d="M278.833 143.775H210.691L211.38 133.83H279.522L278.833 143.775Z" fill="#CCCCCC"/>
<path d="M278.833 157.692H210.691L211.38 147.747H279.522L278.833 157.692Z" fill="#CCCCCC"/>
<path d="M278.833 171.609H210.691L211.38 161.664H279.522L278.833 171.609Z" fill="#CCCCCC"/>
<path d="M278.833 185.526H210.691L211.38 175.581H279.522L278.833 185.526Z" fill="#CCCCCC"/>
<path d="M350.89 46.3367H282.739L283.428 36.4013H351.579L350.89 46.3367Z" fill="#CCCCCC"/>
<path d="M350.89 60.2537H282.739L283.428 50.3183H351.579L350.89 60.2537Z" fill="#CCCCCC"/>
<path d="M350.89 74.1802H282.739L283.428 64.2354H351.579L350.89 74.1802Z" fill="#CCCCCC"/>
<path d="M350.89 88.0972H282.739L283.428 78.1524H351.579L350.89 88.0972Z" fill="#CCCCCC"/>
<path d="M350.89 102.014H282.739L283.428 92.0695H351.579L350.89 102.014Z" fill="#CCCCCC"/>
<path d="M350.89 115.931H282.739L283.428 105.996H351.579L350.89 115.931Z" fill="#CCCCCC"/>
<path d="M350.89 129.848H282.739L283.428 119.913H351.579L350.89 129.848Z" fill="#CCCCCC"/>
<path d="M350.89 143.775H282.739L283.428 133.83H351.579L350.89 143.775Z" fill="#CCCCCC"/>
<path d="M350.89 157.692H282.739L283.428 147.747H351.579L350.89 157.692Z" fill="#CCCCCC"/>
<path d="M350.89 171.609H282.739L283.428 161.664H351.579L350.89 171.609Z" fill="#CCCCCC"/>
<path d="M350.89 185.526H282.739L283.428 175.581H351.579L350.89 185.526Z" fill="#CCCCCC"/>
<path d="M201.133 35.8541H60.3402V156.645H201.133V35.8541Z" fill="#6C75C7"/>
<path d="M194.085 41.8926H67.3789V150.606H194.085V41.8926Z" fill="white"/>
<path d="M194.085 74.8501C171.299 91.0599 138.662 101.816 100.799 118.715C88.8677 123.954 77.6403 130.667 67.3789 138.699V150.615H194.085V74.8501Z" fill="#6C75C7"/>
<path d="M194.085 41.8926H143.239C137.577 46.7329 130.888 52.1394 122.981 57.9326C94.043 79.1526 106.583 100.391 141.314 84.9364C159.137 77.0202 178.979 58.6874 194.085 42.7135V41.8926Z" fill="#6C75C7"/>
<path d="M89.2687 54.083C89.2687 45.2233 78.2389 52.196 67.426 61.1029V83.4739C77.9464 73.1517 89.2687 62.0087 89.2687 54.083Z" fill="#6C75C7"/>
<path d="M99.8362 89.2955C99.8362 91.2997 99.2419 93.2589 98.1284 94.9254C97.0149 96.5918 95.4323 97.8907 93.5806 98.6576C91.729 99.4246 89.6915 99.6253 87.7258 99.2343C85.7601 98.8433 83.9545 97.8782 82.5373 96.461C81.1201 95.0438 80.1549 93.2382 79.7639 91.2725C79.3729 89.3068 79.5736 87.2693 80.3406 85.4176C81.1076 83.5659 82.4064 81.9833 84.0729 80.8698C85.7393 79.7563 87.6985 79.162 89.7027 79.162C92.3903 79.162 94.9678 80.2297 96.8682 82.1301C98.7686 84.0305 99.8362 86.6079 99.8362 89.2955Z" fill="#6C75C7"/>
<path opacity="0.75" d="M194.085 74.8501C171.299 91.0599 138.662 101.816 100.799 118.715C88.8677 123.954 77.6403 130.667 67.3789 138.699V150.615H194.085V74.8501Z" fill="white"/>
<path opacity="0.75" d="M194.085 41.8926H143.239C137.577 46.7329 130.888 52.1394 122.981 57.9326C94.043 79.1526 106.583 100.391 141.314 84.9364C159.137 77.0202 178.979 58.6874 194.085 42.7135V41.8926Z" fill="white"/>
<g opacity="0.75">
<path opacity="0.75" d="M89.2687 54.083C89.2687 45.2233 78.2389 52.196 67.426 61.1029V83.4739C77.9464 73.1517 89.2687 62.0087 89.2687 54.083Z" fill="white"/>
</g>
<path opacity="0.75" d="M99.8362 89.2955C99.8362 91.2997 99.2419 93.2589 98.1284 94.9254C97.0149 96.5918 95.4323 97.8907 93.5806 98.6576C91.729 99.4246 89.6915 99.6253 87.7258 99.2343C85.7601 98.8433 83.9545 97.8782 82.5373 96.461C81.1201 95.0438 80.1549 93.2382 79.7639 91.2725C79.3729 89.3068 79.5736 87.2693 80.3406 85.4176C81.1076 83.5659 82.4064 81.9833 84.0729 80.8698C85.7393 79.7563 87.6985 79.162 89.7027 79.162C92.3903 79.162 94.9678 80.2297 96.8682 82.1301C98.7686 84.0305 99.8362 86.6079 99.8362 89.2955Z" fill="white"/>
<path d="M172.186 121.611C172.186 124.284 171.393 126.897 169.908 129.119C168.423 131.341 166.313 133.073 163.843 134.095C161.374 135.117 158.657 135.384 156.035 134.862C153.414 134.34 151.007 133.052 149.118 131.162C147.228 129.271 145.942 126.863 145.422 124.241C144.902 121.62 145.171 118.903 146.195 116.434C147.219 113.966 148.952 111.856 151.175 110.373C153.398 108.889 156.012 108.098 158.684 108.1C160.458 108.1 162.215 108.45 163.853 109.129C165.492 109.808 166.981 110.803 168.235 112.058C169.489 113.313 170.483 114.802 171.161 116.442C171.839 118.081 172.187 119.837 172.186 121.611Z" fill="white"/>
<path d="M362.647 284.832C360.198 287.672 358.544 291.11 357.854 294.796L348.239 300.183V274.708L348.428 274.963L363.741 263.754C365.675 264.056 373.11 264.905 379.885 261.253C387.754 257.017 393.5 242.506 393.5 242.506C393.5 242.506 374.743 240.383 368.393 248.252C363.241 254.63 363.062 260.81 363.185 262.914L348.239 273.85V255.026C351.038 253.723 353.512 251.813 355.482 249.435C357.452 247.058 358.868 244.272 359.627 241.279C362.345 230.693 347.833 209.831 347.833 209.831C347.833 209.831 332.737 231.306 335.728 242.194C338.294 251.412 345.163 254.337 347.229 255.017V295.824L336.473 286.833C336.719 284.681 336.917 277.954 330.925 271.217C323.66 263.046 304.308 263.669 304.308 263.669C304.308 263.669 312.47 280.001 319.405 285.446C325.481 290.163 333.869 288.276 335.888 287.701L347.211 297.136V309.543H330.369L337.247 352.53H357.882L364.779 309.553H348.239V301.344L358.807 295.419C361.373 296.136 368.553 297.608 375.347 294.211C383.838 289.974 390.773 280.898 390.773 280.898C390.773 280.898 370.516 275.756 362.647 284.832Z" fill="#6C75C7"/>
<path opacity="0.5" d="M362.647 284.832C360.198 287.672 358.544 291.11 357.854 294.796L348.239 300.183V274.708L348.428 274.963L363.741 263.754C365.675 264.056 373.11 264.905 379.885 261.253C387.754 257.017 393.5 242.506 393.5 242.506C393.5 242.506 374.743 240.383 368.393 248.252C363.241 254.63 363.062 260.81 363.185 262.914L348.239 273.85V255.026C351.038 253.723 353.512 251.813 355.482 249.435C357.452 247.058 358.868 244.272 359.627 241.279C362.345 230.693 347.833 209.831 347.833 209.831C347.833 209.831 332.737 231.306 335.728 242.194C338.294 251.412 345.163 254.337 347.229 255.017V295.824L336.473 286.833C336.719 284.681 336.917 277.954 330.925 271.217C323.66 263.046 304.308 263.669 304.308 263.669C304.308 263.669 312.47 280.001 319.405 285.446C325.481 290.163 333.869 288.276 335.888 287.701L347.211 297.136V309.543H330.369L337.247 352.53H357.882L364.779 309.553H348.239V301.344L358.807 295.419C361.373 296.136 368.553 297.608 375.347 294.211C383.838 289.974 390.773 280.898 390.773 280.898C390.773 280.898 370.516 275.756 362.647 284.832Z" fill="white"/>
<path d="M343.578 154.956L315.81 155.192C315.81 155.192 313.923 154.956 313.517 156.333C313.517 156.333 308.696 168.505 308.469 172.864C308.243 177.223 309.413 176.534 307.526 182.299C305.639 188.064 300.412 201.575 297.43 212.596C293.42 227.4 292.373 243.119 292.118 258.404C292.118 260.857 290.608 281.992 294.43 281.992C297.6 281.992 326.821 285.87 327.17 280.237C328.576 257.781 324.519 235.844 332.312 214.011C335.341 205.519 338.813 196.575 341.389 187.706C343.965 178.836 344.408 169.609 346.107 160.532C347.248 154.267 343.578 154.956 343.578 154.956Z" fill="#263238"/>
<path d="M346.305 157.711C346.031 154.503 343.578 154.956 343.578 154.956L315.81 155.191C315.81 155.191 313.923 154.956 313.517 156.333C313.517 156.333 308.696 168.505 308.469 172.864C308.401 174.015 308.433 175.171 308.564 176.317L309.149 177.261C309.149 177.261 310.092 185.29 321.084 185.752C332.076 186.215 338.304 181.157 340.596 176.317C342.889 171.477 343.814 163.693 345.644 159.098C345.841 158.625 346.061 158.162 346.305 157.711Z" fill="#6C75C7"/>
<path d="M339.86 166.674C337.973 173.383 339.115 175.241 337.256 186.79C335.398 198.339 328.689 211.322 326.076 223.295C323.462 235.269 324.594 277.303 324.962 279.171C325.108 280.161 325.162 281.162 325.123 282.162C326.377 281.69 327.132 281.049 327.189 280.171C328.595 257.715 324.538 235.778 332.331 213.945C335.36 205.453 338.832 196.509 341.408 187.639C343.984 178.77 344.427 169.543 346.126 160.466C346.833 156.692 345.72 155.456 344.748 155.088C342.638 158.729 340.996 162.622 339.86 166.674Z" fill="#6C75C7"/>
<path d="M286.221 336.16L286.032 336.009V310.081H289.759V293.692H275.984V310.081H279.701V336.453L246.734 346.964V349.568C246.734 350.359 247.048 351.117 247.608 351.676C248.167 352.235 248.925 352.549 249.716 352.549C250.507 352.549 251.265 352.235 251.824 351.676C252.383 351.117 252.697 350.359 252.697 349.568V349.2L280.267 345.992V349.945C280.267 350.636 280.542 351.298 281.03 351.787C281.518 352.275 282.181 352.549 282.871 352.549C283.562 352.549 284.224 352.275 284.713 351.787C285.201 351.298 285.476 350.636 285.476 349.945V345.86L314.159 349.2V349.568C314.159 350.359 314.473 351.117 315.032 351.676C315.591 352.235 316.35 352.549 317.14 352.549C317.931 352.549 318.689 352.235 319.249 351.676C319.808 351.117 320.122 350.359 320.122 349.568V346.964L286.221 336.16Z" fill="#263238"/>
<path d="M325.528 277.709H243.658C241.574 277.709 239.884 279.398 239.884 281.483V292.947C239.884 295.031 241.574 296.721 243.658 296.721H325.528C327.613 296.721 329.302 295.031 329.302 292.947V281.483C329.302 279.398 327.613 277.709 325.528 277.709Z" fill="#263238"/>
<path d="M3.25846 154.956L31.0265 155.192C31.0265 155.192 32.9136 154.956 33.3287 156.333C33.3287 156.333 38.1501 168.505 38.3766 172.864C38.603 177.223 37.4331 176.534 39.3201 182.299C41.2072 188.064 46.4343 201.575 49.4159 212.596C53.4353 227.4 54.4732 243.119 54.7279 258.404C54.7279 260.857 56.2376 281.992 52.4163 281.992C49.2555 281.992 20.0344 285.87 19.6759 280.237C18.2794 257.781 22.3272 235.844 14.5336 214.011C11.5049 205.519 8.03272 196.575 5.46632 187.706C2.89992 178.836 2.44703 169.609 0.74868 160.532C-0.364683 154.267 3.25846 154.956 3.25846 154.956Z" fill="#263238"/>
<path d="M0.578125 157.711C0.851748 154.503 3.29549 154.956 3.29549 154.956L31.0635 155.191C31.0635 155.191 32.9506 154.956 33.3657 156.333C33.3657 156.333 38.1872 168.505 38.4136 172.864C38.475 174.016 38.4403 175.171 38.3098 176.317L37.7248 177.261C37.7248 177.261 36.7813 185.29 25.7892 185.752C14.7971 186.215 8.5415 181.157 6.23929 176.308C3.93709 171.458 3.0313 163.683 1.19142 159.088C1.01389 158.618 0.80911 158.158 0.578125 157.711Z" fill="#6C75C7"/>
<path d="M6.97427 166.674C8.86133 173.383 7.71966 175.241 9.57841 186.79C11.4372 198.339 18.1551 211.322 20.7592 223.295C23.3634 235.269 22.2783 277.303 21.8726 279.171C21.7311 280.161 21.6775 281.162 21.7122 282.162C20.4667 281.69 19.7025 281.049 19.6459 280.171C18.2494 257.715 22.2972 235.778 14.5036 213.945C11.4749 205.453 8.00272 196.509 5.43633 187.639C2.86993 178.77 2.41703 169.543 0.718684 160.466C0.0204732 156.692 1.13384 155.456 2.09623 155.088C4.20773 158.727 5.84694 162.621 6.97427 166.674Z" fill="#6C75C7"/>
<path d="M60.6138 336.16L60.8026 336.009V310.081H57.0284V293.692H70.8134V310.081H67.0864V336.453L100.053 346.964V349.568C100.053 350.359 99.7392 351.117 99.18 351.676C98.6209 352.235 97.8625 352.549 97.0718 352.549C96.281 352.549 95.5226 352.235 94.9635 351.676C94.4043 351.117 94.0902 350.359 94.0902 349.568V349.2L66.6241 345.992V349.945C66.5841 350.61 66.2918 351.234 65.807 351.691C65.3221 352.148 64.6813 352.402 64.0153 352.402C63.3493 352.402 62.7084 352.148 62.2235 351.691C61.7387 351.234 61.4464 350.61 61.4064 349.945V345.86L32.6571 349.2V349.568C32.6799 349.973 32.6198 350.378 32.4805 350.759C32.3413 351.14 32.1257 351.489 31.847 351.784C31.5684 352.078 31.2325 352.313 30.8599 352.474C30.4873 352.634 30.0859 352.717 29.6803 352.717C29.2746 352.717 28.8732 352.634 28.5007 352.474C28.1281 352.313 27.7922 352.078 27.5135 351.784C27.2349 351.489 27.0193 351.14 26.88 350.759C26.7407 350.378 26.6806 349.973 26.7034 349.568V346.964L60.6138 336.16Z" fill="#263238"/>
<path d="M21.3064 296.711H103.176C105.261 296.711 106.95 295.022 106.95 292.937V281.473C106.95 279.389 105.261 277.699 103.176 277.699H21.3064C19.222 277.699 17.5323 279.389 17.5323 281.473V292.937C17.5323 295.022 19.222 296.711 21.3064 296.711Z" fill="#263238"/>
<path d="M309.111 224.314H84.9286V353.163H309.111V224.314Z" fill="#CCCCCC"/>
<path d="M308.941 227.409H85.0419V230.976H308.941V227.409Z" fill="#263238"/>
<path d="M310.772 222.201H79.9374V227.834H310.772V222.201Z" fill="#CCCCCC"/>
<path d="M144.616 211.011C144.616 211.011 147.258 222.814 147.107 226.107C146.956 229.4 140.738 238.222 140.578 236.203C140.63 234.492 141.002 232.805 141.672 231.23C141.672 231.23 139.493 234.184 138.719 234.061C137.945 233.938 139.342 229.862 139.342 229.862C139.342 229.862 137.011 232.193 136.228 231.749C135.445 231.306 137.936 227.862 137.936 227.862C137.936 227.862 135.105 230.815 134.992 229.881C134.879 228.947 137.474 225.069 137.474 225.069C137.474 225.069 134.832 219.474 134.643 217.144C134.66 215.516 135.203 213.937 136.19 212.643L144.616 211.011Z" fill="white"/>
<path d="M144.616 211.011C144.616 211.011 147.258 222.814 147.107 226.107C146.956 229.4 140.738 238.222 140.578 236.203C140.63 234.492 141.002 232.805 141.672 231.23C141.672 231.23 139.493 234.184 138.719 234.061C137.945 233.938 139.342 229.862 139.342 229.862C139.342 229.862 137.011 232.193 136.228 231.749C135.445 231.306 137.936 227.862 137.936 227.862C137.936 227.862 135.105 230.815 134.992 229.881C134.879 228.947 137.474 225.069 137.474 225.069C137.474 225.069 134.832 219.474 134.643 217.144C134.66 215.516 135.203 213.937 136.19 212.643L144.616 211.011Z" fill="#D9D9D9"/>
<path d="M144.616 211.011C144.616 211.011 147.258 222.814 147.107 226.107C146.956 229.4 140.738 238.222 140.578 236.203C140.63 234.492 141.002 232.805 141.672 231.23C141.672 231.23 139.493 234.184 138.719 234.061C137.945 233.938 139.342 229.862 139.342 229.862C139.342 229.862 137.011 232.193 136.228 231.749C135.445 231.306 137.936 227.862 137.936 227.862C137.936 227.862 135.105 230.815 134.992 229.881C134.879 228.947 137.474 225.069 137.474 225.069C137.474 225.069 134.832 219.474 134.643 217.144C134.66 215.516 135.203 213.937 136.19 212.643L144.616 211.011Z" stroke="#263238" stroke-linecap="round" stroke-linejoin="round"/>
<path d="M143.993 211.011C143.993 211.011 145.88 219.248 145.711 221.578C145.541 223.909 143.22 230.74 141.512 229.494C139.804 228.249 142.597 223.597 142.597 223.597C142.597 223.597 137.804 220.229 136.7 217.068C135.596 213.907 136.228 212.567 136.228 212.567L143.993 211.011Z" fill="white"/>
<path d="M143.993 211.011C143.993 211.011 145.88 219.248 145.711 221.578C145.541 223.909 143.22 230.74 141.512 229.494C139.804 228.249 142.597 223.597 142.597 223.597C142.597 223.597 137.804 220.229 136.7 217.068C135.596 213.907 136.228 212.567 136.228 212.567L143.993 211.011Z" fill="#D9D9D9"/>
<path d="M143.993 211.011C143.993 211.011 145.88 219.248 145.711 221.578C145.541 223.909 143.22 230.74 141.512 229.494C139.804 228.249 142.597 223.597 142.597 223.597C142.597 223.597 137.804 220.229 136.7 217.068C135.596 213.907 136.228 212.567 136.228 212.567L143.993 211.011Z" stroke="#263238" stroke-linecap="round" stroke-linejoin="round"/>
<path d="M138.304 172.411L144.918 211.803L135.596 213.907L126.274 183.535L138.304 172.411Z" fill="#263238" stroke="#263238" stroke-linecap="round" stroke-linejoin="round"/>
<path d="M135.596 191.659C135.596 191.659 136.2 238.571 137.096 251.205C137.993 263.839 134.69 280.681 131.69 285.493C128.689 290.305 115.442 320.403 116.046 322.187C116.65 323.97 119.358 329.404 119.358 330.905V337.217C119.358 337.217 134.388 347.143 135.596 347.143C136.804 347.143 138.304 349.549 135.294 351.36C132.284 353.172 98.6003 353.163 97.1001 351.955C96.1104 351.067 95.3828 349.925 94.996 348.652C94.996 348.652 90.184 350.455 90.4859 345.945C90.7878 341.434 96.1943 322.187 96.1943 322.187C96.1943 322.187 92.8919 301.127 94.0902 287.597C95.2885 274.067 99.5061 257.819 99.5061 254.517C99.5061 251.214 95.2979 229.249 94.6941 225.645C94.0902 222.04 85.372 211.803 89.2782 203.689C93.1844 195.574 96.1943 182.629 97.402 181.733C98.6097 180.837 114.848 180.223 121.462 181.733C128.076 183.243 135.294 183.233 135.596 191.659Z" fill="#263238" stroke="#263238" stroke-linecap="round" stroke-linejoin="round"/>
<path d="M105.78 97.0985C105.78 97.0985 100.638 101.703 99.7513 103.297C98.8644 104.892 88.0704 120.281 87.8912 131.282C87.7119 142.284 95.8734 175.553 95.8734 175.553L83.6075 206.755L87.1552 208.171L90.6934 204.274V210.124C90.6934 210.124 94.7695 213.841 105.394 217.379C116.018 220.918 129.661 216.851 129.661 216.851L133.728 190.961V216.502L138.511 213.313L138.898 170.779C138.898 170.779 142.795 147.936 142.795 141.529C142.795 135.123 131.992 115.11 127.208 109.298C122.424 103.486 114.451 98.6741 112.112 96.9003C109.772 95.1265 105.78 97.0985 105.78 97.0985Z" fill="#263238"/>
<path opacity="0.17" d="M105.78 97.0985C105.78 97.0985 100.638 101.703 99.7513 103.297C98.8644 104.892 88.0704 120.281 87.8912 131.282C87.7119 142.284 95.8734 175.553 95.8734 175.553L83.6075 206.755L87.1552 208.171L90.6934 204.274V210.124C90.6934 210.124 94.7695 213.841 105.394 217.379C116.018 220.918 129.661 216.851 129.661 216.851L133.728 190.961V216.502L138.511 213.313L138.898 170.779C138.898 170.779 142.795 147.936 142.795 141.529C142.795 135.123 131.992 115.11 127.208 109.298C122.424 103.486 114.451 98.6741 112.112 96.9003C109.772 95.1265 105.78 97.0985 105.78 97.0985Z" fill="white"/>
<path d="M90.6464 134.811C90.6464 134.811 97.0812 139.369 101.365 140.973" stroke="#263238" stroke-linecap="round" stroke-linejoin="round"/>
<path d="M92.5239 139.642C92.5239 139.642 99.7608 141.529 103.507 141.529" stroke="#263238" stroke-linecap="round" stroke-linejoin="round"/>
<path d="M102.978 182.497L123.339 184.913L122 189.196L103.242 187.054" stroke="#263238" stroke-linecap="round" stroke-linejoin="round"/>
<path d="M105.78 97.0985C105.78 97.0985 100.638 101.703 99.7513 103.297C98.8644 104.892 88.0704 120.281 87.8912 131.282C87.7119 142.284 95.8734 175.553 95.8734 175.553L83.6075 206.755L87.1552 208.171L90.6934 204.274V210.124C90.6934 210.124 94.7695 213.841 105.394 217.379C116.018 220.918 129.661 216.851 129.661 216.851L133.728 190.961V216.502L138.511 213.313L138.898 170.779C138.898 170.779 142.795 147.936 142.795 141.529C142.795 135.123 131.992 115.11 127.208 109.298C122.424 103.486 114.451 98.6741 112.112 96.9003C109.772 95.1265 105.78 97.0985 105.78 97.0985Z" stroke="#263238" stroke-linecap="round" stroke-linejoin="round"/>
<path d="M104.714 98.1269L124.377 119.385L135.888 141.35C135.888 141.35 133.407 125.055 131.284 120.592C129.161 116.129 119.594 105.071 118.518 102.59C117.442 100.108 104.714 98.1269 104.714 98.1269Z" fill="white" stroke="#263238" stroke-linecap="round" stroke-linejoin="round"/>
<path d="M130.444 130.99L135.889 141.369C135.889 141.369 134.2 130.263 132.407 123.895L131.284 120.639C129.777 117.995 128.067 115.472 126.17 113.091L123.085 112.478L124.377 119.422L128.359 122.678L130.444 130.99Z" fill="#263238" stroke="#263238" stroke-linecap="round" stroke-linejoin="round"/>
<path d="M125.198 106.137L126.217 107.317L129.416 111.091L131.303 120.677L123.104 112.497C123.104 112.497 124.179 107.562 125.198 106.137Z" fill="white" stroke="#263238" stroke-linecap="round" stroke-linejoin="round"/>
<path d="M134.473 66.6319C134.473 66.6319 138.776 69.9343 139.313 73.1234C139.851 76.3125 138.247 79.8602 138.427 81.0962C138.606 82.3322 141.785 85.1723 141.616 86.5876C141.446 88.0029 138.785 88.5312 138.785 88.5312C138.785 88.5312 135.898 99.0421 135.19 100.797C134.483 102.552 130.935 102.033 128.284 101.684L123.5 115.837L107.724 97.2777L110.206 89.8333C110.206 89.8333 103.478 81.6907 102.94 73.0102C102.403 64.3297 109.319 58.31 119.235 57.074C129.152 55.838 137.483 60.6122 138.54 62.5653C139.597 64.5184 134.473 66.6319 134.473 66.6319Z" fill="white"/>
<path d="M134.474 66.6319C134.474 66.6319 138.777 69.9343 139.314 73.1234C139.852 76.3125 138.248 79.8602 138.428 81.0962C138.607 82.3322 141.786 85.1723 141.617 86.5876C141.447 88.0029 138.786 88.5312 138.786 88.5312C138.786 88.5312 135.899 99.0421 135.191 100.797C134.484 102.552 130.936 102.033 128.285 101.684L123.501 115.837L107.725 97.2777L110.207 89.8333C110.207 89.8333 103.479 81.6907 102.941 73.0102C102.404 64.3297 109.32 58.31 119.236 57.074C129.153 55.838 137.484 60.6122 138.541 62.5653C139.597 64.5184 134.474 66.6319 134.474 66.6319Z" fill="#D9D9D9"/>
<path d="M116.093 107.147C118.754 106.609 123.217 105.685 127.236 104.779L128.274 101.703C130.482 101.995 133.313 102.411 134.596 101.514C131.577 100.269 124.104 98.0892 122.575 95.2869C120.688 91.8053 127.293 81.6718 127.293 76.6051C127.293 71.5383 120.962 65.8394 120.962 65.8394C117.914 62.9428 112.357 62.0653 107.422 62.0653C105.869 63.4217 104.653 65.1212 103.87 67.029C103.087 68.9369 102.759 71.0008 102.912 73.0574C103.45 81.7378 110.177 89.8805 110.177 89.8805L107.696 97.3249L116.093 107.147Z" fill="#B8B8B8"/>
<path d="M134.473 66.6319C134.473 66.6319 138.776 69.9343 139.313 73.1234C139.851 76.3125 138.247 79.8602 138.427 81.0962C138.606 82.3322 141.785 85.1723 141.616 86.5876C141.446 88.0029 138.785 88.5312 138.785 88.5312C138.785 88.5312 135.898 99.0421 135.19 100.797C134.483 102.552 130.935 102.033 128.284 101.684L123.5 115.837L107.724 97.2777L110.206 89.8333C110.206 89.8333 103.478 81.6907 102.94 73.0102C102.403 64.3297 109.319 58.31 119.235 57.074C129.152 55.838 137.483 60.6122 138.54 62.5653C139.597 64.5184 134.473 66.6319 134.473 66.6319Z" stroke="#263238" stroke-linecap="round" stroke-linejoin="round"/>
<path d="M134.473 66.6319C134.473 66.6319 139.606 64.509 138.54 62.5653C137.474 60.6217 129.152 55.8285 119.235 57.074C109.319 58.3194 102.412 64.3297 102.94 73.0102C103.469 81.6906 110.206 89.8333 110.206 89.8333L109.828 90.9655C113.499 92.7582 117.292 89.8333 117.292 89.8333C116.599 90.1826 115.813 90.3022 115.048 90.175C114.283 90.0478 113.578 89.6802 113.036 89.1256C110.913 87.182 110.734 80.983 113.395 80.4452C116.056 79.9074 117.82 80.983 117.82 82.9267C117.82 84.8703 118.348 83.6343 119.773 83.455C121.198 83.2758 119.943 79.0299 120.83 78.3222C122.263 77.4349 123.523 76.2934 124.547 74.9539C126.142 72.8309 121.537 71.0665 121.009 69.1134C120.481 67.1603 134.473 66.6319 134.473 66.6319Z" fill="#263238" stroke="#263238" stroke-linecap="round" stroke-linejoin="round"/>
<path d="M135.738 80.4641L132.454 81.5585H135.426" stroke="#263238" stroke-linecap="round" stroke-linejoin="round"/>
<path d="M136.992 77.1806C136.992 77.1806 135.587 75.152 134.02 76.0861C132.454 77.0202 132.303 77.6524 132.303 77.6524" stroke="#263238" stroke-linecap="round" stroke-linejoin="round"/>
<path d="M133.615 91.409C134.575 92.0655 135.747 92.3351 136.898 92.1638" stroke="#263238" stroke-linecap="round" stroke-linejoin="round"/>
<path d="M107.016 93.9093L126.849 113.393L125.085 121.715L104.007 99.0421L107.016 93.9093Z" fill="white" stroke="#263238" stroke-linecap="round" stroke-linejoin="round"/>
<path d="M183.206 168.401C183.206 168.401 176.224 164.249 175.092 164.627C173.96 165.004 163.015 172.93 163.77 174.817C164.525 176.704 170.375 179.157 173.771 180.478C177.168 181.799 184.15 178.968 184.15 178.968L183.206 168.401Z" fill="white" stroke="#263238" stroke-linecap="round" stroke-linejoin="round"/>
<path d="M162.864 166.891C162.864 166.891 168.902 163.495 169.846 163.495C170.789 163.495 176.262 168.401 176.262 168.401L173.997 171.798C173.997 171.798 181.168 175.383 180.413 176.704C179.659 178.025 176.828 180.101 173.809 180.478C170.789 180.855 162.298 175.383 162.298 175.383L162.864 166.891Z" fill="white"/>
<path d="M162.864 166.891C162.864 166.891 168.902 163.495 169.846 163.495C170.789 163.495 176.262 168.401 176.262 168.401L173.997 171.798C173.997 171.798 181.168 175.383 180.413 176.704C179.659 178.025 176.828 180.101 173.809 180.478C170.789 180.855 162.298 175.383 162.298 175.383L162.864 166.891Z" fill="#D9D9D9"/>
<path d="M162.864 166.891C162.864 166.891 168.902 163.495 169.846 163.495C170.789 163.495 176.262 168.401 176.262 168.401L173.997 171.798C173.997 171.798 181.168 175.383 180.413 176.704C179.659 178.025 176.828 180.101 173.809 180.478C170.789 180.855 162.298 175.383 162.298 175.383L162.864 166.891Z" stroke="#263238" stroke-linecap="round" stroke-linejoin="round"/>
<path d="M158.675 165.382L163.958 166.325L162.26 175.383L157.731 173.873L158.675 165.382Z" fill="white" stroke="#263238" stroke-linecap="round" stroke-linejoin="round"/>
<path d="M97.3548 112.733C97.3548 112.733 92.2597 122.545 91.6936 127.452C91.1275 132.358 111.885 171.42 113.395 172.741C114.904 174.062 159.052 175.383 159.052 175.383L160.939 165.759L123.198 155.003L110.366 115.563" fill="#263238"/>
<path opacity="0.17" d="M97.3548 112.733C97.3548 112.733 92.2597 122.545 91.6936 127.452C91.1275 132.358 111.885 171.42 113.395 172.741C114.904 174.062 159.052 175.383 159.052 175.383L160.939 165.759L123.198 155.003L110.366 115.563" fill="white"/>
<path d="M97.3548 112.733C97.3548 112.733 92.2597 122.545 91.6936 127.452C91.1275 132.358 111.885 171.42 113.395 172.741C114.904 174.062 159.052 175.383 159.052 175.383L160.939 165.759L123.198 155.003L110.366 115.563" stroke="#263238" stroke-linecap="round" stroke-linejoin="round"/>
<path d="M176.602 165.57C176.602 165.57 173.96 163.306 173.016 165.948C172.073 168.59 166.223 175.006 168.865 175.194C171.507 175.383 176.413 169.911 176.413 169.911" fill="white"/>
<path d="M176.602 165.57C176.602 165.57 173.96 163.306 173.016 165.948C172.073 168.59 166.223 175.006 168.865 175.194C171.507 175.383 176.413 169.911 176.413 169.911" stroke="#263238" stroke-linecap="round" stroke-linejoin="round"/>
<path d="M164.902 176.138C164.902 176.138 164.223 179.317 165.846 180.667C166.987 181.61 167.629 178.968 167.355 177.081C167.082 175.194 165.468 174.628 164.902 176.138Z" fill="white" stroke="#263238" stroke-linecap="round" stroke-linejoin="round"/>
<path d="M167.582 176.893C167.582 176.893 166.902 180.072 168.525 181.422C169.667 182.365 170.308 179.723 170.035 177.836C169.761 175.949 168.11 175.383 167.582 176.893Z" fill="white" stroke="#263238" stroke-linecap="round" stroke-linejoin="round"/>
<path d="M170.186 178.025C170.186 178.025 169.506 181.205 171.129 182.554C172.271 183.497 172.913 180.855 172.639 178.968C172.365 177.081 170.752 176.515 170.186 178.025Z" fill="white" stroke="#263238" stroke-linecap="round" stroke-linejoin="round"/>
<path d="M172.799 179.563C172.799 179.563 172.177 181.705 173.667 182.61C174.715 183.252 175.309 181.469 175.054 180.195C174.8 178.921 173.318 178.544 172.799 179.563Z" fill="white" stroke="#263238" stroke-linecap="round" stroke-linejoin="round"/>
<path d="M183.206 168.401L183.773 180.478L187.924 179.346L186.981 168.212L183.206 168.401Z" stroke="#263238" stroke-linecap="round" stroke-linejoin="round"/>
<path d="M186.037 167.269L187.924 181.61L219.438 178.214L220.193 159.532L186.037 167.269Z" fill="#263238" stroke="#263238" stroke-linecap="round" stroke-linejoin="round"/>
<path d="M130.784 224.437C130.784 224.437 125.066 262.631 125.066 275.567C125.066 288.503 116.348 310.157 116.046 322.187" stroke="white" stroke-linecap="round" stroke-linejoin="round"/>
<path d="M97.1 351.936C98.6002 353.144 132.284 353.144 135.294 351.342C138.304 349.539 136.794 347.124 135.596 347.124C134.398 347.124 119.358 337.198 119.358 337.198C119.358 337.198 111.234 343.52 106.724 345.02C102.214 346.52 94.996 346.822 94.996 346.822V348.634C95.3828 349.906 96.1104 351.048 97.1 351.936Z" fill="white" stroke="#263238" stroke-linecap="round" stroke-linejoin="round"/>
<path d="M135.294 351.36C136.879 350.417 137.181 349.285 136.992 348.445C132.569 349.319 128.075 349.79 123.566 349.851C114.48 350.096 100.185 349.539 95.2601 349.332C95.668 350.346 96.3155 351.246 97.1472 351.955C98.6002 353.163 132.284 353.163 135.294 351.36Z" fill="white" stroke="#263238" stroke-linecap="round" stroke-linejoin="round"/>
<path d="M94.1185 348.888L94.996 346.841L96.1942 322.187C96.1942 322.187 90.7784 341.434 90.4859 345.945C90.2594 349.228 92.7504 349.162 94.1185 348.888Z" fill="#263238" stroke="#263238" stroke-linecap="round" stroke-linejoin="round"/>
<path d="M224.014 216.917C224.014 216.917 221.014 261.735 224.014 279.775C227.014 297.815 234.572 329.103 235.742 333.009C236.479 335.34 236.799 337.784 236.686 340.227L253.528 342.633C253.528 342.633 248.414 283.389 248.414 276.473C248.414 269.557 254.131 217.823 254.131 217.823L224.014 216.917Z" fill="#263238" stroke="#263238" stroke-linecap="round" stroke-linejoin="round"/>
<path d="M236.648 340.227C236.648 340.227 218.306 348.049 216.192 349.549C214.079 351.049 220.712 353.163 228.826 353.163C236.94 353.163 245.074 352.219 245.074 352.219L248.376 350.417L248.678 352.521H257.396C257.396 352.521 258.906 345.303 258.34 343.501C257.911 342.268 257.41 341.061 256.839 339.887L236.648 340.227Z" fill="#263238" stroke="#263238" stroke-linecap="round" stroke-linejoin="round"/>
<path d="M221.306 213.313C221.306 213.313 222.816 256.319 226.42 271.661C230.024 287.002 236.346 324.291 236.346 328.197C236.369 330.43 236.067 332.655 235.45 334.802L234.242 338.727C234.448 339.663 234.765 340.572 235.185 341.435C235.185 341.435 242.998 343.237 248.112 343.237C251.308 343.208 254.485 342.728 257.547 341.812C257.547 341.812 257.707 332.377 258.009 327.895C258.311 323.413 256.811 294.513 256.811 287.597C256.811 280.681 255 276.765 255 268.349C255 259.933 253.499 237.373 253.801 233.759C254.103 230.145 258.311 226.211 259.217 221.729C260.123 217.247 261.019 212.407 261.019 212.407L221.306 213.313Z" fill="#263238" stroke="#263238" stroke-linecap="round" stroke-linejoin="round"/>
<path d="M224.91 258.527C224.91 258.527 233.317 316.846 235.421 320.526C236.676 322.874 237.013 325.605 236.365 328.187" stroke="white" stroke-linecap="round" stroke-linejoin="round"/>
<path d="M214.088 179.327C214.088 179.327 212.965 190.829 212.965 199.622C212.965 204.529 212.918 210.945 212.871 215.587C212.858 217.497 213.509 219.352 214.714 220.835C215.919 222.317 217.603 223.334 219.476 223.711C221.451 224.145 223.464 224.388 225.486 224.437L218.419 180.676C218.419 180.676 215.22 175.27 214.088 179.327Z" fill="#263238" stroke="#263238" stroke-linecap="round" stroke-linejoin="round"/>
<path d="M247.48 100.957C249.203 101.864 250.775 103.032 252.141 104.42C253.344 106.003 254.411 107.685 255.33 109.449C255.33 109.449 268.115 124.187 268.416 125.687C268.718 127.188 261.198 174.562 261.198 174.562L269.766 219.37C269.766 219.37 255.934 227.041 245.404 227.494C237.997 227.815 226.854 225.447 220.872 224.012C219.682 223.73 218.61 223.081 217.81 222.157C217.009 221.232 216.519 220.079 216.409 218.861C215.824 212.558 214.73 199.99 214.088 188.092C213.352 174.27 215.447 146.888 216.919 137.264C218.391 127.64 223.089 114.563 226.694 109.147C230.298 103.731 240.233 98.1269 247.48 100.957Z" fill="#263238" stroke="#263238" stroke-linecap="round" stroke-linejoin="round"/>
<path d="M255.33 109.449C254.42 107.71 253.366 106.049 252.178 104.486C250.813 103.099 249.24 101.93 247.517 101.024C241.517 98.6553 233.666 102.09 229.109 106.43C228.505 107.77 223.75 118.62 221.495 127.49C219.089 136.925 219.391 148.851 219.391 148.851C219.391 148.851 227.364 138.623 238.186 126.593C243.59 120.58 249.492 115.034 255.83 110.015L255.33 109.449Z" fill="#263238"/>
<path opacity="0.17" d="M255.33 109.449C254.42 107.71 253.366 106.049 252.178 104.486C250.813 103.099 249.24 101.93 247.517 101.024C241.517 98.6553 233.666 102.09 229.109 106.43C228.505 107.77 223.75 118.62 221.495 127.49C219.089 136.925 219.391 148.851 219.391 148.851C219.391 148.851 227.364 138.623 238.186 126.593C243.59 120.58 249.492 115.034 255.83 110.015L255.33 109.449Z" fill="white"/>
<path d="M255.33 109.449C254.42 107.71 253.366 106.049 252.178 104.486C250.813 103.099 249.24 101.93 247.517 101.024C241.517 98.6553 233.666 102.09 229.109 106.43C228.505 107.77 223.75 118.62 221.495 127.49C219.089 136.925 219.391 148.851 219.391 148.851C219.391 148.851 227.364 138.623 238.186 126.593C243.59 120.58 249.492 115.034 255.83 110.015L255.33 109.449Z" stroke="#263238" stroke-linecap="round" stroke-linejoin="round"/>
<path d="M228.081 113.346C228.081 113.346 224.014 126.093 222.778 129.697C221.542 133.302 221.419 138.953 221.419 138.953C221.419 138.953 236.648 116.167 240.365 112.336C244.083 108.506 248.942 102.524 248.942 102.524L245.668 101.58L228.081 113.346Z" fill="white" stroke="#263238" stroke-linecap="round" stroke-linejoin="round"/>
<path d="M229.203 108.723C229.203 108.723 227.401 114.025 227.401 114.384C227.401 114.742 226.948 119.8 226.948 119.8L233.374 111.11L229.203 108.723Z" fill="white" stroke="#263238" stroke-linecap="round" stroke-linejoin="round"/>
<path d="M245.555 98.1269L227.967 112.45L230.675 120.338L248.716 101.958L245.555 98.1269Z" fill="white" stroke="#263238" stroke-linecap="round" stroke-linejoin="round"/>
<path d="M243.281 211.728C243.281 211.728 240.781 217.946 240.035 219.984C239.29 222.022 239.667 230.004 239.762 230.844C239.856 231.683 241.337 231.863 241.337 231.863C241.337 231.863 241.8 238.26 242.356 238.467C242.935 238.611 243.525 238.703 244.121 238.741C244.121 238.741 245.14 241.996 246.442 241.713C246.833 241.594 247.181 241.364 247.444 241.05C247.707 240.737 247.873 240.354 247.923 239.949C248.351 239.989 248.782 239.916 249.173 239.737C249.563 239.558 249.9 239.28 250.15 238.93C250.68 238.15 251.117 237.311 251.452 236.429C251.452 236.429 253.679 235.316 253.858 234.476C254.037 233.636 254.603 230.702 254.603 230.702C254.603 230.702 255.254 230.513 255.254 228.57C255.254 226.626 253.773 214.653 253.773 214.653L243.281 211.728Z" fill="white" stroke="#263238" stroke-linecap="round" stroke-linejoin="round"/>
<path d="M241.337 231.863L241.611 226.22" stroke="#263238" stroke-linecap="round" stroke-linejoin="round"/>
<path d="M244.121 238.722L244.724 230.372" stroke="#263238" stroke-linecap="round" stroke-linejoin="round"/>
<path d="M247.923 239.93L248.357 230.891" stroke="#263238" stroke-linecap="round" stroke-linejoin="round"/>
<path d="M251.452 236.41L251.99 230.117" stroke="#263238" stroke-linecap="round" stroke-linejoin="round"/>
<path d="M261.614 121.583L268.379 125.64L266.124 172.411L254.094 216.615L242.668 213.615L246.272 178.704L244.47 143.52C244.47 143.52 247.027 135.321 252.886 130.811" fill="#263238"/>
<path d="M261.614 121.583L268.379 125.64L266.124 172.411L254.094 216.615L242.668 213.615L246.272 178.704L244.47 143.52C244.47 143.52 247.027 135.321 252.886 130.811" stroke="#263238" stroke-linecap="round" stroke-linejoin="round"/>
<path d="M247.697 129.48C247.697 129.48 244.621 137.293 244.47 143.539" stroke="white" stroke-linecap="round" stroke-linejoin="round"/>
<path d="M250.263 133.198C250.263 133.198 244.998 141.793 244.998 145.681C244.998 149.568 246.385 182.007 246.385 182.007L242.781 210.01" stroke="white" stroke-linecap="round" stroke-linejoin="round"/>
<path d="M217.589 69.472C217.589 69.472 213.975 79.7376 214.315 81.2095C214.654 82.6814 214.994 84.9269 214.994 84.9269C214.994 84.9269 209.333 91.9185 210.031 92.7111C210.729 93.5036 213.862 94.4 213.862 94.4C213.862 94.4 216.456 105.232 217.475 106.241C218.494 107.251 224.807 105.005 224.807 105.005L231.572 113.572L245.442 100.269L243.753 93.2772C243.753 93.2772 251.084 80.4169 250.971 74.3217C250.857 68.2265 238.346 60.1122 229.43 60.2254C220.514 60.3386 212.173 63.6126 213.862 65.9809C214.856 67.3835 216.124 68.571 217.589 69.472Z" fill="white"/>
<path d="M246.593 67.2736C244.874 67.5245 243.196 68.0004 241.601 68.6889L228.307 74.0764C228.307 74.0764 221.976 79.4545 222.646 83.5683C223.316 87.6821 228.977 93.381 227.713 97.4948C226.448 101.609 218.532 106.043 218.532 106.043L221.014 106.137C222.901 105.694 224.844 105.005 224.844 105.005L225.882 106.317L238.695 106.779L245.479 100.269L243.79 93.2772C243.79 93.2772 251.122 80.4169 251.008 74.3217C250.933 72.0761 249.197 69.5569 246.593 67.2736Z" fill="#B8B8B8"/>
<path d="M217.589 69.472C217.589 69.472 213.975 79.7376 214.315 81.2095C214.654 82.6814 214.994 84.9269 214.994 84.9269C214.994 84.9269 209.333 91.9185 210.031 92.7111C210.729 93.5036 213.862 94.4 213.862 94.4C213.862 94.4 216.456 105.232 217.475 106.241C218.494 107.251 224.807 105.005 224.807 105.005L231.572 113.572L245.442 100.269L243.753 93.2772C243.753 93.2772 251.084 80.4169 250.971 74.3217C250.857 68.2265 238.346 60.1122 229.43 60.2254C220.514 60.3386 212.173 63.6126 213.862 65.9809C214.856 67.3835 216.124 68.571 217.589 69.472Z" stroke="#263238" stroke-linecap="round" stroke-linejoin="round"/>
<path d="M243.753 93.2772C243.753 93.2772 251.084 80.4169 250.971 74.3217C250.857 68.2265 238.346 60.1122 229.43 60.2254C220.514 60.3386 212.173 63.6126 213.862 65.9809C214.856 67.3835 216.124 68.571 217.589 69.472C217.589 69.472 223.118 72.0667 223.118 72.746C223.118 73.4253 219.844 77.0296 220.976 78.6148C222.108 80.1999 227.514 82.1058 227.514 82.1058C227.514 82.1058 226.571 85.1534 227.967 85.4931C229.364 85.8327 229.996 84.4741 230.892 83.606C231.789 82.738 234.959 81.4548 235.412 85.2949C235.678 88.0493 234.956 90.8086 233.374 93.079C232.93 93.4093 239.129 97.5891 241.866 96.3436C242.573 96.0228 243.404 95.5983 244.234 95.1548L243.753 93.2772Z" fill="#263238" stroke="#263238" stroke-linecap="round" stroke-linejoin="round"/>
<path d="M216.683 87.7481C217.121 87.7481 217.475 86.3836 217.475 84.7005C217.475 83.0174 217.121 81.6529 216.683 81.6529C216.245 81.6529 215.89 83.0174 215.89 84.7005C215.89 86.3836 216.245 87.7481 216.683 87.7481Z" stroke="#263238" stroke-linecap="round" stroke-linejoin="round"/>
<path d="M217.589 83.4645L230.892 83.5777" stroke="#263238" stroke-linecap="round" stroke-linejoin="round"/>
<path d="M215.4 79.7942C215.4 79.7942 216.664 77.775 217.928 80.2942" stroke="#263238" stroke-linecap="round" stroke-linejoin="round"/>
<path d="M215.145 96.2398C216.513 95.6823 217.787 94.9152 218.919 93.9659" stroke="#263238" stroke-linecap="round" stroke-linejoin="round"/>
<path d="M8.38013 353.163H379.725" stroke="#263238" stroke-width="2" stroke-miterlimit="10"/>
</svg>
