<svg width="71" height="70" viewBox="0 0 71 70" fill="none" xmlns="http://www.w3.org/2000/svg">
<path d="M28.9375 37.1875H15.8125C14.6522 37.1875 13.5394 37.6484 12.7189 38.4689C11.8984 39.2894 11.4375 40.4022 11.4375 41.5625V54.6875C11.4375 55.8478 11.8984 56.9606 12.7189 57.7811C13.5394 58.6016 14.6522 59.0625 15.8125 59.0625H28.9375C30.0978 59.0625 31.2106 58.6016 32.0311 57.7811C32.8516 56.9606 33.3125 55.8478 33.3125 54.6875V41.5625C33.3125 40.4022 32.8516 39.2894 32.0311 38.4689C31.2106 37.6484 30.0978 37.1875 28.9375 37.1875ZM15.8125 54.6875V41.5625H28.9375V54.6875H15.8125Z" fill="#6C75C7"/>
<path d="M42.0625 45.9375V50.3125H55.1875C56.3478 50.3125 57.4606 49.8516 58.2811 49.0311C59.1016 48.2106 59.5625 47.0978 59.5625 45.9375V15.3125C59.5625 14.1522 59.1016 13.0394 58.2811 12.2189C57.4606 11.3984 56.3478 10.9375 55.1875 10.9375H24.5625C23.4022 10.9375 22.2894 11.3984 21.4689 12.2189C20.6484 13.0394 20.1875 14.1522 20.1875 15.3125V28.4375H24.5625V15.3125H55.1875V45.9375" fill="#6C75C7"/>
</svg>
