<svg width="44" height="44" viewBox="0 0 44 44" fill="none" xmlns="http://www.w3.org/2000/svg">
<g clip-path="url(#clip0)">
<path d="M5.39559 34.8333C5.2431 34.8332 5.09305 34.7951 4.95903 34.7223C4.82501 34.6496 4.71125 34.5446 4.62806 34.4168C4.54487 34.289 4.49487 34.1425 4.48259 33.9905C4.47031 33.8385 4.49615 33.6858 4.55775 33.5463C6.27925 29.6542 9.16675 22.1485 9.16675 15.5833C9.16675 11.0348 12.8664 7.33333 17.4168 7.33333C17.6599 7.33333 17.893 7.42991 18.0649 7.60182C18.2368 7.77373 18.3334 8.00688 18.3334 8.25C18.3334 8.49312 18.2368 8.72627 18.0649 8.89818C17.893 9.07009 17.6599 9.16667 17.4168 9.16667C13.8784 9.16667 11.0001 12.045 11.0001 15.5833C11.0001 22.484 8.01542 30.2647 6.23525 34.287C6.16339 34.4497 6.04574 34.588 5.89665 34.685C5.74756 34.782 5.57346 34.8336 5.39559 34.8333ZM21.0834 5.5C20.963 5.5 20.8438 5.47629 20.7326 5.43022C20.6214 5.38416 20.5204 5.31663 20.4352 5.23151C20.3501 5.14639 20.2826 5.04534 20.2365 4.93413C20.1905 4.82291 20.1668 4.70371 20.1668 4.58333C20.1668 3.06717 18.9329 1.83333 17.4168 1.83333C15.9006 1.83333 14.6668 3.06717 14.6668 4.58333C14.6668 4.82645 14.5702 5.05961 14.3983 5.23151C14.2264 5.40342 13.9932 5.5 13.7501 5.5C13.507 5.5 13.2738 5.40342 13.1019 5.23151C12.93 5.05961 12.8334 4.82645 12.8334 4.58333C12.8334 2.057 14.8904 0 17.4168 0C19.9431 0 22.0001 2.057 22.0001 4.58333C22.0001 4.82645 21.9035 5.05961 21.7316 5.23151C21.5597 5.40342 21.3265 5.5 21.0834 5.5ZM33.9168 44C28.3563 44 23.8334 39.4772 23.8334 33.9167C23.8334 28.3562 28.3563 23.8333 33.9168 23.8333C39.4773 23.8333 44.0001 28.3562 44.0001 33.9167C44.0001 39.4772 39.4773 44 33.9168 44ZM33.9168 25.6667C29.3683 25.6667 25.6668 29.3682 25.6668 33.9167C25.6668 38.4652 29.3683 42.1667 33.9168 42.1667C38.4653 42.1667 42.1668 38.4652 42.1668 33.9167C42.1668 29.3682 38.4653 25.6667 33.9168 25.6667ZM43.0816 25.6667C42.8839 25.6663 42.6916 25.602 42.5334 25.4833L38.8668 22.7333C38.7705 22.6611 38.6893 22.5706 38.628 22.467C38.5667 22.3635 38.5263 22.2488 38.5093 22.1296C38.4923 22.0105 38.4989 21.8891 38.5288 21.7725C38.5586 21.6559 38.6112 21.5463 38.6834 21.45C38.7556 21.3537 38.8461 21.2726 38.9497 21.2112C39.0533 21.1499 39.1679 21.1096 39.2871 21.0925C39.4063 21.0755 39.5276 21.0821 39.6443 21.112C39.7609 21.1419 39.8704 21.1944 39.9668 21.2667L43.6334 24.0167C43.7875 24.1322 43.9012 24.2933 43.9585 24.4771C44.0158 24.6609 44.0138 24.8581 43.9528 25.0407C43.8917 25.2234 43.7747 25.3821 43.6183 25.4944C43.4619 25.6068 43.2741 25.6671 43.0816 25.6667ZM24.7501 25.6667C24.5577 25.6667 24.3702 25.6061 24.2141 25.4936C24.058 25.3811 23.9413 25.2224 23.8805 25.0399C23.8196 24.8574 23.8177 24.6603 23.8751 24.4767C23.9325 24.293 24.0462 24.1321 24.2001 24.0167L27.8668 21.2667C27.9631 21.1944 28.0726 21.1419 28.1893 21.112C28.3059 21.0821 28.4272 21.0755 28.5464 21.0925C28.6656 21.1096 28.7802 21.1499 28.8838 21.2112C28.9874 21.2726 29.0779 21.3537 29.1501 21.45C29.2223 21.5463 29.2749 21.6559 29.3047 21.7725C29.3346 21.8891 29.3412 22.0105 29.3242 22.1296C29.3072 22.2488 29.2669 22.3635 29.2055 22.467C29.1442 22.5706 29.0631 22.6611 28.9668 22.7333L25.3001 25.4833C25.1414 25.6023 24.9484 25.6667 24.7501 25.6667Z" fill="#6C75C7"/>
<path d="M37.5833 38.5C37.3401 38.5 37.1068 38.4038 36.9343 38.2323L33.2677 34.5657C33.0965 34.393 33.0004 34.1598 33 33.9167V28.4167C33 28.1735 33.0966 27.9404 33.2685 27.7685C33.4404 27.5966 33.6735 27.5 33.9167 27.5C34.1598 27.5 34.3929 27.5966 34.5648 27.7685C34.7367 27.9404 34.8333 28.1735 34.8333 28.4167V33.5372L38.2323 36.9362C38.3602 37.0645 38.4472 37.2278 38.4824 37.4055C38.5175 37.5832 38.4992 37.7674 38.4298 37.9347C38.3603 38.102 38.2429 38.245 38.0922 38.3456C37.9416 38.4462 37.7645 38.5 37.5833 38.5ZM21.6223 38.5H3.14416C2.61105 38.4994 2.08683 38.3633 1.62072 38.1046C1.15462 37.8458 0.761916 37.4728 0.479482 37.0207C0.197047 36.5685 0.034147 36.052 0.0060743 35.5197C-0.0219984 34.9873 0.0856773 34.4565 0.318992 33.9772C1.18433 32.1988 5.49999 22.9662 5.49999 15.5833C5.49999 9.01266 10.846 3.66666 17.4167 3.66666C23.9873 3.66666 29.3333 9.01266 29.3333 15.5833C29.3333 16.4633 29.3993 17.4295 29.5258 18.458C29.5438 18.5789 29.5375 18.7021 29.5072 18.8205C29.4769 18.9389 29.4232 19.05 29.3494 19.1474C29.2755 19.2447 29.1829 19.3263 29.077 19.3873C28.9711 19.4484 28.8541 19.4876 28.7329 19.5028C28.6116 19.5179 28.4886 19.5087 28.3709 19.4756C28.2533 19.4425 28.1434 19.3862 28.0479 19.31C27.9523 19.2339 27.8729 19.1394 27.8144 19.0321C27.7559 18.9248 27.7194 18.8069 27.7072 18.6853C27.5746 17.6565 27.5054 16.6206 27.5 15.5833C27.5 10.0228 22.9772 5.49999 17.4167 5.49999C11.8562 5.49999 7.33333 10.0228 7.33333 15.5833C7.33333 23.1733 3.22666 32.1952 1.96716 34.7783C1.8696 34.9782 1.82445 35.1997 1.83595 35.4218C1.84744 35.644 1.91521 35.8596 2.03287 36.0483C2.15054 36.2371 2.31425 36.3929 2.50864 36.5011C2.70303 36.6092 2.92171 36.6662 3.14416 36.6667H21.6223C21.8654 36.6667 22.0986 36.7632 22.2705 36.9351C22.4424 37.1071 22.539 37.3402 22.539 37.5833C22.539 37.8264 22.4424 38.0596 22.2705 38.2315C22.0986 38.4034 21.8654 38.5 21.6223 38.5Z" fill="#6C75C7"/>
<path d="M17.4167 44C13.8783 44 11 41.1217 11 37.5833C11 37.4629 11.0237 37.3437 11.0698 37.2325C11.1158 37.1213 11.1834 37.0203 11.2685 36.9351C11.3536 36.85 11.4547 36.7825 11.5659 36.7364C11.6771 36.6904 11.7963 36.6667 11.9167 36.6667H21.6223C21.8655 36.6667 22.0986 36.7632 22.2705 36.9351C22.4424 37.1071 22.539 37.3402 22.539 37.5833C22.539 37.8264 22.4424 38.0596 22.2705 38.2315C22.0986 38.4034 21.8655 38.5 21.6223 38.5H12.925C13.3503 40.59 15.202 42.1667 17.4167 42.1667C18.3177 42.1678 19.199 41.9029 19.9501 41.4052C20.7012 40.9076 21.2887 40.1992 21.6388 39.369C21.7367 39.1501 21.9165 38.9783 22.1396 38.8904C22.3627 38.8025 22.6114 38.8055 22.8323 38.8988C23.0532 38.9921 23.2287 39.1683 23.3213 39.3895C23.4138 39.6107 23.416 39.8594 23.3273 40.0822C22.8372 41.2445 22.0148 42.2363 20.9634 42.9333C19.9119 43.6302 18.6781 44.0013 17.4167 44Z" fill="#6C75C7"/>
</g>
<defs>
<clipPath id="clip0">
<rect width="44" height="44" fill="white"/>
</clipPath>
</defs>
</svg>
