<svg width="50" height="50" viewBox="0 0 50 50" fill="none" xmlns="http://www.w3.org/2000/svg">
<path d="M45.8334 41.6667H4.16665C1.86875 41.6667 0 39.7979 0 37.5V12.5C0 10.2021 1.86875 8.33337 4.16665 8.33337H45.8334C48.1312 8.33337 50 10.2021 50 12.5V37.5C50 39.7979 48.1312 41.6667 45.8334 41.6667ZM4.16665 10.4167C3.01772 10.4167 2.08335 11.351 2.08335 12.5V37.5C2.08335 38.649 3.01772 39.5834 4.16665 39.5834H45.8334C46.9823 39.5834 47.9166 38.649 47.9166 37.5V12.5C47.9166 11.3511 46.9823 10.4167 45.8334 10.4167H4.16665Z" fill="#6C75C7"/>
<path d="M25 30.4073L6.7261 18.5833C6.2427 18.2698 6.10418 17.626 6.41668 17.1427C6.72918 16.6594 7.374 16.5219 7.8573 16.8333L25 27.926L42.1427 16.8333C42.626 16.5219 43.2709 16.6594 43.5834 17.1427C43.8959 17.6261 43.7573 18.2698 43.274 18.5833L25 30.4072V30.4073ZM6.25105 35.4166C5.91462 35.4166 5.58338 35.2541 5.38338 34.9531C5.06355 34.474 5.19275 33.8281 5.6719 33.5083L15.0469 27.2583C15.5261 26.9385 16.1729 27.0677 16.4917 27.5469C16.8115 28.026 16.6823 28.6719 16.2031 28.9917L6.82815 35.2417C6.65003 35.3594 6.449 35.4166 6.25105 35.4166ZM43.749 35.4166C43.551 35.4166 43.35 35.3594 43.1719 35.2416L33.7969 28.9916C33.3177 28.6719 33.1885 28.026 33.5083 27.5469C33.8271 27.0677 34.4729 26.9385 34.9531 27.2583L44.3281 33.5083C44.8073 33.8281 44.9365 34.474 44.6167 34.9531C44.4167 35.2541 44.0855 35.4166 43.749 35.4166Z" fill="#6C75C7"/>
</svg>
