<svg width="48" height="49" viewBox="0 0 48 49" fill="none" xmlns="http://www.w3.org/2000/svg">
<path d="M21 17.5001C21 19.7001 19.2 21.5001 17 21.5001H5C2.8 21.5001 1 19.7001 1 17.5001V5.50006C1 3.30006 2.8 1.50006 5 1.50006H17C19.2 1.50006 21 3.30006 21 5.50006V17.5001Z" stroke="black" stroke-miterlimit="10" stroke-linecap="round" stroke-linejoin="round"/>
<path d="M1 7.50006H21" stroke="black" stroke-miterlimit="10" stroke-linecap="round" stroke-linejoin="round"/>
<path d="M27 17.5001C27 19.7001 28.8 21.5001 31 21.5001H43C45.2 21.5001 47 19.7001 47 17.5001V5.50006C47 3.30006 45.2 1.50006 43 1.50006H31C28.8 1.50006 27 3.30006 27 5.50006V17.5001Z" stroke="black" stroke-miterlimit="10" stroke-linecap="round" stroke-linejoin="round"/>
<path d="M47 7.50006H27" stroke="black" stroke-miterlimit="10" stroke-linecap="round" stroke-linejoin="round"/>
<path d="M21 43.5C21 45.7 19.2 47.5 17 47.5H5C2.8 47.5 1 45.7 1 43.5V31.5C1 29.3 2.8 27.5 5 27.5H17C19.2 27.5 21 29.3 21 31.5V43.5Z" stroke="black" stroke-miterlimit="10" stroke-linecap="round" stroke-linejoin="round"/>
<path d="M1 33.5H21" stroke="black" stroke-miterlimit="10" stroke-linecap="round" stroke-linejoin="round"/>
<path d="M27 43.5C27 45.7 28.8 47.5 31 47.5H43C45.2 47.5 47 45.7 47 43.5V31.5C47 29.3 45.2 27.5 43 27.5H31C28.8 27.5 27 29.3 27 31.5V43.5Z" stroke="black" stroke-miterlimit="10" stroke-linecap="round" stroke-linejoin="round"/>
<path d="M47 33.5H27" stroke="black" stroke-miterlimit="10" stroke-linecap="round" stroke-linejoin="round"/>
</svg>
