<svg width="50" height="50" viewBox="0 0 50 50" fill="none" xmlns="http://www.w3.org/2000/svg">
<path d="M18.9377 48.2173C18.8077 48.2173 18.6721 48.2003 18.5421 48.1607C14.6475 47.0811 11.0525 45.0123 8.14151 42.1691C7.83628 41.8695 7.67801 41.4512 7.70062 41.0273C7.72323 40.6034 7.93237 40.202 8.27152 39.942C10.1312 38.495 10.6456 35.8779 9.46985 33.8487C8.28848 31.8138 5.76747 30.9546 3.59127 31.8251C3.1956 31.989 2.7434 31.972 2.36468 31.7742C1.98596 31.582 1.70334 31.2316 1.6016 30.8189C1.10418 28.8575 0.855469 26.8452 0.855469 24.833C0.855469 22.8263 1.10418 20.814 1.6016 18.847C1.70899 18.4344 1.98596 18.0839 2.36468 17.8861C2.7434 17.6882 3.18994 17.6713 3.59127 17.8352C5.76182 18.717 8.28283 17.8521 9.46419 15.8173C10.6399 13.7937 10.1255 11.1709 8.26587 9.72388C7.92672 9.45822 7.72323 9.06254 7.69497 8.63861C7.67236 8.21467 7.83063 7.79639 8.13586 7.49681C11.0469 4.65361 14.6475 2.57915 18.5364 1.50518C18.9547 1.39778 19.3899 1.46561 19.7461 1.69737C20.1022 1.93477 20.3396 2.30783 20.3961 2.73177C20.7126 5.05494 22.7249 6.80721 25.0707 6.80721C26.7495 6.80721 29.1405 4.30881 29.7622 3.21223C29.717 2.98613 29.7283 2.74307 29.7962 2.50567C30.0336 1.72563 30.8588 1.29039 31.6332 1.51083C31.6332 1.51083 31.6332 1.51083 31.6389 1.51083C35.6973 2.72046 39.1849 4.7384 42.0055 7.49116C42.3107 7.79074 42.4747 8.20902 42.4521 8.63296C42.4295 9.05689 42.2203 9.45257 41.8812 9.71823C40.0271 11.1653 39.5071 13.7824 40.6828 15.8116C41.8642 17.8465 44.3909 18.717 46.5614 17.8295C46.9571 17.6656 47.4036 17.6826 47.788 17.8804C48.1724 18.0726 48.4493 18.423 48.5511 18.8413C49.0485 20.8084 49.2972 22.8207 49.2972 24.8217C49.2972 26.8226 49.0429 28.8349 48.5511 30.8076C48.4437 31.2203 48.1667 31.5707 47.788 31.7629C47.4036 31.9607 46.9627 31.9777 46.5614 31.8138C44.3909 30.9376 41.8642 31.8025 40.6828 33.8374C39.5071 35.8609 40.0215 38.4837 41.8812 39.9307C42.2203 40.1907 42.4238 40.5864 42.4521 41.016C42.4803 41.4456 42.3164 41.8582 42.0055 42.1578C39.1001 44.9953 35.5052 47.0698 31.605 48.1494C31.1923 48.2625 30.7514 48.1947 30.401 47.9572C30.0449 47.7198 29.8075 47.3411 29.7453 46.9228C29.4288 44.5997 27.4221 42.8474 25.0707 42.8474C22.7249 42.8474 20.7126 44.5997 20.3961 46.9228C20.3396 47.3468 20.1022 47.7198 19.7461 47.9572C19.5086 48.1381 19.226 48.2173 18.9377 48.2173ZM11.3295 41.0725C13.2796 42.7174 15.5123 44.0062 17.9033 44.8597C19.0112 41.943 21.8488 39.9025 25.082 39.9025C28.3152 39.9025 31.1528 41.943 32.2606 44.8597C34.6573 44.0062 36.8844 42.7174 38.8345 41.0725C36.8618 38.642 36.5113 35.1657 38.1336 32.3677C39.7502 29.5754 42.9382 28.1566 46.0131 28.6258C46.2392 27.3709 46.3466 26.0991 46.3466 24.8386C46.3466 23.5781 46.2336 22.312 46.0131 21.0515C42.9495 21.5489 39.7558 20.1018 38.1336 17.3095C36.5113 14.5172 36.8618 11.0409 38.8345 8.61035C36.9296 7.00504 34.7138 5.73889 32.2267 4.82884C30.9662 6.89765 27.9195 9.77476 25.082 9.77476C21.8544 9.77476 19.0169 7.73421 17.9033 4.81753C15.5123 5.66541 13.2796 6.95417 11.3295 8.61035C13.3022 11.0409 13.6527 14.5172 12.0304 17.3095C10.4082 20.1018 7.24277 21.5376 4.15652 21.0515C3.93042 22.3063 3.81737 23.5725 3.81737 24.8386C3.81737 26.1048 3.93042 27.3709 4.15652 28.6258C7.22581 28.1397 10.4138 29.5754 12.0361 32.3734C13.647 35.16 13.3022 38.642 11.3295 41.0725Z" fill="#6C75C7"/>
<path d="M25.0763 32.526C20.8425 32.526 17.3945 29.078 17.3945 24.8386C17.3945 20.5993 20.8425 17.1569 25.0763 17.1569C29.31 17.1569 32.758 20.6049 32.758 24.8386C32.758 29.0723 29.31 32.526 25.0763 32.526ZM25.0763 20.1188C22.4705 20.1188 20.3508 22.2385 20.3508 24.8443C20.3508 27.4501 22.4705 29.5698 25.0763 29.5698C27.682 29.5698 29.7961 27.4501 29.7961 24.8443C29.7961 22.2385 27.682 20.1188 25.0763 20.1188Z" fill="#6C75C7"/>
</svg>
