<svg width="196" height="225" viewBox="0 0 196 225" fill="none" xmlns="http://www.w3.org/2000/svg">
<rect y="1.6731" width="19.0256" height="19.0256" transform="rotate(-0.493951 0 1.6731)" fill="#EDD602" fill-opacity="0.2"/>
<rect x="0.502991" y="60.0162" width="19.0256" height="19.0256" transform="rotate(-0.493951 0.502991 60.0162)" fill="#EDD602" fill-opacity="0.2"/>
<rect x="1.00598" y="118.359" width="19.0256" height="19.0256" transform="rotate(-0.493951 1.00598 118.359)" fill="#EDD602" fill-opacity="0.2"/>
<rect x="1.50897" y="176.703" width="19.0256" height="19.0256" transform="rotate(-0.493951 1.50897 176.703)" fill="#EDD602" fill-opacity="0.2"/>
<rect x="0.251526" y="30.8447" width="19.0256" height="19.0256" transform="rotate(-0.493951 0.251526 30.8447)" fill="#EDD602" fill-opacity="0.2"/>
<rect x="0.754517" y="89.1879" width="19.0256" height="19.0256" transform="rotate(-0.493951 0.754517 89.1879)" fill="#EDD602" fill-opacity="0.2"/>
<rect x="1.25745" y="147.531" width="19.0256" height="19.0256" transform="rotate(-0.493951 1.25745 147.531)" fill="#EDD602" fill-opacity="0.2"/>
<rect x="1.7605" y="205.874" width="19.0256" height="19.0256" transform="rotate(-0.493951 1.7605 205.874)" fill="#EDD602" fill-opacity="0.2"/>
<rect x="29.1716" y="1.42163" width="19.0256" height="19.0256" transform="rotate(-0.493951 29.1716 1.42163)" fill="#EDD602" fill-opacity="0.2"/>
<rect x="29.6746" y="59.7648" width="19.0256" height="19.0256" transform="rotate(-0.493951 29.6746 59.7648)" fill="#EDD602" fill-opacity="0.2"/>
<rect x="30.1776" y="118.108" width="19.0256" height="19.0256" transform="rotate(-0.493951 30.1776 118.108)" fill="#EDD602" fill-opacity="0.2"/>
<rect x="30.6805" y="176.451" width="19.0256" height="19.0256" transform="rotate(-0.493951 30.6805 176.451)" fill="#EDD602" fill-opacity="0.2"/>
<rect x="29.423" y="30.5931" width="19.0256" height="19.0256" transform="rotate(-0.493951 29.423 30.5931)" fill="#EDD602" fill-opacity="0.2"/>
<rect x="29.9261" y="88.9364" width="19.0256" height="19.0256" transform="rotate(-0.493951 29.9261 88.9364)" fill="#EDD602" fill-opacity="0.2"/>
<rect x="30.4291" y="147.28" width="19.0256" height="19.0256" transform="rotate(-0.493951 30.4291 147.28)" fill="#EDD602" fill-opacity="0.2"/>
<rect x="30.9321" y="205.623" width="19.0256" height="19.0256" transform="rotate(-0.493951 30.9321 205.623)" fill="#EDD602" fill-opacity="0.2"/>
<rect x="58.3432" y="1.17017" width="19.0256" height="19.0256" transform="rotate(-0.493951 58.3432 1.17017)" fill="#EDD602" fill-opacity="0.2"/>
<rect x="58.8461" y="59.5132" width="19.0256" height="19.0256" transform="rotate(-0.493951 58.8461 59.5132)" fill="#EDD602" fill-opacity="0.2"/>
<rect x="59.3492" y="117.856" width="19.0256" height="19.0256" transform="rotate(-0.493951 59.3492 117.856)" fill="#EDD602" fill-opacity="0.2"/>
<rect x="59.8522" y="176.2" width="19.0256" height="19.0256" transform="rotate(-0.493951 59.8522 176.2)" fill="#EDD602" fill-opacity="0.2"/>
<rect x="58.5946" y="30.3417" width="19.0256" height="19.0256" transform="rotate(-0.493951 58.5946 30.3417)" fill="#EDD602" fill-opacity="0.2"/>
<rect x="59.0977" y="88.6848" width="19.0256" height="19.0256" transform="rotate(-0.493951 59.0977 88.6848)" fill="#EDD602" fill-opacity="0.2"/>
<rect x="59.6006" y="147.028" width="19.0256" height="19.0256" transform="rotate(-0.493951 59.6006 147.028)" fill="#EDD602" fill-opacity="0.2"/>
<rect x="60.1036" y="205.371" width="19.0256" height="19.0256" transform="rotate(-0.493951 60.1036 205.371)" fill="#EDD602" fill-opacity="0.2"/>
<rect x="87.5148" y="0.918579" width="19.0256" height="19.0256" transform="rotate(-0.493951 87.5148 0.918579)" fill="#EDD602" fill-opacity="0.2"/>
<rect x="88.0177" y="59.2617" width="19.0256" height="19.0256" transform="rotate(-0.493951 88.0177 59.2617)" fill="#EDD602" fill-opacity="0.2"/>
<rect x="88.5207" y="117.605" width="19.0256" height="19.0256" transform="rotate(-0.493951 88.5207 117.605)" fill="#EDD602" fill-opacity="0.2"/>
<rect x="89.0237" y="175.948" width="19.0256" height="19.0256" transform="rotate(-0.493951 89.0237 175.948)" fill="#EDD602" fill-opacity="0.2"/>
<rect x="145.858" y="0.415527" width="19.0256" height="19.0256" transform="rotate(-0.493951 145.858 0.415527)" fill="#EDD602" fill-opacity="0.2"/>
<rect x="146.361" y="58.7588" width="19.0256" height="19.0256" transform="rotate(-0.493951 146.361 58.7588)" fill="#EDD602" fill-opacity="0.2"/>
<rect x="146.864" y="117.102" width="19.0256" height="19.0256" transform="rotate(-0.493951 146.864 117.102)" fill="#EDD602" fill-opacity="0.2"/>
<rect x="147.367" y="175.445" width="19.0256" height="19.0256" transform="rotate(-0.493951 147.367 175.445)" fill="#EDD602" fill-opacity="0.2"/>
<rect x="87.7662" y="30.0902" width="19.0256" height="19.0256" transform="rotate(-0.493951 87.7662 30.0902)" fill="#EDD602" fill-opacity="0.2"/>
<rect x="88.2692" y="88.4333" width="19.0256" height="19.0256" transform="rotate(-0.493951 88.2692 88.4333)" fill="#EDD602" fill-opacity="0.2"/>
<rect x="88.7722" y="146.776" width="19.0256" height="19.0256" transform="rotate(-0.493951 88.7722 146.776)" fill="#EDD602" fill-opacity="0.2"/>
<rect x="89.2751" y="205.12" width="19.0256" height="19.0256" transform="rotate(-0.493951 89.2751 205.12)" fill="#EDD602" fill-opacity="0.2"/>
<rect x="146.109" y="29.5872" width="19.0256" height="19.0256" transform="rotate(-0.493951 146.109 29.5872)" fill="#EDD602" fill-opacity="0.2"/>
<rect x="146.612" y="87.9304" width="19.0256" height="19.0256" transform="rotate(-0.493951 146.612 87.9304)" fill="#EDD602" fill-opacity="0.2"/>
<rect x="147.115" y="146.274" width="19.0256" height="19.0256" transform="rotate(-0.493951 147.115 146.274)" fill="#EDD602" fill-opacity="0.2"/>
<rect x="147.618" y="204.617" width="19.0256" height="19.0256" transform="rotate(-0.493951 147.618 204.617)" fill="#EDD602" fill-opacity="0.2"/>
<rect x="116.686" y="0.667114" width="19.0256" height="19.0256" transform="rotate(-0.493951 116.686 0.667114)" fill="#EDD602" fill-opacity="0.2"/>
<rect x="117.189" y="59.0103" width="19.0256" height="19.0256" transform="rotate(-0.493951 117.189 59.0103)" fill="#EDD602" fill-opacity="0.2"/>
<rect x="117.692" y="117.354" width="19.0256" height="19.0256" transform="rotate(-0.493951 117.692 117.354)" fill="#EDD602" fill-opacity="0.2"/>
<rect x="118.195" y="175.697" width="19.0256" height="19.0256" transform="rotate(-0.493951 118.195 175.697)" fill="#EDD602" fill-opacity="0.2"/>
<rect x="175.029" y="0.164062" width="19.0256" height="19.0256" transform="rotate(-0.493951 175.029 0.164062)" fill="#EDD602" fill-opacity="0.2"/>
<rect x="175.532" y="58.5072" width="19.0256" height="19.0256" transform="rotate(-0.493951 175.532 58.5072)" fill="#EDD602" fill-opacity="0.2"/>
<rect x="176.035" y="116.85" width="19.0256" height="19.0256" transform="rotate(-0.493951 176.035 116.85)" fill="#EDD602" fill-opacity="0.2"/>
<rect x="176.538" y="175.194" width="19.0256" height="19.0256" transform="rotate(-0.493951 176.538 175.194)" fill="#EDD602" fill-opacity="0.2"/>
<rect x="116.938" y="29.8387" width="19.0256" height="19.0256" transform="rotate(-0.493951 116.938 29.8387)" fill="#EDD602" fill-opacity="0.2"/>
<rect x="117.441" y="88.1819" width="19.0256" height="19.0256" transform="rotate(-0.493951 117.441 88.1819)" fill="#EDD602" fill-opacity="0.2"/>
<rect x="117.944" y="146.525" width="19.0256" height="19.0256" transform="rotate(-0.493951 117.944 146.525)" fill="#EDD602" fill-opacity="0.2"/>
<rect x="118.447" y="204.868" width="19.0256" height="19.0256" transform="rotate(-0.493951 118.447 204.868)" fill="#EDD602" fill-opacity="0.2"/>
<rect x="175.281" y="29.3357" width="19.0256" height="19.0256" transform="rotate(-0.493951 175.281 29.3357)" fill="#EDD602" fill-opacity="0.2"/>
<rect x="175.784" y="87.6788" width="19.0256" height="19.0256" transform="rotate(-0.493951 175.784 87.6788)" fill="#EDD602" fill-opacity="0.2"/>
<rect x="176.287" y="146.022" width="19.0256" height="19.0256" transform="rotate(-0.493951 176.287 146.022)" fill="#EDD602" fill-opacity="0.2"/>
<rect x="176.79" y="204.365" width="19.0256" height="19.0256" transform="rotate(-0.493951 176.79 204.365)" fill="#EDD602" fill-opacity="0.2"/>
</svg>
