<svg width="296" height="292" viewBox="0 0 296 292" fill="none" xmlns="http://www.w3.org/2000/svg">
<rect y="149.269" width="19.0256" height="19.0256" transform="rotate(-50.2806 0 149.269)" fill="#EDD602" fill-opacity="0.2"/>
<rect x="44.8783" y="186.553" width="19.0256" height="19.0256" transform="rotate(-50.2806 44.8783 186.553)" fill="#EDD602" fill-opacity="0.2"/>
<rect x="89.7565" y="223.838" width="19.0256" height="19.0256" transform="rotate(-50.2806 89.7565 223.838)" fill="#EDD602" fill-opacity="0.2"/>
<rect x="134.635" y="261.122" width="19.0256" height="19.0256" transform="rotate(-50.2806 134.635 261.122)" fill="#EDD602" fill-opacity="0.2"/>
<rect x="22.4392" y="167.911" width="19.0256" height="19.0256" transform="rotate(-50.2806 22.4392 167.911)" fill="#EDD602" fill-opacity="0.2"/>
<rect x="67.3175" y="205.195" width="19.0256" height="19.0256" transform="rotate(-50.2806 67.3175 205.195)" fill="#EDD602" fill-opacity="0.2"/>
<rect x="112.196" y="242.48" width="19.0256" height="19.0256" transform="rotate(-50.2806 112.196 242.48)" fill="#EDD602" fill-opacity="0.2"/>
<rect x="157.074" y="279.764" width="19.0256" height="19.0256" transform="rotate(-50.2806 157.074 279.764)" fill="#EDD602" fill-opacity="0.2"/>
<rect x="18.6421" y="126.83" width="19.0256" height="19.0256" transform="rotate(-50.2806 18.6421 126.83)" fill="#EDD602" fill-opacity="0.2"/>
<rect x="63.5204" y="164.114" width="19.0256" height="19.0256" transform="rotate(-50.2806 63.5204 164.114)" fill="#EDD602" fill-opacity="0.2"/>
<rect x="108.399" y="201.399" width="19.0256" height="19.0256" transform="rotate(-50.2806 108.399 201.399)" fill="#EDD602" fill-opacity="0.2"/>
<rect x="153.277" y="238.683" width="19.0256" height="19.0256" transform="rotate(-50.2806 153.277 238.683)" fill="#EDD602" fill-opacity="0.2"/>
<rect x="41.0813" y="145.472" width="19.0256" height="19.0256" transform="rotate(-50.2806 41.0813 145.472)" fill="#EDD602" fill-opacity="0.2"/>
<rect x="85.9596" y="182.756" width="19.0256" height="19.0256" transform="rotate(-50.2806 85.9596 182.756)" fill="#EDD602" fill-opacity="0.2"/>
<rect x="130.838" y="220.041" width="19.0256" height="19.0256" transform="rotate(-50.2806 130.838 220.041)" fill="#EDD602" fill-opacity="0.2"/>
<rect x="175.716" y="257.325" width="19.0256" height="19.0256" transform="rotate(-50.2806 175.716 257.325)" fill="#EDD602" fill-opacity="0.2"/>
<rect x="37.2843" y="104.391" width="19.0256" height="19.0256" transform="rotate(-50.2806 37.2843 104.391)" fill="#EDD602" fill-opacity="0.2"/>
<rect x="82.1625" y="141.675" width="19.0256" height="19.0256" transform="rotate(-50.2806 82.1625 141.675)" fill="#EDD602" fill-opacity="0.2"/>
<rect x="127.041" y="178.959" width="19.0256" height="19.0256" transform="rotate(-50.2806 127.041 178.959)" fill="#EDD602" fill-opacity="0.2"/>
<rect x="171.919" y="216.244" width="19.0256" height="19.0256" transform="rotate(-50.2806 171.919 216.244)" fill="#EDD602" fill-opacity="0.2"/>
<rect x="59.7234" y="123.033" width="19.0256" height="19.0256" transform="rotate(-50.2806 59.7234 123.033)" fill="#EDD602" fill-opacity="0.2"/>
<rect x="104.602" y="160.317" width="19.0256" height="19.0256" transform="rotate(-50.2806 104.602 160.317)" fill="#EDD602" fill-opacity="0.2"/>
<rect x="149.48" y="197.602" width="19.0256" height="19.0256" transform="rotate(-50.2806 149.48 197.602)" fill="#EDD602" fill-opacity="0.2"/>
<rect x="194.358" y="234.886" width="19.0256" height="19.0256" transform="rotate(-50.2806 194.358 234.886)" fill="#EDD602" fill-opacity="0.2"/>
<rect x="55.9265" y="81.9517" width="19.0256" height="19.0256" transform="rotate(-50.2806 55.9265 81.9517)" fill="#EDD602" fill-opacity="0.2"/>
<rect x="100.805" y="119.236" width="19.0256" height="19.0256" transform="rotate(-50.2806 100.805 119.236)" fill="#EDD602" fill-opacity="0.2"/>
<rect x="145.683" y="156.52" width="19.0256" height="19.0256" transform="rotate(-50.2806 145.683 156.52)" fill="#EDD602" fill-opacity="0.2"/>
<rect x="190.561" y="193.805" width="19.0256" height="19.0256" transform="rotate(-50.2806 190.561 193.805)" fill="#EDD602" fill-opacity="0.2"/>
<rect x="93.2107" y="37.0734" width="19.0256" height="19.0256" transform="rotate(-50.2806 93.2107 37.0734)" fill="#EDD602" fill-opacity="0.2"/>
<rect x="138.089" y="74.3577" width="19.0256" height="19.0256" transform="rotate(-50.2806 138.089 74.3577)" fill="#EDD602" fill-opacity="0.2"/>
<rect x="182.967" y="111.642" width="19.0256" height="19.0256" transform="rotate(-50.2806 182.967 111.642)" fill="#EDD602" fill-opacity="0.2"/>
<rect x="227.845" y="148.926" width="19.0256" height="19.0256" transform="rotate(-50.2806 227.845 148.926)" fill="#EDD602" fill-opacity="0.2"/>
<rect x="78.3656" y="100.594" width="19.0256" height="19.0256" transform="rotate(-50.2806 78.3656 100.594)" fill="#EDD602" fill-opacity="0.2"/>
<rect x="123.244" y="137.878" width="19.0256" height="19.0256" transform="rotate(-50.2806 123.244 137.878)" fill="#EDD602" fill-opacity="0.2"/>
<rect x="168.122" y="175.162" width="19.0256" height="19.0256" transform="rotate(-50.2806 168.122 175.162)" fill="#EDD602" fill-opacity="0.2"/>
<rect x="213" y="212.447" width="19.0256" height="19.0256" transform="rotate(-50.2806 213 212.447)" fill="#EDD602" fill-opacity="0.2"/>
<rect x="115.65" y="55.7155" width="19.0256" height="19.0256" transform="rotate(-50.2806 115.65 55.7155)" fill="#EDD602" fill-opacity="0.2"/>
<rect x="160.528" y="92.9998" width="19.0256" height="19.0256" transform="rotate(-50.2806 160.528 92.9998)" fill="#EDD602" fill-opacity="0.2"/>
<rect x="205.406" y="130.284" width="19.0256" height="19.0256" transform="rotate(-50.2806 205.406 130.284)" fill="#EDD602" fill-opacity="0.2"/>
<rect x="250.285" y="167.568" width="19.0256" height="19.0256" transform="rotate(-50.2806 250.285 167.568)" fill="#EDD602" fill-opacity="0.2"/>
<rect x="74.5686" y="59.5125" width="19.0256" height="19.0256" transform="rotate(-50.2806 74.5686 59.5125)" fill="#EDD602" fill-opacity="0.2"/>
<rect x="119.447" y="96.7968" width="19.0256" height="19.0256" transform="rotate(-50.2806 119.447 96.7968)" fill="#EDD602" fill-opacity="0.2"/>
<rect x="164.325" y="134.081" width="19.0256" height="19.0256" transform="rotate(-50.2806 164.325 134.081)" fill="#EDD602" fill-opacity="0.2"/>
<rect x="209.203" y="171.365" width="19.0256" height="19.0256" transform="rotate(-50.2806 209.203 171.365)" fill="#EDD602" fill-opacity="0.2"/>
<rect x="111.853" y="14.6343" width="19.0256" height="19.0256" transform="rotate(-50.2806 111.853 14.6343)" fill="#EDD602" fill-opacity="0.2"/>
<rect x="156.731" y="51.9186" width="19.0256" height="19.0256" transform="rotate(-50.2806 156.731 51.9186)" fill="#EDD602" fill-opacity="0.2"/>
<rect x="201.609" y="89.2029" width="19.0256" height="19.0256" transform="rotate(-50.2806 201.609 89.2029)" fill="#EDD602" fill-opacity="0.2"/>
<rect x="246.488" y="126.487" width="19.0256" height="19.0256" transform="rotate(-50.2806 246.488 126.487)" fill="#EDD602" fill-opacity="0.2"/>
<rect x="97.0077" y="78.1547" width="19.0256" height="19.0256" transform="rotate(-50.2806 97.0077 78.1547)" fill="#EDD602" fill-opacity="0.2"/>
<rect x="141.886" y="115.439" width="19.0256" height="19.0256" transform="rotate(-50.2806 141.886 115.439)" fill="#EDD602" fill-opacity="0.2"/>
<rect x="186.764" y="152.723" width="19.0256" height="19.0256" transform="rotate(-50.2806 186.764 152.723)" fill="#EDD602" fill-opacity="0.2"/>
<rect x="231.642" y="190.008" width="19.0256" height="19.0256" transform="rotate(-50.2806 231.642 190.008)" fill="#EDD602" fill-opacity="0.2"/>
<rect x="134.292" y="33.2764" width="19.0256" height="19.0256" transform="rotate(-50.2806 134.292 33.2764)" fill="#EDD602" fill-opacity="0.2"/>
<rect x="179.17" y="70.5607" width="19.0256" height="19.0256" transform="rotate(-50.2806 179.17 70.5607)" fill="#EDD602" fill-opacity="0.2"/>
<rect x="224.049" y="107.845" width="19.0256" height="19.0256" transform="rotate(-50.2806 224.049 107.845)" fill="#EDD602" fill-opacity="0.2"/>
<rect x="268.927" y="145.129" width="19.0256" height="19.0256" transform="rotate(-50.2806 268.927 145.129)" fill="#EDD602" fill-opacity="0.2"/>
</svg>
