<svg width="107" height="224" viewBox="0 0 107 224" fill="none" xmlns="http://www.w3.org/2000/svg">
<rect width="19.0256" height="19.0256" fill="#EDD602" fill-opacity="0.2"/>
<rect y="58.3453" width="19.0256" height="19.0256" fill="#EDD602" fill-opacity="0.2"/>
<rect y="116.691" width="19.0256" height="19.0256" fill="#EDD602" fill-opacity="0.2"/>
<rect y="175.036" width="19.0256" height="19.0256" fill="#EDD602" fill-opacity="0.2"/>
<rect y="29.1727" width="19.0256" height="19.0256" fill="#EDD602" fill-opacity="0.2"/>
<rect y="87.5181" width="19.0256" height="19.0256" fill="#EDD602" fill-opacity="0.2"/>
<rect y="145.863" width="19.0256" height="19.0256" fill="#EDD602" fill-opacity="0.2"/>
<rect y="204.209" width="19.0256" height="19.0256" fill="#EDD602" fill-opacity="0.2"/>
<rect x="29.1726" width="19.0256" height="19.0256" fill="#EDD602" fill-opacity="0.2"/>
<rect x="29.1726" y="58.3453" width="19.0256" height="19.0256" fill="#EDD602" fill-opacity="0.2"/>
<rect x="29.1726" y="116.691" width="19.0256" height="19.0256" fill="#EDD602" fill-opacity="0.2"/>
<rect x="29.1726" y="175.036" width="19.0256" height="19.0256" fill="#EDD602" fill-opacity="0.2"/>
<rect x="29.1726" y="29.1726" width="19.0256" height="19.0256" fill="#EDD602" fill-opacity="0.2"/>
<rect x="29.1726" y="87.5181" width="19.0256" height="19.0256" fill="#EDD602" fill-opacity="0.2"/>
<rect x="29.1726" y="145.863" width="19.0256" height="19.0256" fill="#EDD602" fill-opacity="0.2"/>
<rect x="29.1726" y="204.209" width="19.0256" height="19.0256" fill="#EDD602" fill-opacity="0.2"/>
<rect x="58.3455" width="19.0256" height="19.0256" fill="#EDD602" fill-opacity="0.2"/>
<rect x="58.3452" y="58.3453" width="19.0256" height="19.0256" fill="#EDD602" fill-opacity="0.2"/>
<rect x="58.3455" y="116.691" width="19.0256" height="19.0256" fill="#EDD602" fill-opacity="0.2"/>
<rect x="58.3455" y="175.036" width="19.0256" height="19.0256" fill="#EDD602" fill-opacity="0.2"/>
<rect x="58.3452" y="29.1726" width="19.0256" height="19.0256" fill="#EDD602" fill-opacity="0.2"/>
<rect x="58.3452" y="87.5179" width="19.0256" height="19.0256" fill="#EDD602" fill-opacity="0.2"/>
<rect x="58.3455" y="145.863" width="19.0256" height="19.0256" fill="#EDD602" fill-opacity="0.2"/>
<rect x="58.3452" y="204.209" width="19.0256" height="19.0256" fill="#EDD602" fill-opacity="0.2"/>
<rect x="87.5181" width="19.0256" height="19.0256" fill="#EDD602" fill-opacity="0.2"/>
<rect x="87.5181" y="58.3453" width="19.0256" height="19.0256" fill="#EDD602" fill-opacity="0.2"/>
<rect x="87.5181" y="116.691" width="19.0256" height="19.0256" fill="#EDD602" fill-opacity="0.2"/>
<rect x="87.5181" y="175.036" width="19.0256" height="19.0256" fill="#EDD602" fill-opacity="0.2"/>
<rect x="87.5181" y="29.1727" width="19.0256" height="19.0256" fill="#EDD602" fill-opacity="0.2"/>
<rect x="87.5181" y="87.5179" width="19.0256" height="19.0256" fill="#EDD602" fill-opacity="0.2"/>
<rect x="87.5181" y="145.863" width="19.0256" height="19.0256" fill="#EDD602" fill-opacity="0.2"/>
<rect x="87.5178" y="204.209" width="19.0256" height="19.0256" fill="#EDD602" fill-opacity="0.2"/>
</svg>
