<svg width="71" height="70" viewBox="0 0 71 70" fill="none" xmlns="http://www.w3.org/2000/svg">
<path d="M7.0625 63.4375V19.6875H2.6875V64.5312C2.68848 65.4012 3.03449 66.2352 3.64964 66.8504C4.26478 67.4655 5.09881 67.8115 5.96875 67.8125H50.8125V63.4375H7.0625Z" fill="#6C75C7"/>
<path d="M20.1875 54.6875H15.8125V10.9375H11.4375V55.7812C11.4385 56.6512 11.7845 57.4852 12.3996 58.1004C13.0148 58.7155 13.8488 59.0615 14.7188 59.0625H59.5625V54.6875H20.1875Z" fill="#6C75C7"/>
<path d="M65.0312 2.1875H23.4688C22.5988 2.18848 21.7648 2.53449 21.1496 3.14964C20.5345 3.76478 20.1885 4.59881 20.1875 5.46875V47.0312C20.1885 47.9012 20.5345 48.7352 21.1496 49.3504C21.7648 49.9655 22.5988 50.3115 23.4688 50.3125H65.0312C65.9012 50.3115 66.7352 49.9655 67.3504 49.3504C67.9655 48.7352 68.3115 47.9012 68.3125 47.0312V5.46875C68.3115 4.59881 67.9655 3.76478 67.3504 3.14964C66.7352 2.53449 65.9012 2.18848 65.0312 2.1875ZM63.9375 45.9375H24.5625V6.5625H63.9375V45.9375Z" fill="#6C75C7"/>
<path d="M42.0625 39.375H46.4375V27.8906H57.9219V23.5156H46.4375V12.0312H42.0625V23.5156H30.5781V27.8906H42.0625V39.375Z" fill="#6C75C7"/>
</svg>
