<svg width="532" height="405" viewBox="0 0 532 405" fill="none" xmlns="http://www.w3.org/2000/svg">
<path d="M531.5 356.322H0.5V356.588H531.5V356.322Z" fill="#E0E0E0"/>
<path d="M85.2796 372.974H56.2126V373.24H85.2796V372.974Z" fill="#E0E0E0"/>
<path d="M101.507 372.974H92.2781V373.24H101.507V372.974Z" fill="#E0E0E0"/>
<path d="M266 369.31H245.44V369.576H266V369.31Z" fill="#E0E0E0"/>
<path d="M444.374 369.172H398.506V369.438H444.374V369.172Z" fill="#E0E0E0"/>
<path d="M460.559 369.172H453.836V369.438H460.559V369.172Z" fill="#E0E0E0"/>
<path d="M362.292 362.885H262.803V363.151H362.292V362.885Z" fill="#E0E0E0"/>
<path d="M252.194 308.957H47.1324C45.5259 308.954 43.9863 308.314 42.8513 307.177C41.7164 306.04 41.079 304.499 41.079 302.893V14.6343C41.093 13.0371 41.7366 11.5099 42.87 10.3844C44.0034 9.25898 45.5351 8.62615 47.1324 8.62341H252.194C253.802 8.62341 255.345 9.2623 256.482 10.3995C257.619 11.5367 258.258 13.0792 258.258 14.6874V302.893C258.258 304.501 257.619 306.044 256.482 307.181C255.345 308.318 253.802 308.957 252.194 308.957ZM47.1324 8.83581C45.5964 8.83863 44.1242 9.45078 43.0391 10.5379C41.9539 11.625 41.3445 13.0983 41.3445 14.6343V302.893C41.3445 304.429 41.9539 305.902 43.0391 306.989C44.1242 308.077 45.5964 308.689 47.1324 308.691H252.194C253.731 308.689 255.204 308.077 256.291 306.99C257.378 305.903 257.99 304.43 257.993 302.893V14.6343C257.99 13.0973 257.378 11.6241 256.291 10.5373C255.204 9.45044 253.731 8.83862 252.194 8.83581H47.1324Z" fill="#E0E0E0"/>
<path d="M481.915 308.957H276.843C275.236 308.954 273.695 308.314 272.558 307.178C271.422 306.041 270.782 304.5 270.779 302.893V14.6343C270.796 13.0361 271.442 11.5089 272.577 10.3838C273.712 9.2586 275.245 8.62612 276.843 8.62341H481.915C483.511 8.62894 485.04 9.263 486.171 10.3882C487.302 11.5133 487.944 13.0389 487.958 14.6343V302.893C487.958 304.498 487.322 306.037 486.189 307.173C485.057 308.31 483.52 308.951 481.915 308.957ZM276.843 8.83581C275.306 8.83862 273.833 9.45044 272.746 10.5373C271.659 11.6241 271.047 13.0973 271.044 14.6343V302.893C271.047 304.43 271.659 305.903 272.746 306.99C273.833 308.077 275.306 308.689 276.843 308.691H481.915C483.452 308.689 484.925 308.077 486.012 306.99C487.099 305.903 487.711 304.43 487.714 302.893V14.6343C487.711 13.0973 487.099 11.6241 486.012 10.5373C484.925 9.45044 483.452 8.83862 481.915 8.83581H276.843Z" fill="#E0E0E0"/>
<path d="M332.078 4.37544C332.08 3.21586 332.542 2.10458 333.362 1.28463C334.182 0.464687 335.293 0.00280431 336.453 0H472.74C473.899 0.00280431 475.01 0.464687 475.83 1.28463C476.65 2.10458 477.112 3.21586 477.115 4.37544V18.4257H332.078V4.37544Z" fill="#E0E0E0"/>
<path d="M364.139 9.19686C364.137 9.85265 364.33 10.4943 364.693 11.0406C365.055 11.5869 365.572 12.0132 366.177 12.2656C366.783 12.5181 367.449 12.5852 368.093 12.4585C368.736 12.3319 369.328 12.0172 369.792 11.5542C370.256 11.0912 370.573 10.5009 370.702 9.85782C370.831 9.21479 370.766 8.54802 370.515 7.94195C370.265 7.33588 369.84 6.81776 369.295 6.4532C368.75 6.08865 368.109 5.89405 367.453 5.89404C366.576 5.89404 365.735 6.24168 365.114 6.86077C364.493 7.47987 364.142 8.31993 364.139 9.19686Z" fill="white"/>
<path d="M352.415 9.19686C352.413 9.85265 352.605 10.4943 352.968 11.0406C353.331 11.5869 353.848 12.0132 354.453 12.2656C355.058 12.5181 355.725 12.5852 356.368 12.4585C357.012 12.3319 357.603 12.0172 358.067 11.5542C358.532 11.0912 358.849 10.5009 358.977 9.85782C359.106 9.21479 359.041 8.54802 358.79 7.94195C358.54 7.33588 358.115 6.81776 357.57 6.4532C357.025 6.08865 356.384 5.89405 355.728 5.89404C354.851 5.89404 354.01 6.24168 353.389 6.86077C352.768 7.47987 352.418 8.31993 352.415 9.19686Z" fill="white"/>
<path d="M340.69 9.19686C340.688 9.85265 340.881 10.4943 341.244 11.0406C341.607 11.5869 342.123 12.0132 342.729 12.2656C343.334 12.5181 344 12.5852 344.644 12.4585C345.287 12.3319 345.879 12.0172 346.343 11.5542C346.808 11.0912 347.124 10.5009 347.253 9.85782C347.382 9.21479 347.317 8.54802 347.066 7.94195C346.816 7.33588 346.391 6.81776 345.846 6.4532C345.301 6.08865 344.66 5.89405 344.004 5.89404C343.127 5.89404 342.286 6.24168 341.665 6.86077C341.044 7.47987 340.693 8.31993 340.69 9.19686Z" fill="white"/>
<path d="M472.74 113.284H336.453C335.293 113.281 334.182 112.819 333.362 111.999C332.542 111.179 332.08 110.068 332.078 108.908V18.4258H477.115V108.908C477.112 110.068 476.65 111.179 475.83 111.999C475.01 112.819 473.899 113.281 472.74 113.284Z" fill="#F0F0F0"/>
<path d="M322.286 18.9885C322.289 17.8289 322.751 16.7176 323.571 15.8977C324.39 15.0777 325.502 14.6158 326.661 14.613H462.98C464.139 14.6158 465.251 15.0777 466.07 15.8977C466.89 16.7176 467.352 17.8289 467.355 18.9885V33.0494H322.286V18.9885Z" fill="#F0F0F0"/>
<path d="M354.38 23.8419C354.378 24.4981 354.57 25.1402 354.934 25.6867C355.297 26.2332 355.814 26.6596 356.42 26.9117C357.026 27.1638 357.693 27.2303 358.337 27.1028C358.981 26.9753 359.572 26.6595 360.036 26.1955C360.5 25.7314 360.816 25.1401 360.943 24.4963C361.071 23.8526 361.004 23.1855 360.752 22.5796C360.5 21.9737 360.074 21.4563 359.527 21.0931C358.981 20.7298 358.339 20.537 357.682 20.5391C356.807 20.5419 355.969 20.8908 355.35 21.5095C354.731 22.1283 354.382 22.9668 354.38 23.8419Z" fill="#E0E0E0"/>
<path d="M342.655 23.8419C342.653 24.4977 342.846 25.1393 343.208 25.6856C343.571 26.2319 344.088 26.6582 344.693 26.9107C345.299 27.1631 345.965 27.2302 346.608 27.1036C347.252 26.9769 347.843 26.6622 348.308 26.1992C348.772 25.7362 349.089 25.1459 349.218 24.5028C349.346 23.8598 349.281 23.193 349.031 22.587C348.78 21.9809 348.356 21.4628 347.811 21.0982C347.265 20.7337 346.624 20.5391 345.969 20.5391C345.092 20.5391 344.25 20.8867 343.629 21.5058C343.008 22.1249 342.658 22.9649 342.655 23.8419Z" fill="#E0E0E0"/>
<path d="M330.931 23.8419C330.929 24.4977 331.121 25.1393 331.484 25.6856C331.847 26.2319 332.363 26.6582 332.969 26.9107C333.574 27.1631 334.241 27.2302 334.884 27.1036C335.527 26.9769 336.119 26.6622 336.583 26.1992C337.048 25.7362 337.364 25.1459 337.493 24.5028C337.622 23.8598 337.557 23.193 337.306 22.587C337.056 21.9809 336.631 21.4628 336.086 21.0982C335.541 20.7337 334.9 20.5391 334.244 20.5391C333.367 20.5391 332.526 20.8867 331.905 21.5058C331.284 22.1249 330.933 22.9649 330.931 23.8419Z" fill="#E0E0E0"/>
<path d="M462.98 127.928H326.683C325.523 127.926 324.412 127.464 323.592 126.644C322.772 125.824 322.31 124.713 322.307 123.553V33.0493H467.355V123.532C467.357 124.108 467.245 124.678 467.025 125.211C466.806 125.744 466.484 126.228 466.078 126.636C465.672 127.045 465.189 127.369 464.657 127.59C464.126 127.812 463.556 127.927 462.98 127.928Z" fill="#FAFAFA"/>
<path d="M312.547 33.6335C312.549 33.0548 312.665 32.4821 312.888 31.9484C313.112 31.4147 313.439 30.9305 313.851 30.5238C314.262 30.1171 314.75 29.7959 315.287 29.5786C315.823 29.3614 316.397 29.2524 316.976 29.258H453.22C454.379 29.2608 455.491 29.7227 456.311 30.5426C457.131 31.3626 457.593 32.4739 457.595 33.6335V47.7156H312.547V33.6335Z" fill="#FAFAFA"/>
<path d="M344.588 38.4869C344.588 39.1413 344.782 39.781 345.145 40.3255C345.508 40.8699 346.024 41.2946 346.629 41.546C347.233 41.7974 347.898 41.8642 348.54 41.7381C349.182 41.612 349.773 41.2985 350.237 40.8372C350.701 40.3759 351.018 39.7875 351.149 39.1462C351.279 38.5049 351.216 37.8393 350.969 37.2335C350.721 36.6277 350.3 36.1087 349.758 35.7421C349.216 35.3755 348.577 35.1776 347.923 35.1734C347.486 35.1706 347.053 35.2542 346.648 35.4195C346.244 35.5848 345.876 35.8284 345.566 36.1363C345.256 36.4443 345.01 36.8105 344.842 37.2139C344.674 37.6173 344.588 38.0499 344.588 38.4869Z" fill="#F0F0F0"/>
<path d="M332.906 38.4869C332.906 39.1431 333.101 39.7845 333.466 40.3299C333.831 40.8752 334.35 41.2999 334.956 41.55C335.563 41.8002 336.23 41.8646 336.874 41.735C337.517 41.6054 338.107 41.2877 338.57 40.8222C339.032 40.3567 339.346 39.7643 339.472 39.1202C339.597 38.476 339.529 37.8091 339.275 37.2041C339.02 36.599 338.592 36.083 338.045 35.7215C337.497 35.36 336.854 35.1692 336.198 35.1734C335.323 35.179 334.486 35.5306 333.869 36.1514C333.252 36.7722 332.906 37.6117 332.906 38.4869Z" fill="#F0F0F0"/>
<path d="M324.474 41.8002C326.304 41.8002 327.787 40.3167 327.787 38.4868C327.787 36.6568 326.304 35.1733 324.474 35.1733C322.644 35.1733 321.16 36.6568 321.16 38.4868C321.16 40.3167 322.644 41.8002 324.474 41.8002Z" fill="#F0F0F0"/>
<path d="M453.22 142.573H316.976C315.816 142.571 314.705 142.109 313.885 141.289C313.065 140.469 312.603 139.358 312.601 138.198V47.7156H457.595V138.187C457.595 139.349 457.135 140.463 456.315 141.285C455.494 142.107 454.381 142.571 453.22 142.573Z" fill="#E0E0E0"/>
<path d="M84.5361 86.022C84.5444 84.9336 84.9798 83.8919 85.7484 83.1213C86.5171 82.3506 87.5577 81.9126 88.6461 81.9015H294.069C295.166 81.9043 296.218 82.3416 296.994 83.1177C297.77 83.8938 298.208 84.9457 298.211 86.0433V99.4032H84.5361V86.022Z" fill="#E0E0E0"/>
<path d="M118.095 94.0401C117.421 94.0401 116.762 93.8402 116.201 93.4656C115.641 93.091 115.204 92.5586 114.946 91.9356C114.688 91.3127 114.62 90.6273 114.752 89.966C114.883 89.3047 115.208 88.6973 115.685 88.2205C116.162 87.7438 116.769 87.4191 117.43 87.2876C118.092 87.156 118.777 87.2235 119.4 87.4815C120.023 87.7396 120.555 88.1765 120.93 88.7371C121.304 89.2977 121.504 89.9568 121.504 90.6311C121.504 91.5352 121.145 92.4023 120.506 93.0416C119.867 93.6809 118.999 94.0401 118.095 94.0401ZM118.095 87.7637C117.528 87.7616 116.972 87.9279 116.499 88.2417C116.026 88.5555 115.657 89.0026 115.439 89.5264C115.22 90.0501 115.162 90.627 115.271 91.1839C115.381 91.7408 115.653 92.2528 116.053 92.6548C116.454 93.0569 116.965 93.3311 117.521 93.4426C118.078 93.5541 118.655 93.4979 119.18 93.2812C119.704 93.0645 120.153 92.697 120.468 92.2252C120.784 91.7534 120.952 91.1986 120.952 90.6311C120.952 89.8724 120.651 89.1447 120.116 88.6072C119.581 88.0698 118.854 87.7665 118.095 87.7637Z" fill="white"/>
<path d="M106.976 94.0401C106.302 94.0401 105.643 93.8402 105.082 93.4656C104.521 93.091 104.085 92.5586 103.827 91.9356C103.568 91.3127 103.501 90.6273 103.633 89.966C103.764 89.3047 104.089 88.6973 104.565 88.2205C105.042 87.7438 105.65 87.4191 106.311 87.2876C106.972 87.156 107.658 87.2235 108.281 87.4815C108.904 87.7396 109.436 88.1765 109.811 88.7371C110.185 89.2977 110.385 89.9568 110.385 90.6311C110.385 91.5352 110.026 92.4023 109.387 93.0416C108.747 93.6809 107.88 94.0401 106.976 94.0401ZM106.976 87.7637C106.409 87.7637 105.855 87.9318 105.383 88.2469C104.911 88.562 104.544 89.0098 104.327 89.5338C104.11 90.0577 104.053 90.6342 104.164 91.1905C104.274 91.7467 104.547 92.2576 104.948 92.6586C105.349 93.0596 105.86 93.3327 106.417 93.4434C106.973 93.554 107.549 93.4972 108.073 93.2802C108.597 93.0632 109.045 92.6957 109.36 92.2241C109.675 91.7526 109.843 91.1982 109.843 90.6311C109.843 89.8706 109.541 89.1412 109.004 88.6035C108.466 88.0658 107.737 87.7637 106.976 87.7637Z" fill="white"/>
<path d="M95.857 94.0401C95.1828 94.0401 94.5237 93.8402 93.9631 93.4656C93.4025 93.091 92.9655 92.5586 92.7075 91.9356C92.4495 91.3127 92.382 90.6273 92.5135 89.966C92.645 89.3047 92.9697 88.6973 93.4465 88.2205C93.9232 87.7438 94.5307 87.4191 95.192 87.2876C95.8532 87.156 96.5387 87.2235 97.1616 87.4815C97.7845 87.7396 98.3169 88.1765 98.6915 88.7371C99.0661 89.2977 99.266 89.9568 99.266 90.6311C99.266 91.5352 98.9069 92.4023 98.2676 93.0416C97.6282 93.6809 96.7611 94.0401 95.857 94.0401ZM95.857 87.7637C95.2899 87.7637 94.7355 87.9318 94.264 88.2469C93.7924 88.562 93.4249 89.0098 93.2079 89.5338C92.9909 90.0577 92.9341 90.6342 93.0447 91.1905C93.1554 91.7467 93.4285 92.2576 93.8295 92.6586C94.2305 93.0596 94.7414 93.3327 95.2976 93.4434C95.8538 93.554 96.4304 93.4972 96.9543 93.2802C97.4783 93.0632 97.9261 92.6957 98.2412 92.2241C98.5562 91.7526 98.7244 91.1982 98.7244 90.6311C98.7244 90.2545 98.6503 89.8816 98.5062 89.5338C98.3621 89.1859 98.1508 88.8698 97.8846 88.6035C97.6183 88.3372 97.3022 88.126 96.9543 87.9819C96.6064 87.8378 96.2336 87.7637 95.857 87.7637Z" fill="white"/>
<path d="M294.069 210.403H88.646C87.5455 210.401 86.491 209.962 85.7128 209.184C84.9347 208.406 84.4963 207.351 84.4935 206.251V99.382H298.168V206.283C298.16 207.369 297.726 208.41 296.959 209.18C296.193 209.95 295.155 210.39 294.069 210.403Z" fill="#F0F0F0"/>
<path d="M75.2754 114.197C75.2782 113.096 75.7166 112.042 76.4947 111.264C77.2728 110.486 78.3274 110.047 79.4278 110.044H284.808C285.907 110.047 286.961 110.486 287.737 111.264C288.514 112.043 288.95 113.097 288.95 114.197V127.567H75.2754V114.197Z" fill="#FAFAFA"/>
<path d="M108.824 122.257C108.15 122.257 107.491 122.058 106.93 121.683C106.37 121.308 105.933 120.776 105.675 120.153C105.417 119.53 105.349 118.845 105.481 118.183C105.612 117.522 105.937 116.915 106.414 116.438C106.89 115.961 107.498 115.636 108.159 115.505C108.82 115.373 109.506 115.441 110.129 115.699C110.752 115.957 111.284 116.394 111.659 116.955C112.033 117.515 112.233 118.174 112.233 118.848C112.233 119.753 111.874 120.62 111.235 121.259C110.595 121.898 109.728 122.257 108.824 122.257ZM108.824 115.981C108.257 115.981 107.703 116.149 107.231 116.464C106.759 116.779 106.392 117.227 106.175 117.751C105.958 118.275 105.901 118.852 106.012 119.408C106.122 119.964 106.395 120.475 106.797 120.876C107.198 121.277 107.708 121.55 108.265 121.661C108.821 121.771 109.397 121.715 109.921 121.498C110.445 121.281 110.893 120.913 111.208 120.442C111.523 119.97 111.691 119.416 111.691 118.848C111.704 118.464 111.64 118.081 111.501 117.722C111.363 117.363 111.154 117.035 110.886 116.759C110.619 116.482 110.298 116.263 109.944 116.113C109.59 115.963 109.209 115.885 108.824 115.885V115.981Z" fill="#E0E0E0"/>
<path d="M97.7155 122.257C97.0413 122.257 96.3822 122.058 95.8216 121.683C95.261 121.308 94.824 120.776 94.566 120.153C94.308 119.53 94.2405 118.845 94.372 118.183C94.5036 117.522 94.8282 116.915 95.305 116.438C95.7818 115.961 96.3892 115.636 97.0505 115.505C97.7118 115.373 98.3972 115.441 99.0201 115.699C99.643 115.957 100.175 116.394 100.55 116.955C100.925 117.515 101.125 118.174 101.125 118.848C101.125 119.753 100.765 120.62 100.126 121.259C99.4868 121.898 98.6197 122.257 97.7155 122.257ZM97.7155 115.981C97.1484 115.981 96.594 116.149 96.1225 116.464C95.651 116.779 95.2834 117.227 95.0664 117.751C94.8494 118.275 94.7926 118.852 94.9032 119.408C95.0139 119.964 95.287 120.475 95.688 120.876C96.089 121.277 96.5999 121.55 97.1561 121.661C97.7124 121.771 98.2889 121.715 98.8128 121.498C99.3368 121.281 99.7846 120.913 100.1 120.442C100.415 119.97 100.583 119.416 100.583 118.848C100.596 118.464 100.531 118.081 100.393 117.722C100.254 117.363 100.045 117.035 99.7777 116.759C99.5101 116.482 99.1897 116.263 98.8354 116.113C98.4811 115.963 98.1003 115.885 97.7155 115.885V115.981Z" fill="#E0E0E0"/>
<path d="M86.5963 122.257C85.922 122.257 85.2629 122.058 84.7023 121.683C84.1417 121.308 83.7048 120.776 83.4468 120.153C83.1887 119.53 83.1212 118.845 83.2528 118.183C83.3843 117.522 83.709 116.915 84.1857 116.438C84.6625 115.961 85.2699 115.636 85.9312 115.505C86.5925 115.373 87.2779 115.441 87.9009 115.699C88.5238 115.957 89.0562 116.394 89.4308 116.955C89.8054 117.515 90.0053 118.174 90.0053 118.848C90.0053 119.753 89.6461 120.62 89.0068 121.259C88.3675 121.898 87.5004 122.257 86.5963 122.257ZM86.5963 115.981C86.0292 115.981 85.4748 116.149 85.0032 116.464C84.5317 116.779 84.1642 117.227 83.9471 117.751C83.7301 118.275 83.6733 118.852 83.784 119.408C83.8946 119.964 84.1677 120.475 84.5687 120.876C84.9697 121.277 85.4807 121.55 86.0369 121.661C86.5931 121.771 87.1696 121.715 87.6936 121.498C88.2175 121.281 88.6654 120.913 88.9804 120.442C89.2955 119.97 89.4637 119.416 89.4637 118.848C89.4765 118.464 89.4118 118.081 89.2735 117.722C89.1351 117.363 88.9259 117.035 88.6584 116.759C88.3908 116.482 88.0704 116.263 87.7161 116.113C87.3619 115.963 86.981 115.885 86.5963 115.885V115.981Z" fill="#E0E0E0"/>
<path d="M284.808 259.68H79.4278C78.3274 259.678 77.2728 259.239 76.4947 258.461C75.7166 257.683 75.2782 256.628 75.2754 255.528V127.568H288.95V255.528C288.95 256.627 288.514 257.682 287.737 258.46C286.961 259.239 285.907 259.677 284.808 259.68Z" fill="#F0F0F0"/>
<path d="M145.421 13.7636H70.592C69.4465 13.7608 68.3487 13.3045 67.5387 12.4945C66.7287 11.6845 66.2725 10.5867 66.2697 9.44124C66.2753 8.29759 66.7328 7.20253 67.5425 6.39483C68.3522 5.58714 69.4483 5.13231 70.592 5.12952H145.442C146.584 5.1351 147.677 5.59116 148.484 6.39856C149.292 7.20596 149.748 8.29942 149.753 9.44124C149.751 10.5886 149.293 11.6879 148.481 12.4982C147.668 13.3085 146.568 13.7636 145.421 13.7636Z" fill="#E0E0E0"/>
<path d="M176.505 31.8599L70.8044 31.4351C69.67 31.4129 68.5896 30.9465 67.7953 30.1364C67.001 29.3262 66.5562 28.2367 66.5564 27.1021C66.562 25.9576 67.0213 24.8621 67.8336 24.0558C68.6459 23.2494 69.7448 22.7982 70.8894 22.801L176.58 23.2258C177.723 23.2342 178.817 23.6945 179.623 24.5061C180.429 25.3178 180.881 26.4151 180.881 27.5588C180.878 28.1291 180.762 28.6933 180.541 29.2187C180.319 29.7441 179.995 30.2205 179.588 30.6203C179.182 31.0201 178.7 31.3355 178.171 31.5482C177.642 31.761 177.076 31.8669 176.505 31.8599Z" fill="#F0F0F0"/>
<path d="M120.24 51.8574H70.592C69.4465 51.8546 68.3487 51.3984 67.5387 50.5884C66.7287 49.7784 66.2725 48.6806 66.2697 47.5351C66.2753 46.3915 66.7328 45.2964 67.5425 44.4887C68.3522 43.681 69.4483 43.2262 70.592 43.2234H120.262C121.405 43.2262 122.502 43.681 123.311 44.4887C124.121 45.2964 124.578 46.3915 124.584 47.5351C124.583 48.1041 124.469 48.6673 124.25 49.1925C124.031 49.7176 123.711 50.1945 123.307 50.5959C122.904 50.9972 122.426 51.3152 121.899 51.5317C121.373 51.7482 120.81 51.8588 120.24 51.8574Z" fill="#E6E6E6"/>
<path d="M463.362 174.062H440.306C439.436 174.059 438.602 173.713 437.985 173.098C437.369 172.484 437.02 171.651 437.014 170.78C437.019 169.909 437.368 169.075 437.984 168.458C438.601 167.842 439.435 167.494 440.306 167.488H463.362C464.233 167.494 465.066 167.843 465.68 168.459C466.295 169.076 466.641 169.91 466.644 170.78C466.641 171.65 466.294 172.483 465.679 173.098C465.065 173.712 464.232 174.059 463.362 174.062Z" fill="#E0E0E0"/>
<path d="M474.311 181.528H440.295C438.483 181.528 437.014 182.997 437.014 184.809V184.82C437.014 186.632 438.483 188.101 440.295 188.101H474.311C476.124 188.101 477.593 186.632 477.593 184.82V184.809C477.593 182.997 476.124 181.528 474.311 181.528Z" fill="#F0F0F0"/>
<path d="M454.42 203.065H440.306C439.872 203.068 439.442 202.985 439.04 202.822C438.639 202.658 438.273 202.417 437.964 202.113C437.656 201.808 437.41 201.445 437.241 201.046C437.073 200.646 436.985 200.217 436.982 199.783C436.988 198.912 437.336 198.078 437.952 197.462C438.569 196.845 439.403 196.497 440.274 196.491H454.388C455.26 196.494 456.096 196.842 456.713 197.459C457.33 198.075 457.678 198.911 457.68 199.783C457.678 200.649 457.334 201.479 456.724 202.093C456.113 202.708 455.286 203.057 454.42 203.065Z" fill="#E6E6E6"/>
<path d="M464.127 217.094H440.306C439.436 217.091 438.602 216.745 437.985 216.13C437.369 215.516 437.02 214.683 437.014 213.812C437.019 212.941 437.368 212.107 437.984 211.491C438.601 210.874 439.435 210.526 440.306 210.52H464.127C464.997 210.526 465.83 210.875 466.445 211.491C467.059 212.108 467.406 212.942 467.408 213.812C467.406 214.682 467.059 215.515 466.444 216.13C465.829 216.745 464.996 217.091 464.127 217.094Z" fill="#F0F0F0"/>
<path d="M460.346 232.068H440.306C439.436 232.066 438.602 231.719 437.985 231.105C437.369 230.49 437.02 229.657 437.014 228.787C437.019 227.915 437.368 227.081 437.984 226.465C438.601 225.849 439.435 225.5 440.306 225.495H460.346C461.217 225.5 462.052 225.849 462.668 226.465C463.284 227.081 463.633 227.915 463.638 228.787C463.633 229.657 463.284 230.49 462.667 231.105C462.051 231.719 461.217 232.066 460.346 232.068Z" fill="#E6E6E6"/>
<path d="M384.36 191.383H315.829C314.958 191.38 314.123 191.032 313.508 190.415C312.893 189.798 312.547 188.962 312.547 188.091C312.55 187.221 312.897 186.388 313.512 185.774C314.126 185.159 314.96 184.812 315.829 184.809H384.36C385.229 184.812 386.062 185.159 386.677 185.774C387.292 186.388 387.639 187.221 387.641 188.091C387.641 188.962 387.296 189.798 386.681 190.415C386.066 191.032 385.231 191.38 384.36 191.383Z" fill="#E0E0E0"/>
<path d="M412.099 205.412H315.829C314.96 205.409 314.126 205.062 313.512 204.448C312.897 203.833 312.55 203 312.547 202.13C312.547 201.259 312.893 200.423 313.508 199.806C314.123 199.189 314.958 198.841 315.829 198.838H412.099C412.972 198.841 413.807 199.189 414.424 199.805C415.041 200.422 415.389 201.258 415.391 202.13C415.386 203.001 415.037 203.834 414.42 204.448C413.804 205.063 412.97 205.409 412.099 205.412Z" fill="#F0F0F0"/>
<path d="M361.707 220.386H315.829C314.958 220.383 314.123 220.035 313.508 219.418C312.893 218.801 312.547 217.965 312.547 217.094C312.55 216.225 312.897 215.392 313.512 214.777C314.126 214.162 314.96 213.815 315.829 213.812H361.707C362.578 213.815 363.412 214.162 364.028 214.776C364.645 215.391 364.994 216.224 365 217.094C364.997 217.966 364.649 218.802 364.032 219.419C363.415 220.036 362.58 220.383 361.707 220.386Z" fill="#E6E6E6"/>
<path d="M386.293 234.415H315.829C314.958 234.412 314.123 234.064 313.508 233.447C312.893 232.83 312.547 231.994 312.547 231.123C312.55 230.254 312.897 229.421 313.512 228.806C314.126 228.191 314.96 227.844 315.829 227.842H386.293C387.164 227.842 388 228.187 388.617 228.802C389.234 229.417 389.582 230.252 389.585 231.123C389.585 231.555 389.5 231.984 389.334 232.383C389.169 232.782 388.926 233.145 388.621 233.451C388.315 233.757 387.952 233.999 387.553 234.165C387.153 234.33 386.725 234.415 386.293 234.415Z" fill="#F0F0F0"/>
<path d="M376.586 249.389H315.829C314.958 249.387 314.123 249.039 313.508 248.421C312.893 247.804 312.547 246.969 312.547 246.097C312.55 245.228 312.897 244.395 313.512 243.78C314.126 243.165 314.96 242.818 315.829 242.816H376.586C377.455 242.818 378.288 243.165 378.903 243.78C379.518 244.395 379.865 245.228 379.868 246.097C379.868 246.969 379.522 247.804 378.907 248.421C378.292 249.039 377.457 249.387 376.586 249.389Z" fill="#E6E6E6"/>
<path d="M266 404.282C379.722 404.282 471.911 398.9 471.911 392.26C471.911 385.621 379.722 380.239 266 380.239C152.278 380.239 60.0889 385.621 60.0889 392.26C60.0889 398.9 152.278 404.282 266 404.282Z" fill="#F5F5F5"/>
<path opacity="0.7" d="M372.593 319.556H241.712C237.365 319.581 233.06 318.714 229.062 317.007C225.065 315.3 221.461 312.789 218.474 309.632C215.486 306.474 213.18 302.737 211.697 298.651C210.214 294.565 209.586 290.218 209.852 285.88L221.045 72.2479C221.969 53.7266 237.91 38.5718 256.442 38.5718H387.323C391.674 38.5389 395.985 39.4012 399.989 41.105C403.993 42.8088 407.603 45.3179 410.596 48.4762C413.589 51.6345 415.9 55.3745 417.387 59.464C418.873 63.5534 419.503 67.9049 419.236 72.2479L408.032 285.88C407.065 304.401 391.114 319.556 372.593 319.556Z" fill="#92B3E3"/>
<path d="M295.301 26.2633H287.155V27.3253H295.301V26.2633Z" fill="#92B3E3"/>
<path d="M280.199 26.2633H251.875V27.3253H280.199V26.2633Z" fill="#92B3E3"/>
<path d="M206.898 99.1093L206.472 107.159L207.532 107.215L207.958 99.1654L206.898 99.1093Z" fill="#92B3E3"/>
<path opacity="0.6" d="M365.063 312.037H234.14C229.794 312.062 225.49 311.195 221.493 309.489C217.496 307.782 213.893 305.273 210.906 302.117C207.919 298.96 205.612 295.224 204.128 291.139C202.644 287.055 202.015 282.709 202.28 278.371L213.484 64.7289C214.45 46.2077 230.402 31.0529 248.923 31.0529H379.793C384.144 31.02 388.456 31.8822 392.459 33.5861C396.463 35.2899 400.073 37.7989 403.066 40.9572C406.059 44.1155 408.371 47.8556 409.857 51.9451C411.344 56.0345 411.973 60.3859 411.706 64.7289L400.513 278.371C399.536 296.882 383.585 312.037 365.063 312.037Z" fill="#92B3E3"/>
<path d="M258.662 281.802C227.545 281.802 198.913 269.684 178.035 247.69C157.156 225.696 146.493 196.332 148.129 165.152C149.268 144.459 155.684 124.402 166.767 106.89C177.618 89.7253 192.435 75.4187 209.969 65.1748C210.033 65.1483 210.106 65.1483 210.171 65.1748C210.241 65.1949 210.302 65.2403 210.341 65.3023L221.056 85.7458C221.438 85.5334 221.821 85.321 222.214 85.1192L222.628 84.8855C222.693 84.8644 222.764 84.8644 222.83 84.8855C222.865 84.8959 222.897 84.9135 222.924 84.9373C222.952 84.9611 222.974 84.9906 222.989 85.0236L225.92 90.5991C225.951 90.66 225.957 90.7303 225.937 90.7956C225.917 90.8608 225.873 90.916 225.814 90.9496C198.552 106.189 180.615 134.64 179.022 165.215C177.811 188.133 185.617 209.681 200.995 225.877C208.625 233.896 217.823 240.261 228.018 244.574C238.213 248.888 249.185 251.058 260.255 250.95C260.291 250.95 260.327 250.957 260.36 250.971C260.393 250.986 260.422 251.008 260.446 251.035C260.472 251.06 260.492 251.089 260.505 251.122C260.518 251.156 260.523 251.191 260.52 251.227L258.927 281.6C258.914 281.66 258.881 281.713 258.832 281.75C258.783 281.787 258.723 281.805 258.662 281.802ZM209.99 65.7802C174.275 86.7016 150.773 124.764 148.649 165.173C147.024 196.215 157.602 225.388 178.385 247.318C199.168 269.249 227.502 281.207 258.385 281.302L259.947 251.471C248.853 251.539 237.863 249.336 227.653 244.996C217.443 240.656 208.23 234.273 200.581 226.238C185.107 209.925 177.217 188.239 178.459 165.183C180.063 134.513 198 105.956 225.294 90.5991L222.617 85.4909L222.426 85.5971C221.969 85.8413 221.502 86.0856 221.056 86.3511C220.988 86.3783 220.912 86.3783 220.844 86.3511C220.776 86.3305 220.719 86.2849 220.684 86.2237L209.99 65.7802Z" fill="#92B3E3"/>
<path d="M266.223 292.878C266.147 292.878 266.075 292.847 266.021 292.793C265.998 292.766 265.98 292.733 265.969 292.699C265.958 292.664 265.954 292.628 265.957 292.592L267.657 260.105C267.662 260.038 267.692 259.976 267.742 259.931C267.791 259.886 267.855 259.861 267.922 259.861C318.526 259.861 361.856 218.687 364.511 168.072C364.516 168.005 364.547 167.943 364.596 167.898C364.645 167.853 364.71 167.828 364.777 167.828H372.508C372.542 167.826 372.577 167.832 372.609 167.844C372.641 167.856 372.67 167.875 372.695 167.899C372.72 167.922 372.74 167.951 372.753 167.983C372.767 168.014 372.773 168.048 372.773 168.083C372.837 170.716 372.773 173.393 372.678 175.995H396.562C396.598 175.994 396.634 176.001 396.667 176.016C396.7 176.03 396.73 176.052 396.753 176.08C396.802 176.139 396.829 176.215 396.828 176.292C393.062 206.867 378.749 235.17 356.355 256.324C331.897 279.55 299.049 292.878 266.223 292.878ZM268.177 260.392L266.499 292.347C299.102 292.273 331.706 279.009 355.983 255.931C378.219 234.94 392.46 206.867 396.265 176.526H372.402C372.362 176.526 372.323 176.516 372.288 176.498C372.253 176.479 372.222 176.452 372.2 176.419C372.173 176.396 372.152 176.366 372.14 176.333C372.127 176.3 372.122 176.264 372.126 176.228C372.264 173.616 372.296 170.918 372.242 168.338H365.021C362.238 219.037 318.866 260.254 268.177 260.392Z" fill="#92B3E3"/>
<path d="M372.508 168.359C372.438 168.356 372.372 168.327 372.323 168.278C372.274 168.229 372.245 168.163 372.242 168.093C370.894 114.43 327.638 72.3965 273.721 72.3965C255.966 72.4385 238.498 76.8829 222.883 85.3317C222.852 85.35 222.819 85.3619 222.784 85.3664C222.748 85.371 222.713 85.3682 222.679 85.3582C222.645 85.3482 222.613 85.3313 222.586 85.3084C222.559 85.2856 222.537 85.2573 222.522 85.2255C222.49 85.163 222.484 85.0911 222.504 85.0241C222.523 84.9571 222.568 84.9 222.628 84.8644C238.322 76.3738 255.877 71.9075 273.721 71.8655C299.592 71.567 324.531 81.5183 343.09 99.5461C361.649 117.574 372.321 142.213 372.773 168.083C372.775 168.118 372.769 168.152 372.757 168.185C372.745 168.218 372.727 168.248 372.703 168.274C372.68 168.299 372.651 168.32 372.619 168.335C372.588 168.349 372.553 168.357 372.518 168.359H372.508Z" fill="#92B3E3"/>
<path d="M409.158 176.526H396.562C396.492 176.526 396.424 176.498 396.375 176.448C396.325 176.398 396.297 176.33 396.297 176.26C396.297 176.19 396.325 176.122 396.375 176.072C396.424 176.023 396.492 175.995 396.562 175.995H408.903C410.205 151.717 404.971 127.534 393.748 105.966C377.298 74.6691 349.229 51.8043 314.703 41.5666C277.979 30.6705 238.887 35.1946 204.595 54.3106L210.341 65.2492C210.371 65.3129 210.376 65.3858 210.354 65.453C210.332 65.5201 210.286 65.5764 210.224 65.6103C210.192 65.6267 210.158 65.6367 210.123 65.6397C210.088 65.6427 210.052 65.6387 210.019 65.6278C209.985 65.6169 209.954 65.5994 209.927 65.5764C209.9 65.5533 209.878 65.5251 209.863 65.4935L204.011 54.3318C203.995 54.302 203.984 54.2691 203.98 54.2351C203.977 54.2012 203.98 54.1668 203.99 54.1341C204 54.1014 204.016 54.071 204.038 54.0448C204.06 54.0186 204.087 53.997 204.117 53.9814C221.225 44.3466 240.109 38.2808 259.628 36.1504C278.179 34.0825 296.956 35.7508 314.852 41.0568C349.516 51.337 377.701 74.2974 394.215 105.722C405.525 127.447 410.778 151.816 409.423 176.271C409.42 176.339 409.391 176.404 409.342 176.452C409.292 176.499 409.226 176.526 409.158 176.526Z" fill="#92B3E3"/>
<path d="M220.95 86.3512H220.875C220.808 86.3306 220.751 86.285 220.716 86.2238L209.863 65.536C209.83 65.4726 209.824 65.399 209.846 65.3313C209.868 65.2635 209.916 65.2073 209.979 65.1749C210.043 65.1425 210.116 65.1366 210.184 65.1585C210.252 65.1804 210.308 65.2284 210.34 65.2917L221.056 85.7352C221.438 85.5228 221.821 85.3104 222.214 85.1086L222.628 84.875C222.659 84.8586 222.693 84.8486 222.729 84.8456C222.764 84.8426 222.799 84.8466 222.833 84.8575C222.867 84.8684 222.898 84.8859 222.924 84.9089C222.951 84.932 222.973 84.9602 222.989 84.9918C223.005 85.0217 223.016 85.0546 223.019 85.0885C223.023 85.1225 223.02 85.1569 223.01 85.1896C223 85.2223 222.984 85.2526 222.962 85.2789C222.94 85.3051 222.913 85.3267 222.883 85.3423L222.458 85.5759C222.001 85.8202 221.534 86.0644 221.088 86.33C221.044 86.3479 220.997 86.3552 220.95 86.3512Z" fill="#92B3E3"/>
<g opacity="0.3">
<path opacity="0.3" d="M258.662 281.802C227.545 281.802 198.913 269.684 178.035 247.69C157.156 225.696 146.493 196.332 148.129 165.152C149.268 144.459 155.684 124.402 166.767 106.89C177.618 89.7253 192.435 75.4187 209.969 65.1748C210.033 65.1483 210.106 65.1483 210.171 65.1748C210.241 65.1949 210.302 65.2403 210.341 65.3023L221.056 85.7458C221.438 85.5334 221.821 85.321 222.214 85.1192L222.628 84.8855C222.693 84.8644 222.764 84.8644 222.83 84.8855C222.865 84.8959 222.897 84.9135 222.924 84.9373C222.952 84.9611 222.974 84.9906 222.989 85.0236L225.92 90.5991C225.951 90.66 225.957 90.7303 225.937 90.7956C225.917 90.8608 225.873 90.916 225.814 90.9496C198.552 106.189 180.615 134.64 179.022 165.215C177.811 188.133 185.617 209.681 200.995 225.877C208.625 233.896 217.823 240.261 228.018 244.574C238.213 248.888 249.185 251.058 260.255 250.95C260.291 250.95 260.327 250.957 260.36 250.971C260.393 250.986 260.422 251.008 260.446 251.035C260.472 251.06 260.492 251.089 260.505 251.122C260.518 251.156 260.523 251.191 260.52 251.227L258.927 281.6C258.914 281.66 258.881 281.713 258.832 281.75C258.783 281.787 258.723 281.805 258.662 281.802ZM209.99 65.7802C174.275 86.7016 150.773 124.764 148.649 165.173C147.024 196.215 157.602 225.388 178.385 247.318C199.168 269.249 227.502 281.207 258.385 281.302L259.947 251.471C248.853 251.539 237.863 249.336 227.653 244.996C217.443 240.656 208.23 234.273 200.581 226.238C185.107 209.925 177.217 188.239 178.459 165.183C180.063 134.513 198 105.956 225.294 90.5991L222.617 85.4909L222.426 85.5971C221.969 85.8413 221.502 86.0856 221.056 86.3511C220.988 86.3783 220.912 86.3783 220.844 86.3511C220.776 86.3305 220.719 86.2849 220.684 86.2237L209.99 65.7802Z" fill="white"/>
<path opacity="0.3" d="M266.223 292.878C266.147 292.878 266.075 292.847 266.021 292.793C265.998 292.766 265.98 292.733 265.969 292.699C265.958 292.664 265.954 292.628 265.957 292.592L267.657 260.105C267.662 260.038 267.692 259.976 267.742 259.931C267.791 259.886 267.855 259.861 267.922 259.861C318.526 259.861 361.856 218.687 364.511 168.072C364.516 168.005 364.547 167.943 364.596 167.898C364.645 167.853 364.71 167.828 364.777 167.828H372.508C372.542 167.826 372.577 167.832 372.609 167.844C372.641 167.856 372.67 167.875 372.695 167.899C372.72 167.922 372.74 167.951 372.753 167.983C372.767 168.014 372.773 168.048 372.773 168.083C372.837 170.716 372.773 173.393 372.678 175.995H396.562C396.598 175.994 396.634 176.001 396.667 176.016C396.7 176.03 396.73 176.052 396.753 176.08C396.802 176.139 396.829 176.215 396.828 176.292C393.062 206.867 378.749 235.17 356.355 256.324C331.897 279.55 299.049 292.878 266.223 292.878ZM268.177 260.392L266.499 292.347C299.102 292.273 331.706 279.009 355.983 255.931C378.219 234.94 392.46 206.867 396.265 176.526H372.402C372.362 176.526 372.323 176.516 372.288 176.498C372.253 176.479 372.222 176.452 372.2 176.419C372.173 176.396 372.152 176.366 372.14 176.333C372.127 176.3 372.122 176.264 372.126 176.228C372.264 173.616 372.296 170.918 372.242 168.338H365.021C362.238 219.037 318.866 260.254 268.177 260.392Z" fill="white"/>
<path opacity="0.3" d="M372.508 168.359C372.438 168.356 372.372 168.327 372.323 168.278C372.274 168.229 372.245 168.163 372.242 168.093C370.894 114.43 327.638 72.3965 273.721 72.3965C255.966 72.4385 238.498 76.8829 222.883 85.3317C222.852 85.35 222.819 85.3619 222.784 85.3664C222.748 85.371 222.713 85.3682 222.679 85.3582C222.645 85.3482 222.613 85.3313 222.586 85.3084C222.559 85.2856 222.537 85.2573 222.522 85.2255C222.49 85.163 222.484 85.0911 222.504 85.0241C222.523 84.9571 222.568 84.9 222.628 84.8644C238.322 76.3738 255.877 71.9075 273.721 71.8655C299.592 71.567 324.531 81.5183 343.09 99.5461C361.649 117.574 372.321 142.213 372.773 168.083C372.775 168.118 372.769 168.152 372.757 168.185C372.745 168.218 372.727 168.248 372.703 168.274C372.68 168.299 372.651 168.32 372.619 168.335C372.588 168.349 372.553 168.357 372.518 168.359H372.508Z" fill="white"/>
<path opacity="0.3" d="M409.158 176.526H396.562C396.492 176.526 396.424 176.498 396.375 176.448C396.325 176.398 396.297 176.33 396.297 176.26C396.297 176.19 396.325 176.122 396.375 176.072C396.424 176.023 396.492 175.995 396.562 175.995H408.903C410.205 151.717 404.971 127.534 393.748 105.966C377.298 74.6691 349.229 51.8043 314.703 41.5666C277.979 30.6705 238.887 35.1946 204.595 54.3106L210.341 65.2492C210.371 65.3129 210.376 65.3858 210.354 65.453C210.332 65.5201 210.286 65.5764 210.224 65.6103C210.192 65.6267 210.158 65.6367 210.123 65.6397C210.088 65.6427 210.052 65.6387 210.019 65.6278C209.985 65.6169 209.954 65.5994 209.927 65.5764C209.9 65.5533 209.878 65.5251 209.863 65.4935L204.011 54.3318C203.995 54.302 203.984 54.2691 203.98 54.2351C203.977 54.2012 203.98 54.1668 203.99 54.1341C204 54.1014 204.016 54.071 204.038 54.0448C204.06 54.0186 204.087 53.997 204.117 53.9814C221.225 44.3466 240.109 38.2808 259.628 36.1504C278.179 34.0825 296.956 35.7508 314.852 41.0568C349.516 51.337 377.701 74.2974 394.215 105.722C405.525 127.447 410.778 151.816 409.423 176.271C409.42 176.339 409.391 176.404 409.342 176.452C409.292 176.499 409.226 176.526 409.158 176.526Z" fill="white"/>
<path opacity="0.3" d="M220.95 86.3512H220.875C220.808 86.3306 220.751 86.285 220.716 86.2238L209.863 65.536C209.83 65.4726 209.824 65.399 209.846 65.3313C209.868 65.2635 209.916 65.2073 209.979 65.1749C210.043 65.1425 210.116 65.1366 210.184 65.1585C210.252 65.1804 210.308 65.2284 210.34 65.2917L221.056 85.7352C221.438 85.5228 221.821 85.3104 222.214 85.1086L222.628 84.875C222.659 84.8586 222.693 84.8486 222.729 84.8456C222.764 84.8426 222.799 84.8466 222.833 84.8575C222.867 84.8684 222.898 84.8859 222.924 84.9089C222.951 84.932 222.973 84.9602 222.989 84.9918C223.005 85.0217 223.016 85.0546 223.019 85.0885C223.023 85.1225 223.02 85.1569 223.01 85.1896C223 85.2223 222.984 85.2526 222.962 85.2789C222.94 85.3051 222.913 85.3267 222.883 85.3423L222.458 85.5759C222.001 85.8202 221.534 86.0644 221.088 86.33C221.044 86.3479 220.997 86.3552 220.95 86.3512Z" fill="white"/>
</g>
<path d="M266.881 237.686L265.819 257.195C224.518 257.195 192.775 223.7 194.942 182.409C196.396 154.733 212.709 130.552 235.744 117.627L244.622 134.524C235.972 139.321 228.673 146.224 223.401 154.592C218.128 162.961 215.054 172.525 214.461 182.398C212.9 212.931 236.36 237.686 266.881 237.686Z" fill="#92B3E3"/>
<path opacity="0.6" d="M266.881 237.686L265.819 257.195C224.518 257.195 192.775 223.7 194.942 182.409C196.396 154.733 212.709 130.552 235.744 117.627L244.622 134.524C235.972 139.321 228.673 146.224 223.401 154.592C218.128 162.961 215.054 172.525 214.461 182.398C212.9 212.931 236.36 237.686 266.881 237.686Z" fill="black"/>
<path d="M354.932 184.289C353.595 205.797 344.168 226.003 328.546 240.847C312.924 255.69 292.264 264.073 270.715 264.311L271.777 243.432C304.434 243.432 332.311 216.945 334.021 184.289H354.932Z" fill="#92B3E3"/>
<path opacity="0.3" d="M354.932 184.289C353.595 205.797 344.168 226.003 328.546 240.847C312.924 255.69 292.264 264.073 270.715 264.311L271.777 243.432C304.434 243.432 332.311 216.945 334.021 184.289H354.932Z" fill="black"/>
<path d="M362.568 189.546H338.949C340.882 152.556 312.484 122.64 275.537 122.64C263.632 122.636 251.93 125.72 241.574 131.592L230.837 111.128C275.154 86.2982 330.177 101.272 352.776 144.283C360.044 158.218 363.426 173.853 362.568 189.546Z" fill="#FAFAFA"/>
<path d="M359.987 248.465H338.237L335.89 293.261H357.64L359.987 248.465Z" fill="#FAFAFA"/>
<path d="M391.029 233.661H369.28L366.157 293.261H387.907L391.029 233.661Z" fill="#92B3E3"/>
<path opacity="0.6" d="M391.029 233.661H369.28L366.157 293.261H387.907L391.029 233.661Z" fill="black"/>
<path d="M420.51 248.465H398.761L396.414 293.261H418.163L420.51 248.465Z" fill="#92B3E3"/>
<path opacity="0.3" d="M420.51 248.465H398.761L396.414 293.261H418.163L420.51 248.465Z" fill="black"/>
<path d="M417.962 297.073H335.688L335.742 296.054H418.015L417.962 297.073Z" fill="#263238"/>
<path opacity="0.8" d="M429.081 107.549H334.244L337.048 53.9708H431.895L429.081 107.549Z" fill="#FAFAFA"/>
<path d="M335.954 74.8498L334.244 107.549H429.081L431.205 66.9485C415.466 66.9485 406.131 84.8644 386.664 84.8644C367.198 84.8644 361.856 74.8498 335.954 74.8498Z" fill="#92B3E3"/>
<path opacity="0.1" d="M335.954 74.8498L334.244 107.549H429.081L431.205 66.9485C415.466 66.9485 406.131 84.8644 386.664 84.8644C367.198 84.8644 361.856 74.8498 335.954 74.8498Z" fill="black"/>
<path d="M335.136 90.4824C356.451 90.4824 364.108 78.8004 376.076 78.8004C388.045 78.8004 393.281 91.0877 408.191 91.0877C423.739 91.0877 430.493 81.4236 430.493 81.4236L429.123 107.57H334.287L335.136 90.4824Z" fill="#92B3E3"/>
<path opacity="0.5" d="M335.136 90.4824C356.451 90.4824 364.108 78.8004 376.076 78.8004C388.045 78.8004 393.281 91.0877 408.191 91.0877C423.739 91.0877 430.493 81.4236 430.493 81.4236L429.123 107.57H334.287L335.136 90.4824Z" fill="black"/>
<path d="M147.576 131.603C146.175 133.483 144.613 135.575 143.201 137.625C141.788 139.674 140.365 141.766 139.027 143.869C136.35 147.962 134.006 152.262 132.018 156.73L131.668 157.537L131.498 157.941C131.422 158.107 131.382 158.288 131.381 158.472C131.354 159.338 131.45 160.203 131.668 161.042C132.234 163.278 133.006 165.457 133.972 167.552C136.076 172.14 138.408 176.62 140.96 180.975L136.362 184.607C132.482 180.735 129.022 176.463 126.039 171.863C124.434 169.388 123.102 166.746 122.067 163.983C121.453 162.327 121.071 160.594 120.931 158.833C120.852 157.709 120.931 156.579 121.164 155.477C121.228 155.169 121.324 154.84 121.419 154.532L121.589 154.011L121.929 152.949C122.364 151.558 122.895 150.252 123.405 148.924C123.915 147.597 124.467 146.322 125.136 145.08C126.305 142.542 127.653 140.131 129.023 137.752C130.393 135.373 131.88 133.079 133.431 130.838C134.206 129.713 135.002 128.608 135.809 127.504C136.617 126.399 137.424 125.38 138.379 124.19L147.576 131.603Z" fill="#E58A7B"/>
<path d="M139.293 179.308L144.996 180.285L139.93 188.866C139.93 188.866 135.958 186.954 135.236 183.248L139.293 179.308Z" fill="#E58A7B"/>
<path d="M151.155 183.354L146.642 190.257L139.93 188.866L144.996 180.285L151.155 183.354Z" fill="#E58A7B"/>
<path d="M176.983 89.9728C176.983 90.5994 177.312 91.1091 177.727 91.1091C178.141 91.1091 178.47 90.5994 178.47 89.9728C178.47 89.3462 178.141 88.8364 177.727 88.8364C177.312 88.8364 176.983 89.3356 176.983 89.9728Z" fill="#263238"/>
<path d="M177.259 91.109C178.011 93.0324 179.022 94.844 180.265 96.4934C179.835 96.8007 179.343 97.0103 178.824 97.1075C178.305 97.2048 177.771 97.1873 177.259 97.0562V91.109Z" fill="#DF5753"/>
<path d="M174.753 86.4893C174.694 86.4909 174.635 86.4771 174.583 86.4491C174.531 86.4212 174.487 86.3801 174.456 86.33C174.426 86.2917 174.404 86.2476 174.392 86.2005C174.38 86.1534 174.378 86.1043 174.386 86.0564C174.394 86.0084 174.412 85.9627 174.438 85.922C174.465 85.8814 174.5 85.8467 174.541 85.8202C175.007 85.4629 175.553 85.224 176.132 85.1242C176.711 85.0243 177.305 85.0663 177.865 85.2467C177.954 85.2844 178.025 85.3554 178.063 85.4446C178.1 85.5339 178.102 85.6344 178.066 85.7246C178.051 85.7703 178.027 85.8123 177.994 85.8481C177.962 85.8839 177.923 85.9127 177.879 85.9326C177.835 85.9525 177.788 85.9632 177.739 85.964C177.691 85.9647 177.644 85.9556 177.599 85.937C177.154 85.801 176.682 85.7733 176.224 85.8565C175.766 85.9396 175.334 86.1311 174.965 86.4149C174.905 86.4639 174.83 86.4902 174.753 86.4893Z" fill="#263238"/>
<path d="M156.667 97.2262C157.793 102.94 158.908 113.39 154.915 117.202C154.915 117.202 156.476 122.99 167.085 122.99C178.767 122.99 172.65 117.202 172.65 117.202C166.278 115.684 166.448 110.958 167.563 106.529L156.667 97.2262Z" fill="#E58A7B"/>
<path d="M153.428 119.188C152.589 117.362 151.676 115.259 153.577 114.6C155.701 113.878 167.138 113.145 171.089 114.494C171.61 114.639 172.097 114.885 172.523 115.219C172.948 115.553 173.303 115.968 173.566 116.44C173.83 116.913 173.998 117.432 174.059 117.97C174.121 118.507 174.075 119.051 173.925 119.571L153.428 119.188Z" fill="#92B3E3"/>
<path d="M128.821 385.633C128.136 385.63 127.453 385.555 126.782 385.41C126.748 385.404 126.716 385.388 126.692 385.363C126.667 385.339 126.65 385.307 126.644 385.272C126.637 385.237 126.641 385.2 126.654 385.166C126.667 385.132 126.689 385.103 126.719 385.081C126.814 385.018 128.97 383.552 130.107 383.807C130.228 383.832 130.343 383.885 130.442 383.96C130.542 384.035 130.623 384.132 130.68 384.242C130.771 384.371 130.82 384.525 130.82 384.683C130.82 384.841 130.771 384.995 130.68 385.124C130.419 385.328 130.121 385.478 129.802 385.565C129.483 385.653 129.15 385.676 128.821 385.633ZM127.303 385.145C128.471 385.336 130.064 385.336 130.393 384.89C130.393 384.89 130.531 384.72 130.393 384.423C130.359 384.358 130.311 384.301 130.252 384.257C130.193 384.213 130.125 384.183 130.053 384.168C129.058 384.22 128.1 384.567 127.303 385.166V385.145Z" fill="#92B3E3"/>
<path d="M126.878 385.442C126.847 385.453 126.813 385.453 126.782 385.442C126.753 385.426 126.729 385.401 126.714 385.37C126.699 385.34 126.693 385.306 126.697 385.272C126.697 385.177 126.889 382.925 127.759 382.182C127.868 382.093 127.994 382.026 128.129 381.986C128.264 381.946 128.405 381.933 128.545 381.948C128.686 381.948 128.822 381.997 128.93 382.086C129.039 382.175 129.113 382.299 129.14 382.437C129.299 383.308 127.738 385.007 126.931 385.453L126.878 385.442ZM128.45 382.256C128.294 382.259 128.144 382.315 128.025 382.416C127.482 383.12 127.16 383.97 127.101 384.858C127.908 384.253 128.906 382.968 128.811 382.447C128.811 382.447 128.811 382.288 128.535 382.256H128.45Z" fill="#92B3E3"/>
<path d="M175.666 385.634C174.864 385.634 174.064 385.559 173.277 385.411C173.239 385.406 173.204 385.389 173.177 385.362C173.15 385.335 173.132 385.3 173.128 385.262C173.122 385.225 173.127 385.188 173.142 385.154C173.157 385.12 173.182 385.091 173.213 385.071C173.33 385.007 176.059 383.456 177.355 383.807C177.477 383.834 177.593 383.887 177.693 383.962C177.794 384.037 177.878 384.133 177.939 384.242C178.023 384.36 178.069 384.501 178.069 384.646C178.069 384.791 178.023 384.932 177.939 385.049C177.631 385.517 176.664 385.634 175.666 385.634ZM173.871 385.145C175.337 385.347 177.302 385.315 177.663 384.826C177.663 384.763 177.748 384.656 177.663 384.423C177.624 384.357 177.572 384.301 177.509 384.257C177.447 384.213 177.376 384.183 177.302 384.168C176.41 383.956 174.668 384.741 173.871 385.166V385.145Z" fill="#92B3E3"/>
<path d="M173.309 385.442C173.274 385.453 173.237 385.453 173.202 385.442C173.176 385.423 173.155 385.397 173.142 385.368C173.129 385.338 173.124 385.305 173.128 385.272C173.197 384.166 173.622 383.112 174.339 382.267C174.481 382.138 174.65 382.043 174.834 381.988C175.018 381.933 175.211 381.919 175.401 381.948C175.91 382.001 176.059 382.256 176.091 382.469C176.229 383.35 174.371 385.039 173.425 385.453L173.309 385.442ZM175.21 382.256C174.974 382.253 174.746 382.341 174.572 382.501C173.974 383.168 173.602 384.009 173.51 384.901C174.466 384.327 175.741 383 175.634 382.469C175.634 382.469 175.634 382.299 175.273 382.256H175.21Z" fill="#92B3E3"/>
<path d="M164.728 385.251H172.533L173.309 367.187H165.503L164.728 385.251Z" fill="#E58A7B"/>
<path d="M117.883 385.251H125.689L129.607 367.187H121.812L117.883 385.251Z" fill="#E58A7B"/>
<path d="M126.241 384.348H117.479C117.323 384.35 117.172 384.404 117.05 384.502C116.928 384.601 116.844 384.737 116.81 384.89L115.27 391.825C115.235 391.994 115.239 392.168 115.28 392.336C115.322 392.503 115.401 392.659 115.511 392.792C115.621 392.924 115.76 393.031 115.917 393.102C116.074 393.174 116.245 393.209 116.417 393.206C119.476 393.152 120.963 392.972 124.818 392.972C127.186 392.972 132.071 393.227 135.353 393.227C138.634 393.227 139.048 390.041 137.71 389.69C131.699 388.373 129.437 386.557 127.505 384.837C127.16 384.52 126.709 384.345 126.241 384.348Z" fill="#263238"/>
<path d="M172.48 384.349H163.984C163.828 384.35 163.677 384.404 163.555 384.502C163.433 384.601 163.349 384.737 163.315 384.89L161.775 391.825C161.739 391.992 161.74 392.166 161.78 392.332C161.819 392.499 161.896 392.655 162.004 392.787C162.113 392.92 162.25 393.027 162.405 393.099C162.56 393.172 162.73 393.208 162.901 393.206C165.97 393.152 170.409 392.972 174.275 392.972C178.789 392.972 182.697 393.227 187.986 393.227C191.172 393.227 192.085 390.041 190.747 389.69C184.64 388.352 179.659 388.214 174.381 384.964C173.819 384.582 173.16 384.369 172.48 384.349Z" fill="#263238"/>
<path d="M182.792 121.652C187.359 123.904 192.106 126.208 196.789 128.364C201.473 130.52 206.209 132.612 210.914 134.407L212.666 135.033L213.112 135.193H213.219C213.219 135.193 213.219 135.193 213.272 135.246C213.907 135.312 214.549 135.235 215.151 135.023C217.264 134.318 219.282 133.359 221.162 132.166C225.455 129.47 229.579 126.516 233.513 123.319L237.815 127.291C234.538 131.825 230.726 135.947 226.462 139.568C224.122 141.589 221.504 143.262 218.688 144.538C216.842 145.374 214.841 145.808 212.815 145.813C212.173 145.8 211.534 145.733 210.903 145.611L210.394 145.494L210.043 145.398L209.533 145.26L207.494 144.698C202.238 143.124 197.075 141.251 192.032 139.09C187.019 136.966 182.198 134.693 177.323 132.113L182.792 121.652Z" fill="#E58A7B"/>
<path d="M140.949 118.965C133.632 120.643 125.242 140.577 125.242 140.577L139.93 150.645C143.586 145.406 146.831 139.892 149.637 134.152C153.97 125.029 148.426 117.255 140.949 118.965Z" fill="#263238"/>
<path d="M146.185 131.677L139.24 150.167L139.93 150.645C139.93 150.645 142.935 146.397 146.185 140.736V131.677Z" fill="#92B3E3"/>
<path opacity="0.8" d="M146.185 131.677L139.24 150.167L139.93 150.645C139.93 150.645 142.935 146.397 146.185 140.736V131.677Z" fill="black"/>
<path d="M184.651 119.369C184.651 119.369 192.956 128.746 185.118 186.806H143.381C143.095 180.434 147.12 149.147 140.949 118.965C145.562 118.077 150.227 117.488 154.915 117.202C160.822 116.862 166.743 116.862 172.65 117.202C176.701 117.61 180.713 118.335 184.651 119.369Z" fill="#263238"/>
<path d="M188.304 137.232L178.268 135.108C178.417 135.288 184.64 143.094 188.453 147.947C188.527 143.805 188.474 140.311 188.304 137.232Z" fill="#92B3E3"/>
<path opacity="0.8" d="M188.304 137.232L178.268 135.108C178.417 135.288 184.64 143.094 188.453 147.947C188.527 143.805 188.474 140.311 188.304 137.232Z" fill="black"/>
<path d="M171.567 129.755C173.861 136.849 197.055 144.623 197.055 144.623L203.958 128.258C198.138 124.728 191.957 121.83 185.522 119.613C176.112 116.618 169.039 121.971 171.567 129.755Z" fill="#263238"/>
<path d="M232.855 124.382L235.138 116.47L244.218 120.58C244.218 120.58 242.211 126.718 236.721 128.183L232.855 124.382Z" fill="#E58A7B"/>
<path d="M240.576 109.875L246.746 115.96L244.218 120.537L235.138 116.427L240.576 109.875Z" fill="#E58A7B"/>
<path d="M173.309 367.197L172.905 376.5H165.099L165.503 367.197H173.309Z" fill="#CF6F64"/>
<path d="M121.802 367.197H129.607L127.59 376.5H119.784L121.802 367.197Z" fill="#CF6F64"/>
<path d="M155.998 88.6345C156.465 96.3659 156.348 100.911 160.246 104.883C166.119 110.852 175.656 107.304 177.504 99.5731C179.16 92.6276 178.109 81.158 170.537 78.0782C168.871 77.3939 167.059 77.1469 165.271 77.3607C163.483 77.5746 161.779 78.2423 160.322 79.3002C158.865 80.3581 157.703 81.7712 156.946 83.405C156.189 85.0388 155.863 86.839 155.998 88.6345Z" fill="#E58A7B"/>
<path d="M171.015 83.4945C176.845 85.215 181.73 76.942 180.827 82.7936C179.925 88.6452 186.286 88.008 186.286 88.008C186.286 88.008 181.295 86.1177 187.231 81.19C194.485 75.1685 184.183 71.4727 179.67 74.7437C173.595 79.1616 172.406 71.3665 164.579 69.2744C159.269 67.8725 152.738 71.2072 152.621 75.041C152.472 79.7244 148.447 75.9543 148.15 82.9211C147.948 87.4664 153.364 102.451 159.205 102.961C167.999 103.736 170.951 92.5853 171.015 83.4945Z" fill="#263238"/>
<path d="M166.427 90.886C166.843 92.7733 167.874 94.4691 169.358 95.7075C171.323 97.3005 172.894 95.8774 172.852 93.5835C172.799 91.5126 171.726 88.1885 169.517 87.4876C167.308 86.7867 165.928 88.6239 166.427 90.886Z" fill="#E58A7B"/>
<path d="M154.32 79.395C153.368 77.9498 152.79 76.29 152.64 74.5656C152.49 72.8412 152.772 71.1066 153.46 69.5184C153.46 69.5184 145.155 75.7736 154.32 79.395Z" fill="#263238"/>
<path d="M147.672 78.6306C148.495 78.2821 149.393 78.1471 150.282 78.2381C151.171 78.3291 152.023 78.6431 152.759 79.151C152.759 79.151 150.401 74.3401 147.672 78.6306Z" fill="#263238"/>
<path d="M170.314 186.806C170.314 186.806 161.457 246.426 156.614 268.813C151.304 293.239 131.243 374.759 131.243 374.759H116.927C116.927 374.759 130.16 295.193 133.25 270.937C136.542 244.653 143.435 186.763 143.435 186.763L170.314 186.806Z" fill="#92B3E3"/>
<path d="M133.505 369.438C133.569 369.438 132.029 374.929 132.029 374.929H115.95L116.247 370.033L133.505 369.438Z" fill="#92B3E3"/>
<path opacity="0.2" d="M133.505 369.438C133.569 369.438 132.029 374.929 132.029 374.929H115.95L116.247 370.033L133.505 369.438Z" fill="black"/>
<path d="M164.717 208.046C154.479 210.053 155.563 248.232 156.795 267.868C159.8 253.945 164.048 227.279 167.022 208.279C166.302 207.942 165.489 207.859 164.717 208.046Z" fill="#92B3E3"/>
<path opacity="0.2" d="M164.717 208.046C154.479 210.053 155.563 248.232 156.795 267.868C159.8 253.945 164.048 227.279 167.022 208.279C166.302 207.942 165.489 207.859 164.717 208.046Z" fill="black"/>
<path d="M185.118 186.806C185.118 186.806 186.18 245.131 185.341 268.93C184.46 293.675 175.783 374.705 175.783 374.705H162.604C162.604 374.705 162.115 295.119 161.542 270.821C160.905 244.324 157.708 186.806 157.708 186.806H185.118Z" fill="#92B3E3"/>
<path d="M173.064 365.211C173.029 365.206 172.996 365.188 172.973 365.161C172.949 365.133 172.937 365.098 172.937 365.062C175.273 342.633 180.764 288.375 181.433 268.92C182.144 248.986 181.497 204.467 181.284 191.287C181.284 191.271 181.288 191.254 181.294 191.239C181.3 191.223 181.31 191.209 181.322 191.197C181.333 191.185 181.347 191.176 181.363 191.17C181.378 191.163 181.395 191.16 181.412 191.16C181.447 191.16 181.48 191.173 181.506 191.197C181.531 191.22 181.547 191.253 181.55 191.287C181.762 204.456 182.41 248.986 181.698 268.93C181.008 288.397 175.518 342.665 173.202 365.094C173.201 365.111 173.196 365.127 173.189 365.142C173.181 365.157 173.171 365.171 173.158 365.181C173.145 365.192 173.13 365.2 173.114 365.206C173.098 365.211 173.081 365.213 173.064 365.211Z" fill="#92B3E3"/>
<path opacity="0.2" d="M173.064 365.211C173.029 365.206 172.996 365.188 172.973 365.161C172.949 365.133 172.937 365.098 172.937 365.062C175.273 342.633 180.764 288.375 181.433 268.92C182.144 248.986 181.497 204.467 181.284 191.287C181.284 191.271 181.288 191.254 181.294 191.239C181.3 191.223 181.31 191.209 181.322 191.197C181.333 191.185 181.347 191.176 181.363 191.17C181.378 191.163 181.395 191.16 181.412 191.16C181.447 191.16 181.48 191.173 181.506 191.197C181.531 191.22 181.547 191.253 181.55 191.287C181.762 204.456 182.41 248.986 181.698 268.93C181.008 288.397 175.518 342.665 173.202 365.094C173.201 365.111 173.196 365.127 173.189 365.142C173.181 365.157 173.171 365.171 173.158 365.181C173.145 365.192 173.13 365.2 173.114 365.206C173.098 365.211 173.081 365.213 173.064 365.211Z" fill="black"/>
<path d="M178.353 369.438C178.417 369.438 177.61 374.929 177.61 374.929H161.531L161.096 370.033L178.353 369.438Z" fill="#92B3E3"/>
<path opacity="0.2" d="M178.353 369.438C178.417 369.438 177.61 374.929 177.61 374.929H161.531L161.096 370.033L178.353 369.438Z" fill="black"/>
</svg>
