<svg width="562" height="419" viewBox="0 0 562 419" fill="none" xmlns="http://www.w3.org/2000/svg">
<path d="M561.614 367.745H0V368.025H561.614V367.745Z" fill="#EBEBEB"/>
<path d="M82.7482 378.438H58.9245V378.719H82.7482V378.438Z" fill="#EBEBEB"/>
<path d="M287.67 375.394H192.229V375.675H287.67V375.394Z" fill="#EBEBEB"/>
<path d="M118.815 388.872H76.0088V389.153H118.815V388.872Z" fill="#EBEBEB"/>
<path d="M505.34 386.986H456.828V387.266H505.34V386.986Z" fill="#EBEBEB"/>
<path d="M453.155 386.986H439.71V387.266H453.155V386.986Z" fill="#EBEBEB"/>
<path d="M416.594 382.246H390.76V382.526H416.594V382.246Z" fill="#EBEBEB"/>
<path d="M377.775 382.246H323.366V382.526H377.775V382.246Z" fill="#EBEBEB"/>
<path d="M266.205 317.649H49.3209C47.6219 317.646 45.9934 316.969 44.7931 315.766C43.5927 314.564 42.9185 312.934 42.9185 311.235V6.35747C42.9333 4.66816 43.614 3.05291 44.8128 1.86256C46.0115 0.672205 47.6315 0.00289387 49.3209 0H266.205C267.906 0 269.537 0.67572 270.74 1.87851C271.943 3.0813 272.619 4.71263 272.619 6.41363V311.235C272.619 312.936 271.943 314.567 270.74 315.77C269.537 316.973 267.906 317.649 266.205 317.649ZM49.3209 0.224646C47.6963 0.227622 46.1393 0.875067 44.9916 2.02487C43.8439 3.17468 43.1993 4.73289 43.1993 6.35747V311.235C43.1993 312.86 43.8439 314.418 44.9916 315.568C46.1393 316.717 47.6963 317.365 49.3209 317.368H266.205C267.831 317.365 269.389 316.718 270.538 315.568C271.688 314.419 272.335 312.861 272.338 311.235V6.35747C272.335 4.73185 271.688 3.17367 270.538 2.02419C269.389 0.874703 267.831 0.227616 266.205 0.224646H49.3209Z" fill="#EBEBEB"/>
<path d="M509.17 317.649H292.275C290.575 317.646 288.945 316.969 287.743 315.767C286.541 314.565 285.864 312.935 285.861 311.235V6.35747C285.879 4.66714 286.562 3.0519 287.763 1.86185C288.963 0.671812 290.585 0.00286231 292.275 0H509.17C510.858 0.00584583 512.475 0.676463 513.671 1.8665C514.867 3.05653 515.547 4.6701 515.561 6.35747V311.235C515.561 312.932 514.889 314.56 513.691 315.762C512.493 316.964 510.867 317.643 509.17 317.649ZM292.275 0.224646C290.649 0.227616 289.091 0.874703 287.942 2.02419C286.792 3.17367 286.145 4.73185 286.142 6.35747V311.235C286.145 312.861 286.792 314.419 287.942 315.568C289.091 316.718 290.649 317.365 292.275 317.368H509.17C510.796 317.365 512.354 316.718 513.503 315.568C514.653 314.419 515.3 312.861 515.303 311.235V6.35747C515.3 4.73185 514.653 3.17367 513.503 2.02419C512.354 0.874703 510.796 0.227616 509.17 0.224646H292.275Z" fill="#EBEBEB"/>
<path d="M84.2758 367.745H101.573L101.573 234.62H84.2758L84.2758 367.745Z" fill="#F0F0F0"/>
<path d="M252.973 234.62H101.573V367.745H252.973V234.62Z" fill="#F5F5F5"/>
<path d="M254.344 284.862H121.421V356.063H254.344V284.862Z" fill="#FAFAFA"/>
<path d="M254.344 253.861H121.421V277.302H254.344V253.861Z" fill="#FAFAFA"/>
<g style="mix-blend-mode:multiply" opacity="0.7">
<path d="M120.23 356.063H121.421L121.421 284.862H120.23L120.23 356.063Z" fill="#E6E6E6"/>
</g>
<g style="mix-blend-mode:multiply" opacity="0.7">
<path d="M120.23 277.302H121.421V253.861H120.23V277.302Z" fill="#E6E6E6"/>
</g>
<g style="mix-blend-mode:multiply" opacity="0.7">
<path d="M84.2646 243.246L253.344 243.246V240.236L84.2646 240.236V243.246Z" fill="#E6E6E6"/>
</g>
<path d="M82.254 241.505H101.573V232.8H82.254V241.505Z" fill="#F0F0F0"/>
<path d="M254.995 232.8H101.573V241.505H254.995V232.8Z" fill="#F5F5F5"/>
<path d="M146.974 207.235C146.009 205.859 145.445 204.241 145.346 202.563C145.198 200.865 145.347 199.155 145.784 197.508C146.666 194.251 148.236 191.222 150.389 188.624C151.442 187.358 152.567 186.154 153.759 185.018C154.388 184.49 154.994 183.951 155.634 183.434C156.251 182.906 156.896 182.411 157.566 181.952C158.892 181.032 160.264 180.181 161.677 179.402C163.138 178.683 164.575 177.975 166.103 177.403C164.98 178.661 163.856 179.761 162.733 180.873C161.61 181.985 160.543 183.12 159.42 184.243C158.296 185.366 157.308 186.489 156.23 187.613C155.702 188.163 155.23 188.736 154.736 189.331C154.216 189.875 153.728 190.449 153.276 191.05C151.372 193.325 149.774 195.84 148.524 198.53C147.91 199.84 147.447 201.216 147.143 202.63C146.804 204.142 146.747 205.703 146.974 207.235Z" fill="#E6E6E6"/>
<path d="M120.724 202.529C121.206 201.192 121.453 199.783 121.455 198.362C121.451 197.704 121.403 197.047 121.309 196.396C121.175 195.771 120.999 195.155 120.781 194.554C119.768 192.163 118.233 190.029 116.288 188.309C115.816 187.837 115.254 187.433 114.749 186.984C114.246 186.514 113.709 186.082 113.143 185.692C112.019 184.906 110.952 183.973 109.773 183.243C109.189 182.85 108.65 182.457 108.01 182.042C107.369 181.626 106.886 181.199 106.212 180.828C104.96 180.037 103.749 179.182 102.584 178.267C104.063 178.488 105.529 178.788 106.976 179.166C107.704 179.334 108.418 179.56 109.11 179.84C109.807 180.11 110.503 180.379 111.2 180.671L112.244 181.109C112.581 181.266 112.907 181.469 113.244 181.648C113.906 182.008 114.558 182.401 115.221 182.772C115.883 183.165 116.513 183.608 117.108 184.097C117.703 184.591 118.332 185.029 118.894 185.58C121.331 187.75 123.002 190.649 123.656 193.847C123.742 194.249 123.783 194.66 123.78 195.071C123.78 195.487 123.78 195.902 123.78 196.306C123.707 197.113 123.541 197.908 123.285 198.676C122.805 200.173 121.919 201.507 120.724 202.529Z" fill="#E6E6E6"/>
<path d="M121.926 202.529C122.527 199.551 122.599 196.49 122.14 193.487C121.68 190.648 120.717 187.913 119.298 185.411L118.175 183.558C117.759 182.963 117.287 182.435 116.872 181.806L116.22 180.907L115.468 180.087C114.974 179.537 114.479 178.964 113.996 178.391C112.94 177.324 111.828 176.279 110.75 175.156C109.672 174.033 108.425 173.089 107.313 171.899C108.84 172.404 110.34 172.989 111.806 173.651C113.23 174.424 114.61 175.275 115.939 176.201C116.569 176.717 117.209 177.245 117.827 177.784L118.759 178.593L119.59 179.525C120.129 180.155 120.713 180.784 121.196 181.446L122.544 183.58C124.238 186.543 125.107 189.906 125.06 193.319C125.053 196.649 123.952 199.885 121.926 202.529Z" fill="#E6E6E6"/>
<path d="M145.537 204.192C143.302 201.394 141.416 198.335 139.92 195.082C138.388 191.83 137.151 188.447 136.225 184.973C135.321 181.476 134.801 177.89 134.675 174.28C134.575 170.654 135.127 167.04 136.304 163.609C136.618 167.204 137.011 170.607 137.595 173.988C138.179 177.369 138.999 180.727 139.842 184.097C140.684 187.467 141.673 190.735 142.65 194.071C143.627 197.407 144.616 200.721 145.537 204.192Z" fill="#E6E6E6"/>
<path d="M144.368 203.63C141.699 201.06 139.315 198.209 137.258 195.127C135.177 192.06 133.348 188.83 131.788 185.467C130.226 182.082 128.996 178.554 128.115 174.931C127.236 171.291 126.963 167.53 127.307 163.8C128.43 167.361 129.553 170.731 130.923 174.067C132.294 177.403 133.709 180.637 135.18 183.906C136.652 187.175 138.236 190.398 139.797 193.667C141.358 196.935 142.919 200.204 144.368 203.63Z" fill="#E6E6E6"/>
<path d="M148.94 207.909C145.757 205.992 142.793 203.732 140.1 201.17C137.394 198.643 134.892 195.905 132.62 192.982C130.342 190.03 128.352 186.867 126.678 183.535C125.016 180.18 123.912 176.575 123.409 172.865C125.307 176.077 127.194 179.099 129.227 182.053C131.26 185.007 133.406 187.849 135.574 190.702C137.741 193.555 140.067 196.318 142.246 199.182C144.425 202.046 146.761 204.899 148.94 207.909Z" fill="#E6E6E6"/>
<path d="M142.066 203.012C138.994 201.478 136.139 199.544 133.574 197.261C130.99 195.001 128.635 192.491 126.543 189.769C124.445 187.024 122.67 184.047 121.252 180.896C119.84 177.735 118.989 174.352 118.736 170.899C120.455 173.898 122.027 176.762 123.847 179.503C125.667 182.244 127.52 184.906 129.463 187.5C131.406 190.095 133.507 192.667 135.618 195.217C137.73 197.767 139.932 200.328 142.066 203.012Z" fill="#E6E6E6"/>
<path d="M147.558 206.146C146.297 205.248 145.235 204.099 144.438 202.771C143.642 201.443 143.129 199.965 142.931 198.429C142.513 195.297 143.021 192.111 144.391 189.264L144.863 188.208L145.436 187.22L146.637 185.276C147.102 184.677 147.573 184.093 148.053 183.524C148.515 182.939 149.014 182.383 149.547 181.862C150.611 180.833 151.736 179.869 152.916 178.975C154.12 178.124 155.373 177.344 156.668 176.639C155.917 177.885 155.103 179.092 154.23 180.256C153.399 181.379 152.658 182.614 151.827 183.726C150.996 184.838 150.378 186.074 149.58 187.208L148.648 188.983L148.154 189.859L147.783 190.769C146.638 193.107 145.97 195.65 145.817 198.25C145.723 200.986 146.322 203.703 147.558 206.146Z" fill="#E6E6E6"/>
<path d="M145.48 202.563C143.22 200.36 141.578 197.602 140.718 194.566C139.774 191.417 139.728 188.068 140.583 184.895C141.009 183.307 141.672 181.792 142.549 180.402C143.399 179.023 144.435 177.769 145.626 176.672C147.912 174.521 150.67 172.936 153.68 172.045C151.572 174.085 149.613 176.273 147.817 178.593C146.989 179.699 146.26 180.875 145.638 182.109C145.016 183.305 144.53 184.567 144.189 185.872C143.481 188.513 143.279 191.265 143.593 193.981C143.918 196.9 144.55 199.777 145.48 202.563Z" fill="#E6E6E6"/>
<path d="M139.988 199.901L122.409 183.03L123.117 199.575L139.988 199.901Z" fill="#E6E6E6"/>
<path d="M159.195 198.104H112.502L118.613 232.8H153.085L159.195 198.104Z" fill="#F5F5F5"/>
<path d="M130.025 198.104H112.502L118.613 232.8H127.823L130.025 198.104Z" fill="#EBEBEB"/>
<path d="M207.629 24.52H113.379V142.998H207.629V24.52Z" fill="#F0F0F0"/>
<path d="M228.442 24.52H116.995V142.998H228.442V24.52Z" fill="#F5F5F5"/>
<path d="M126.329 33.8428V133.653H219.108V33.8428H126.329Z" fill="white"/>
<path d="M489.098 367.745H345.718L332.992 130.688H476.372L489.098 367.745Z" fill="#EBEBEB"/>
<path d="M493.479 367.745H350.099L337.373 130.688H480.753L493.479 367.745Z" fill="#F5F5F5"/>
<path d="M421.57 343.292H408.765L409.282 155.14H422.086L421.57 343.292Z" fill="white"/>
<path d="M455.435 343.292H442.63L443.158 155.14H455.952L455.435 343.292Z" fill="white"/>
<path d="M387.693 343.292H374.888L375.416 155.14H388.221L387.693 343.292Z" fill="white"/>
<path d="M280.807 418.47C401.085 418.47 498.589 412.777 498.589 405.755C498.589 398.732 401.085 393.04 280.807 393.04C160.529 393.04 63.0243 398.732 63.0243 405.755C63.0243 412.777 160.529 418.47 280.807 418.47Z" fill="#F5F5F5"/>
<path d="M434.435 268.558L432.985 295.004L434.106 295.066L435.557 268.62L434.435 268.558Z" fill="#6C75C7"/>
<path d="M435.674 246.124L434.927 259.751L436.048 259.813L436.796 246.186L435.674 246.124Z" fill="#6C75C7"/>
<path d="M412 345.415H280.335C278.343 345.439 276.368 345.052 274.533 344.276C272.699 343.501 271.044 342.355 269.673 340.911C268.302 339.466 267.244 337.753 266.566 335.88C265.888 334.007 265.605 332.014 265.733 330.027L280.897 53.5779C281.179 49.4349 283.012 45.5503 286.03 42.6984C289.049 39.8465 293.031 38.2366 297.184 38.1897H428.859C430.846 38.1749 432.814 38.5694 434.642 39.3485C436.469 40.1277 438.116 41.2748 439.481 42.7185C440.846 44.1622 441.898 45.8714 442.574 47.7397C443.249 49.6081 443.532 51.5954 443.405 53.5779L428.23 330.027C427.952 334.161 426.127 338.039 423.12 340.89C420.113 343.741 416.143 345.357 412 345.415Z" fill="#6C75C7"/>
<path opacity="0.8" d="M404.036 345.415H280.335C278.343 345.439 276.368 345.052 274.533 344.277C272.699 343.501 271.044 342.355 269.673 340.911C268.302 339.466 267.244 337.753 266.566 335.88C265.888 334.007 265.605 332.014 265.733 330.027L280.897 53.578C281.179 49.4349 283.012 45.5503 286.03 42.6984C289.049 39.8465 293.031 38.2367 297.184 38.1898H420.896C422.883 38.1733 424.852 38.5666 426.68 39.3452C428.508 40.1238 430.156 41.2709 431.521 42.7149C432.886 44.1589 433.939 45.8689 434.613 47.7379C435.288 49.607 435.57 51.5951 435.442 53.578L420.278 330.027C419.994 334.161 418.166 338.038 415.158 340.888C412.15 343.739 408.18 345.354 404.036 345.415Z" fill="white"/>
<path d="M342.73 88.3081H307.203C306.364 88.3146 305.532 88.148 304.761 87.8185C303.989 87.4891 303.294 87.004 302.718 86.3936C302.143 85.7832 301.699 85.0606 301.415 84.271C301.132 83.4814 301.014 82.6418 301.07 81.8047C301.188 80.0599 301.959 78.4235 303.228 77.2206C304.497 76.0178 306.173 75.3366 307.922 75.3124H343.449C344.288 75.3044 345.119 75.4696 345.89 75.7978C346.662 76.1259 347.357 76.61 347.933 77.2195C348.509 77.829 348.953 78.5509 349.236 79.3399C349.52 80.1289 349.638 80.968 349.582 81.8047C349.464 83.5505 348.694 85.1882 347.425 86.3929C346.156 87.5975 344.48 88.2811 342.73 88.3081Z" fill="white"/>
<path d="M349.582 81.8047C349.381 84.954 347.995 87.9104 345.702 90.0796C343.41 92.2487 340.382 93.4699 337.227 93.4975C335.715 93.5149 334.217 93.2193 332.825 92.6294C331.434 92.0395 330.18 91.1679 329.142 90.0696C328.103 88.9713 327.304 87.67 326.793 86.2476C326.282 84.8252 326.072 83.3125 326.174 81.8047C326.375 78.6553 327.761 75.6989 330.053 73.5298C332.346 71.3606 335.374 70.1395 338.529 70.1119C340.041 70.0944 341.539 70.39 342.931 70.9799C344.322 71.5699 345.576 72.4414 346.614 73.5397C347.653 74.638 348.452 75.9393 348.963 77.3617C349.474 78.7841 349.684 80.2968 349.582 81.8047Z" fill="#6C75C7"/>
<path d="M340.45 129.879H304.922C304.084 129.885 303.252 129.719 302.481 129.389C301.709 129.06 301.014 128.575 300.438 127.964C299.862 127.354 299.419 126.631 299.135 125.842C298.852 125.052 298.734 124.212 298.79 123.375C298.908 121.631 299.678 119.994 300.948 118.791C302.217 117.588 303.893 116.907 305.641 116.883H341.169C342.007 116.875 342.839 117.04 343.61 117.368C344.382 117.697 345.077 118.181 345.653 118.79C346.229 119.4 346.672 120.122 346.956 120.911C347.24 121.7 347.358 122.539 347.302 123.375C347.184 125.121 346.414 126.759 345.145 127.963C343.875 129.168 342.2 129.852 340.45 129.879Z" fill="white"/>
<path d="M327.86 131.557C332.617 126.929 332.922 119.525 328.54 115.021C324.158 110.517 316.749 110.617 311.992 115.246C307.234 119.874 306.929 127.278 311.311 131.782C315.693 136.286 323.102 136.186 327.86 131.557Z" fill="#6C75C7"/>
<path opacity="0.3" d="M327.86 131.557C332.617 126.929 332.922 119.525 328.54 115.021C324.158 110.517 316.749 110.617 311.992 115.246C307.234 119.874 306.929 127.278 311.311 131.782C315.693 136.286 323.102 136.186 327.86 131.557Z" fill="#FAFAFA"/>
<path d="M300.362 213.02H335.845C337.595 212.993 339.27 212.309 340.539 211.105C341.808 209.9 342.578 208.262 342.697 206.517C342.752 205.679 342.634 204.839 342.35 204.049C342.066 203.259 341.621 202.537 341.044 201.927C340.467 201.318 339.77 200.834 338.997 200.506C338.224 200.179 337.392 200.015 336.553 200.024H301.081C299.331 200.048 297.654 200.729 296.383 201.932C295.112 203.134 294.339 204.771 294.218 206.517C294.164 207.354 294.283 208.194 294.568 208.984C294.853 209.773 295.298 210.496 295.874 211.106C296.451 211.716 297.147 212.201 297.919 212.531C298.691 212.86 299.523 213.026 300.362 213.02Z" fill="white"/>
<path d="M313.855 214.682C318.613 210.053 318.918 202.65 314.536 198.145C310.154 193.641 302.745 193.742 297.987 198.37C293.23 202.998 292.925 210.402 297.307 214.906C301.688 219.411 309.098 219.31 313.855 214.682Z" fill="#6C75C7"/>
<path opacity="0.7" d="M313.855 214.682C318.613 210.053 318.918 202.65 314.536 198.145C310.154 193.641 302.745 193.742 297.987 198.37C293.23 202.998 292.925 210.402 297.307 214.906C301.688 219.411 309.098 219.31 313.855 214.682Z" fill="#FAFAFA"/>
<path d="M333.598 254.591H298.082C297.243 254.597 296.411 254.43 295.639 254.101C294.866 253.772 294.17 253.287 293.594 252.677C293.017 252.066 292.573 251.344 292.288 250.554C292.003 249.765 291.884 248.925 291.938 248.087C292.059 246.341 292.832 244.705 294.103 243.502C295.374 242.3 297.051 241.619 298.801 241.595H334.317C335.157 241.585 335.989 241.749 336.762 242.077C337.535 242.404 338.232 242.888 338.809 243.498C339.386 244.108 339.83 244.83 340.115 245.62C340.399 246.41 340.517 247.25 340.461 248.087C340.343 249.835 339.571 251.474 338.3 252.679C337.028 253.884 335.35 254.566 333.598 254.591Z" fill="white"/>
<path d="M340.461 248.087C340.26 251.237 338.874 254.193 336.582 256.362C334.29 258.531 331.262 259.752 328.106 259.78C326.594 259.797 325.095 259.502 323.703 258.912C322.311 258.322 321.056 257.451 320.017 256.353C318.978 255.255 318.178 253.953 317.666 252.531C317.154 251.109 316.941 249.596 317.042 248.087C317.249 244.94 318.636 241.986 320.927 239.818C323.218 237.65 326.244 236.427 329.398 236.394C330.91 236.375 332.409 236.67 333.802 237.259C335.195 237.848 336.451 238.72 337.49 239.818C338.529 240.917 339.33 242.218 339.841 243.642C340.353 245.065 340.564 246.578 340.461 248.087Z" fill="#6C75C7"/>
<path d="M302.642 171.449H338.17C339.92 171.422 341.595 170.739 342.864 169.534C344.134 168.329 344.904 166.692 345.022 164.946C345.078 164.108 344.96 163.268 344.675 162.478C344.391 161.689 343.946 160.966 343.369 160.357C342.792 159.747 342.095 159.263 341.322 158.936C340.549 158.608 339.717 158.444 338.878 158.454H303.361C301.613 158.478 299.937 159.159 298.668 160.362C297.398 161.565 296.628 163.201 296.51 164.946C296.454 165.783 296.572 166.623 296.855 167.412C297.139 168.202 297.582 168.924 298.158 169.535C298.733 170.145 299.429 170.63 300.2 170.96C300.972 171.289 301.803 171.456 302.642 171.449Z" fill="white"/>
<path d="M296.532 164.946C296.43 166.454 296.641 167.967 297.151 169.389C297.662 170.811 298.462 172.113 299.5 173.211C300.538 174.309 301.792 175.181 303.184 175.771C304.575 176.361 306.073 176.656 307.585 176.639C310.74 176.611 313.769 175.39 316.061 173.221C318.353 171.052 319.739 168.095 319.94 164.946C320.043 163.438 319.832 161.925 319.321 160.503C318.81 159.081 318.011 157.779 316.973 156.681C315.934 155.583 314.68 154.711 313.289 154.121C311.897 153.531 310.399 153.236 308.888 153.253C305.732 153.281 302.704 154.502 300.412 156.671C298.12 158.84 296.733 161.797 296.532 164.946Z" fill="#6C75C7"/>
<path opacity="0.7" d="M296.532 164.946C296.43 166.454 296.641 167.967 297.151 169.389C297.662 170.811 298.462 172.113 299.5 173.211C300.538 174.309 301.792 175.181 303.184 175.771C304.575 176.361 306.073 176.656 307.585 176.639C310.74 176.611 313.769 175.39 316.061 173.221C318.353 171.052 319.739 168.095 319.94 164.946C320.043 163.438 319.832 161.925 319.321 160.503C318.81 159.081 318.011 157.779 316.973 156.681C315.934 155.583 314.68 154.711 313.289 154.121C311.897 153.531 310.399 153.236 308.888 153.253C305.732 153.281 302.704 154.502 300.412 156.671C298.12 158.84 296.733 161.797 296.532 164.946Z" fill="#FAFAFA"/>
<path d="M420.547 79.8615H367.891C367.555 79.8622 367.224 79.794 366.916 79.6613C366.608 79.5285 366.331 79.3339 366.101 79.0896C365.872 78.8453 365.695 78.5565 365.581 78.241C365.468 77.9255 365.42 77.5901 365.442 77.2556C365.49 76.5581 365.798 75.9041 366.306 75.4234C366.814 74.9427 367.484 74.6706 368.183 74.6609H420.84C421.174 74.6587 421.506 74.7254 421.814 74.8569C422.121 74.9885 422.399 75.182 422.629 75.4254C422.858 75.6688 423.035 75.9569 423.149 76.2718C423.262 76.5867 423.31 76.9216 423.288 77.2556C423.243 77.9551 422.936 78.6119 422.428 79.0949C421.92 79.5779 421.248 79.8516 420.547 79.8615Z" fill="white"/>
<path d="M403.003 88.9596H367.396C367.06 88.9618 366.727 88.8948 366.418 88.7627C366.109 88.6306 365.83 88.4363 365.6 88.1918C365.369 87.9473 365.191 87.658 365.077 87.3417C364.963 87.0255 364.915 86.6892 364.937 86.3537C364.984 85.6562 365.293 85.0022 365.801 84.5215C366.308 84.0408 366.978 83.7687 367.677 83.759H403.295C403.63 83.7569 403.962 83.8236 404.27 83.955C404.579 84.0864 404.857 84.2797 405.087 84.5229C405.318 84.7662 405.496 85.0542 405.611 85.3691C405.726 85.684 405.775 86.0191 405.755 86.3537C405.707 87.0542 405.397 87.711 404.887 88.1938C404.378 88.6766 403.705 88.9499 403.003 88.9596Z" fill="white"/>
<path d="M404.777 246.144H358.725C358.39 246.145 358.058 246.077 357.75 245.944C357.443 245.811 357.165 245.617 356.936 245.372C356.706 245.128 356.529 244.839 356.416 244.524C356.302 244.208 356.255 243.873 356.277 243.538C356.322 242.84 356.629 242.184 357.138 241.703C357.646 241.222 358.317 240.951 359.017 240.944H405.013C405.349 240.941 405.681 241.008 405.989 241.139C406.297 241.271 406.575 241.464 406.806 241.707C407.037 241.951 407.215 242.239 407.33 242.554C407.444 242.868 407.493 243.204 407.473 243.538C407.426 244.229 407.125 244.878 406.627 245.36C406.129 245.841 405.47 246.121 404.777 246.144Z" fill="white"/>
<path d="M381.01 255.231H358.309C357.974 255.233 357.642 255.166 357.334 255.035C357.026 254.904 356.747 254.71 356.517 254.467C356.286 254.224 356.108 253.936 355.993 253.621C355.878 253.306 355.83 252.971 355.85 252.636C355.897 251.939 356.206 251.285 356.714 250.804C357.221 250.323 357.891 250.051 358.59 250.042H381.324C381.66 250.04 381.992 250.106 382.3 250.238C382.608 250.369 382.886 250.562 383.117 250.806C383.348 251.049 383.526 251.337 383.641 251.652C383.755 251.967 383.804 252.302 383.784 252.636C383.736 253.34 383.423 253.998 382.908 254.48C382.393 254.961 381.715 255.23 381.01 255.231Z" fill="white"/>
<path d="M418.054 125.33H365.397C364.698 125.339 364.028 125.612 363.52 126.092C363.013 126.573 362.704 127.227 362.656 127.924C362.636 128.259 362.685 128.594 362.8 128.909C362.915 129.224 363.093 129.512 363.324 129.755C363.554 129.998 363.832 130.192 364.141 130.323C364.449 130.454 364.781 130.521 365.116 130.519H417.773C418.472 130.509 419.142 130.237 419.65 129.757C420.158 129.276 420.466 128.622 420.514 127.924C420.534 127.59 420.485 127.255 420.37 126.94C420.255 126.625 420.077 126.337 419.846 126.094C419.616 125.85 419.338 125.657 419.029 125.526C418.721 125.394 418.389 125.328 418.054 125.33Z" fill="white"/>
<path d="M401.509 116.232H365.903C365.204 116.241 364.534 116.513 364.026 116.994C363.518 117.475 363.21 118.129 363.162 118.826C363.14 119.161 363.188 119.496 363.301 119.812C363.415 120.127 363.591 120.416 363.821 120.66C364.051 120.905 364.328 121.099 364.636 121.232C364.944 121.365 365.275 121.433 365.611 121.432H401.228C401.928 121.42 402.598 121.145 403.106 120.663C403.613 120.18 403.921 119.525 403.969 118.826C403.99 118.491 403.943 118.155 403.829 117.84C403.714 117.524 403.536 117.236 403.305 116.992C403.074 116.748 402.796 116.555 402.486 116.424C402.177 116.293 401.845 116.228 401.509 116.232Z" fill="white"/>
<path d="M390.344 163.003H363.387C363.051 163.003 362.72 162.935 362.412 162.803C362.104 162.67 361.827 162.475 361.597 162.231C361.367 161.987 361.191 161.698 361.077 161.382C360.964 161.067 360.916 160.731 360.938 160.397C360.983 159.698 361.291 159.043 361.799 158.562C362.307 158.081 362.979 157.809 363.679 157.802H390.636C390.974 157.795 391.31 157.859 391.622 157.988C391.934 158.117 392.217 158.31 392.451 158.554C392.685 158.797 392.866 159.087 392.983 159.404C393.1 159.721 393.15 160.059 393.13 160.397C393.081 161.103 392.767 161.765 392.25 162.248C391.733 162.732 391.052 163.002 390.344 163.003Z" fill="white"/>
<path d="M415.987 163.003H400.082C399.746 163.005 399.413 162.938 399.104 162.806C398.795 162.674 398.516 162.48 398.285 162.235C398.055 161.991 397.877 161.701 397.763 161.385C397.649 161.069 397.601 160.732 397.622 160.397C397.67 159.699 397.979 159.045 398.486 158.565C398.994 158.084 399.664 157.812 400.363 157.802H416.279C416.614 157.8 416.946 157.867 417.253 157.998C417.561 158.13 417.839 158.323 418.068 158.567C418.298 158.81 418.475 159.098 418.589 159.413C418.702 159.728 418.75 160.063 418.728 160.397C418.68 161.095 418.372 161.751 417.865 162.233C417.357 162.716 416.687 162.99 415.987 163.003Z" fill="white"/>
<path d="M398.442 172.09H362.802C362.467 172.092 362.135 172.025 361.827 171.894C361.518 171.762 361.24 171.569 361.01 171.326C360.779 171.082 360.601 170.794 360.486 170.48C360.371 170.165 360.323 169.83 360.342 169.495C360.39 168.797 360.699 168.143 361.206 167.663C361.714 167.182 362.384 166.91 363.083 166.9H398.746C399.081 166.898 399.413 166.965 399.721 167.096C400.03 167.228 400.308 167.421 400.538 167.664C400.769 167.907 400.947 168.195 401.062 168.51C401.177 168.825 401.226 169.16 401.206 169.495C401.157 170.196 400.846 170.854 400.333 171.335C399.821 171.816 399.145 172.086 398.442 172.09Z" fill="white"/>
<path d="M353.817 291.702H293.162C292.691 291.713 292.222 291.625 291.786 291.443C291.351 291.261 290.958 290.99 290.634 290.647C290.31 290.304 290.062 289.897 289.905 289.452C289.749 289.006 289.687 288.533 289.725 288.063C289.793 287.085 290.225 286.168 290.937 285.494C291.648 284.82 292.587 284.438 293.567 284.424H354.221C354.693 284.413 355.162 284.501 355.597 284.683C356.033 284.864 356.425 285.136 356.749 285.479C357.073 285.822 357.321 286.229 357.478 286.674C357.635 287.119 357.696 287.593 357.658 288.063C357.593 289.042 357.162 289.96 356.45 290.634C355.737 291.309 354.797 291.69 353.817 291.702Z" fill="white"/>
<path d="M407.889 291.702H370.665C370.193 291.713 369.724 291.625 369.289 291.443C368.853 291.261 368.461 290.99 368.137 290.647C367.813 290.304 367.565 289.897 367.408 289.452C367.251 289.006 367.19 288.533 367.228 288.063C367.295 287.085 367.728 286.168 368.439 285.494C369.151 284.82 370.089 284.438 371.069 284.424H408.293C408.765 284.413 409.234 284.501 409.669 284.683C410.105 284.864 410.497 285.136 410.821 285.479C411.145 285.822 411.394 286.229 411.55 286.674C411.707 287.119 411.768 287.593 411.73 288.063C411.663 289.041 411.23 289.957 410.519 290.631C409.807 291.305 408.869 291.688 407.889 291.702Z" fill="white"/>
<path d="M338.653 304.395H292.488C292.017 304.406 291.548 304.317 291.112 304.136C290.677 303.954 290.284 303.683 289.96 303.339C289.636 302.996 289.388 302.589 289.231 302.144C289.075 301.699 289.013 301.226 289.051 300.755C289.116 299.777 289.548 298.858 290.26 298.184C290.972 297.509 291.912 297.128 292.893 297.116H339.046C339.518 297.105 339.987 297.193 340.422 297.375C340.858 297.557 341.25 297.828 341.574 298.171C341.898 298.514 342.147 298.922 342.303 299.367C342.46 299.812 342.521 300.285 342.483 300.755C342.418 301.732 341.988 302.649 341.279 303.323C340.569 303.997 339.632 304.38 338.653 304.395Z" fill="white"/>
<path d="M388.783 317.154H291.792C291.32 317.165 290.851 317.077 290.416 316.895C289.98 316.714 289.588 316.442 289.264 316.099C288.94 315.756 288.692 315.349 288.535 314.904C288.378 314.459 288.317 313.986 288.355 313.515C288.42 312.538 288.85 311.622 289.559 310.948C290.269 310.273 291.206 309.891 292.185 309.876H389.176C389.648 309.865 390.116 309.953 390.552 310.135C390.987 310.317 391.38 310.588 391.704 310.931C392.028 311.274 392.276 311.681 392.433 312.127C392.589 312.572 392.651 313.045 392.613 313.515C392.548 314.492 392.118 315.409 391.409 316.083C390.699 316.757 389.762 317.14 388.783 317.154Z" fill="white"/>
<path d="M376.427 208.471H360.837C360.138 208.481 359.468 208.753 358.96 209.233C358.452 209.714 358.144 210.368 358.096 211.066C358.076 211.4 358.125 211.735 358.24 212.05C358.355 212.365 358.533 212.653 358.763 212.896C358.994 213.14 359.272 213.333 359.58 213.464C359.889 213.596 360.221 213.662 360.556 213.66H376.146C376.846 213.651 377.515 213.378 378.023 212.898C378.531 212.417 378.839 211.763 378.887 211.066C378.907 210.731 378.858 210.396 378.743 210.081C378.629 209.766 378.45 209.478 378.22 209.235C377.989 208.992 377.711 208.798 377.403 208.667C377.094 208.536 376.762 208.469 376.427 208.471Z" fill="white"/>
<path d="M404.238 208.471H386.166C385.466 208.481 384.797 208.753 384.289 209.233C383.781 209.714 383.473 210.368 383.425 211.066C383.405 211.4 383.454 211.735 383.569 212.05C383.683 212.365 383.862 212.653 384.092 212.896C384.323 213.14 384.601 213.333 384.909 213.464C385.218 213.596 385.55 213.662 385.885 213.66H403.958C404.657 213.651 405.327 213.379 405.834 212.898C406.342 212.417 406.65 211.763 406.698 211.066C406.72 210.731 406.672 210.395 406.558 210.079C406.444 209.764 406.266 209.475 406.035 209.231C405.804 208.988 405.525 208.794 405.216 208.664C404.907 208.533 404.574 208.467 404.238 208.471Z" fill="white"/>
<path d="M396.948 199.373H361.342C360.642 199.38 359.971 199.651 359.463 200.132C358.954 200.614 358.647 201.269 358.601 201.968C358.58 202.302 358.627 202.637 358.741 202.953C358.854 203.268 359.031 203.557 359.261 203.802C359.49 204.046 359.767 204.24 360.075 204.373C360.383 204.506 360.715 204.574 361.05 204.573H396.668C397.368 204.561 398.038 204.286 398.545 203.804C399.053 203.321 399.361 202.666 399.408 201.968C399.428 201.633 399.379 201.298 399.265 200.983C399.15 200.668 398.972 200.38 398.741 200.137C398.51 199.894 398.232 199.7 397.924 199.569C397.616 199.437 397.284 199.371 396.948 199.373Z" fill="white"/>
<path d="M199.934 132.687C196.261 135.731 192.465 139.044 188.972 142.369C187.22 144.043 185.512 145.739 183.928 147.491C182.393 149.138 180.985 150.899 179.716 152.759L179.503 153.073L179.402 153.253C179.309 153.395 179.23 153.546 179.166 153.702C179.009 154.051 178.863 154.489 178.705 154.949C178.406 155.97 178.174 157.01 178.009 158.061C177.659 160.406 177.434 162.768 177.335 165.137C177.099 169.989 177.099 175.055 177.189 180.008L171.932 180.795C170.616 175.713 169.714 170.533 169.237 165.305C168.986 162.591 168.922 159.863 169.046 157.14C169.135 155.668 169.323 154.205 169.607 152.759C169.764 151.944 169.978 151.141 170.248 150.355C170.416 149.917 170.54 149.513 170.764 149.052L171.079 148.378C171.191 148.176 171.27 148.053 171.36 147.873C172.735 145.388 174.341 143.037 176.156 140.853C177.838 138.756 179.626 136.747 181.514 134.832C185.21 131.047 189.158 127.516 193.33 124.263L199.934 132.687Z" fill="#B55B52"/>
<path d="M197.969 119.219C192.218 122.589 183.524 131.35 183.524 131.35L194.184 144.144C194.184 144.144 209.313 135.068 211.156 130.07C214.233 121.657 203.405 115.996 197.969 119.219Z" fill="#6C75C7"/>
<path d="M176.953 178.11L178.256 185.714L171.191 184.692C171.191 184.692 169.742 179.525 173.437 177.751L176.953 178.11Z" fill="#B55B52"/>
<path d="M175.65 190.342L169.293 188.365L171.191 184.692L178.256 185.714L175.65 190.342Z" fill="#B55B52"/>
<path d="M240.73 92.3517C240.73 93.1268 241.157 93.7558 241.674 93.767C242.19 93.7782 242.584 93.1492 242.572 92.3854C242.561 91.6216 242.145 90.9814 241.629 90.9702C241.112 90.9589 240.719 91.588 240.73 92.3517Z" fill="#263238"/>
<path d="M241.404 90.9814L243.28 90.476C243.28 90.476 242.336 91.9361 241.404 90.9814Z" fill="#263238"/>
<path d="M241.393 93.1155C242.116 94.895 243.075 96.5687 244.246 98.0914C243.845 98.3654 243.389 98.5494 242.91 98.6308C242.431 98.7122 241.941 98.6892 241.471 98.5632L241.393 93.1155Z" fill="#A02724"/>
<path d="M241.707 87.2186C241.634 87.2405 241.556 87.2405 241.483 87.2186C240.929 87.0166 240.336 86.947 239.751 87.0152C239.166 87.0835 238.605 87.2878 238.113 87.6117C238.065 87.6489 238.011 87.6761 237.953 87.6918C237.894 87.7074 237.834 87.7111 237.774 87.7027C237.714 87.6944 237.657 87.674 237.605 87.6429C237.553 87.6119 237.508 87.5707 237.473 87.5219C237.401 87.4248 237.37 87.3032 237.386 87.1834C237.403 87.0636 237.467 86.9552 237.563 86.8817C238.171 86.4768 238.865 86.2184 239.59 86.1268C240.315 86.0352 241.051 86.1129 241.741 86.3537C241.855 86.3923 241.949 86.4737 242.004 86.5807C242.058 86.6878 242.069 86.8119 242.033 86.9266C242.006 86.9975 241.962 87.0608 241.905 87.1116C241.849 87.1623 241.781 87.199 241.707 87.2186Z" fill="#263238"/>
<path d="M217.839 100.596C218.356 106.403 216.412 115.917 212.032 119.152C212.032 119.152 215.334 125.262 225.915 126.689C237.563 128.25 232.093 121.702 232.093 121.702C225.904 119.343 226.555 114.682 228.128 110.469L217.839 100.596Z" fill="#B55B52"/>
<path d="M238.517 126.217C244.055 127.722 249.873 129.171 255.579 130.463C258.455 131.081 261.33 131.586 264.206 132.204C267.081 132.822 269.968 133.215 272.832 133.585L273.955 133.731L274.696 133.81C275.213 133.81 275.82 133.81 276.381 133.81C277.687 133.719 278.985 133.543 280.268 133.282C283.049 132.708 285.797 131.984 288.501 131.114C294.038 129.385 299.655 127.295 305.147 125.139L307.641 129.823C302.464 133.211 297.029 136.189 291.388 138.73C288.469 140.049 285.468 141.174 282.402 142.099C280.763 142.586 279.093 142.961 277.403 143.223C276.472 143.35 275.535 143.428 274.595 143.459H273.068L271.945 143.369C265.759 142.94 259.606 142.122 253.524 140.92C247.459 139.79 241.46 138.336 235.552 136.562L238.517 126.217Z" fill="#B55B52"/>
<path d="M303.687 127.037L305.316 121.522L311.302 123.768C311.302 123.768 309.932 132.058 304.799 129.766L303.687 127.037Z" fill="#B55B52"/>
<path d="M308.786 117.86L314.897 118.545L311.302 123.768L305.316 121.522L308.786 117.86Z" fill="#B55B52"/>
<path d="M200.653 395.23L210.28 395.938L213.144 373.833L203.518 373.125L200.653 395.23Z" fill="#B55B52"/>
<path d="M129.665 352.379L136.202 359.635L154.466 347.01L147.929 339.765L129.665 352.379Z" fill="#B55B52"/>
<path d="M141.044 363.746C140.928 363.761 140.811 363.761 140.696 363.746C139.572 363.364 138.73 361.196 138.359 359.938C138.347 359.895 138.347 359.85 138.361 359.807C138.375 359.765 138.4 359.727 138.435 359.7C138.47 359.672 138.513 359.655 138.557 359.652C138.602 359.648 138.646 359.658 138.685 359.68C139.033 359.86 142.133 361.544 142.234 362.78C142.245 362.914 142.221 363.049 142.164 363.171C142.107 363.294 142.019 363.399 141.909 363.476C141.659 363.662 141.354 363.757 141.044 363.746ZM138.966 360.298C139.527 361.96 140.213 363.05 140.842 363.252C140.978 363.291 141.122 363.293 141.26 363.26C141.398 363.227 141.524 363.158 141.628 363.061C141.678 363.028 141.719 362.983 141.746 362.93C141.774 362.877 141.787 362.817 141.785 362.758C141.729 362.106 140.19 361.005 138.966 360.298Z" fill="#6C75C7"/>
<path d="M141.414 360.747C140.388 360.727 139.378 360.477 138.46 360.017C138.426 359.995 138.399 359.965 138.379 359.93C138.359 359.894 138.349 359.855 138.348 359.815C138.347 359.774 138.358 359.734 138.38 359.7C138.402 359.666 138.434 359.639 138.472 359.624C138.561 359.568 140.943 358.253 142.257 358.703C142.428 358.757 142.586 358.849 142.718 358.971C142.85 359.094 142.953 359.243 143.021 359.41C143.111 359.57 143.142 359.756 143.109 359.937C143.076 360.117 142.981 360.281 142.841 360.399C142.418 360.671 141.915 360.794 141.414 360.747ZM139.078 359.815C140.201 360.275 142.043 360.489 142.549 360.062C142.627 359.983 142.717 359.871 142.549 359.59C142.507 359.483 142.442 359.386 142.359 359.306C142.275 359.226 142.175 359.166 142.066 359.13C141.023 359.048 139.981 359.287 139.078 359.815Z" fill="#6C75C7"/>
<path d="M139.134 358.568L133.743 348.998C133.654 348.833 133.508 348.705 133.333 348.639C133.157 348.573 132.964 348.573 132.788 348.639L124.824 351.694C124.621 351.784 124.439 351.917 124.291 352.083C124.142 352.25 124.032 352.446 123.966 352.659C123.9 352.872 123.88 353.096 123.908 353.317C123.936 353.538 124.011 353.75 124.128 353.94C126.071 357.242 127.161 358.736 129.531 362.926C130.991 365.509 133.237 371.159 134.967 374.877C136.697 378.595 140.359 377.124 139.965 375.439C138.645 370.497 138.46 365.321 139.426 360.298C139.535 359.705 139.431 359.092 139.134 358.568Z" fill="#263238"/>
<path d="M214.469 396.252C213.45 396.232 212.435 396.119 211.436 395.915C211.391 395.905 211.349 395.881 211.317 395.847C211.286 395.813 211.264 395.77 211.257 395.724C211.249 395.677 211.257 395.628 211.28 395.586C211.302 395.544 211.337 395.509 211.38 395.488C211.818 395.264 215.727 393.242 216.884 393.95C216.993 394.01 217.085 394.097 217.15 394.204C217.215 394.31 217.251 394.432 217.255 394.556C217.276 394.766 217.247 394.977 217.168 395.173C217.09 395.369 216.965 395.542 216.805 395.679C216.113 396.126 215.29 396.328 214.469 396.252ZM212.223 395.589C214.345 395.938 215.929 395.848 216.536 395.32C216.637 395.229 216.716 395.116 216.765 394.989C216.814 394.862 216.831 394.725 216.817 394.59C216.818 394.54 216.806 394.492 216.782 394.448C216.759 394.405 216.724 394.368 216.682 394.343C216.019 393.994 213.806 394.826 212.2 395.589H212.223Z" fill="#6C75C7"/>
<path d="M211.481 395.915C211.438 395.93 211.39 395.93 211.346 395.915C211.313 395.894 211.287 395.863 211.271 395.827C211.256 395.792 211.25 395.752 211.257 395.713C211.257 395.533 211.717 391.602 213.874 391.602H214.065C214.682 391.658 214.862 391.973 214.907 392.231C215.087 393.354 212.751 395.41 211.537 395.926C211.518 395.926 211.499 395.922 211.481 395.915ZM213.885 392.006C212.492 392.006 211.942 394.253 211.773 395.275C212.975 394.556 214.559 392.927 214.458 392.265C214.458 392.265 214.458 392.063 214.02 392.018L213.885 392.006Z" fill="#6C75C7"/>
<path d="M210.886 394.567H200.058C199.87 394.567 199.688 394.634 199.544 394.755C199.4 394.876 199.304 395.045 199.272 395.23L197.823 403.789C197.794 404.003 197.811 404.222 197.874 404.429C197.936 404.636 198.042 404.827 198.185 404.99C198.328 405.153 198.503 405.283 198.7 405.373C198.898 405.462 199.112 405.508 199.328 405.508C203.102 405.44 204.944 405.216 209.684 405.216C212.605 405.216 218.67 405.519 222.702 405.519C226.735 405.519 227.06 401.531 225.387 401.161C217.884 399.543 214.963 397.297 212.481 395.163C212.036 394.782 211.471 394.572 210.886 394.567Z" fill="#263238"/>
<path opacity="0.2" d="M213.144 373.844L211.549 386.132L202.035 384.537L203.506 373.125L213.144 373.844Z" fill="black"/>
<path opacity="0.2" d="M147.918 339.765L154.455 347.021L146.907 352.233L140.134 345.145L147.918 339.765Z" fill="black"/>
<path d="M195.801 177.167L234.755 182.401C249.862 127.711 245.403 126.239 245.403 126.239C242.483 124.872 239.482 123.687 236.417 122.69L235.889 122.522C233.373 121.758 232.845 121.657 229.487 120.893C223.724 119.871 218.378 119.085 211.773 118.523C211.358 118.523 210.931 118.444 210.515 118.422C209.325 118.343 208.145 118.287 207 118.242C206.236 118.242 205.461 118.242 204.753 118.242H200.957C200.205 118.259 199.466 118.433 198.785 118.751C198.105 119.07 197.498 119.528 197.005 120.094C196.511 120.661 196.141 121.324 195.918 122.042C195.696 122.76 195.625 123.516 195.711 124.263C199.047 152.984 197.991 162.452 195.801 177.167Z" fill="#6C75C7"/>
<path opacity="0.2" d="M235.878 138.606C236.147 141.145 242.011 145.784 244.044 144.537C244.628 141.493 245.055 138.921 245.358 136.854C242.415 136.629 236.653 133.383 235.878 138.606Z" fill="black"/>
<path d="M229.554 125.801C229.273 116.816 251.053 126.711 256.051 128.947L250.48 144.009C250.48 144.009 243.19 143.762 238.551 141.077C235.912 139.466 233.711 137.229 232.142 134.565C230.573 131.901 229.684 128.891 229.554 125.801Z" fill="#6C75C7"/>
<path d="M214.536 89.8582C215.255 99.3607 215.356 103.393 220.276 108.335C227.656 115.76 239.281 113.131 241.438 103.685C243.381 95.1823 241.876 81.0746 232.452 77.1657C230.429 76.2597 228.204 75.8968 225.998 76.1129C223.792 76.3291 221.68 77.1168 219.871 78.3983C218.063 79.6798 216.619 81.4108 215.684 83.4205C214.748 85.4302 214.353 87.6491 214.536 89.8582Z" fill="#B55B52"/>
<path d="M215.368 79.8278C205.82 77.4353 205.517 85.4439 205.719 89.6672C205.921 93.8906 198.901 95.9124 198.901 101.203C198.901 108.099 204.102 112.21 191.454 114.3C180.75 116.063 177.447 129.441 193.285 137.27C210.819 145.918 237.271 133.743 234.058 122.162C229.138 104.292 237.978 104.348 237.001 94.3511C236.271 87.095 243.145 86.7356 240.674 80.6814C237.417 72.7627 214.536 65.8099 215.368 79.8278Z" fill="#263238"/>
<path d="M204.315 93.2279C203.001 86.3088 203.72 81.726 206.449 79.5807C209.965 76.8063 215.368 79.21 215.592 79.3111L215.132 80.3332C215.132 80.3332 210.111 78.0868 207.134 80.4568C204.764 82.3326 204.192 86.5559 205.416 93.0145L204.315 93.2279Z" fill="#263238"/>
<path d="M193.521 112.323C191.056 112.245 188.621 111.751 186.321 110.863L186.737 109.818C186.815 109.818 194.386 112.828 197.89 109.919C199.597 108.504 200.08 105.853 199.339 102.056L200.462 101.843C201.294 106.1 200.676 109.122 198.631 110.829C197.154 111.906 195.346 112.434 193.521 112.323Z" fill="#263238"/>
<path d="M234.406 93.6884C234.316 95.461 234.774 97.2185 235.72 98.7204C237.023 100.843 238.787 100.45 239.36 98.653C239.933 96.8559 239.831 93.9692 238.068 92.4303C236.305 90.8915 234.586 91.7227 234.406 93.6884Z" fill="#B55B52"/>
<path d="M224.5 181.019C224.5 181.019 209.358 245.043 202.282 281.762C194.824 320.547 150.614 352.188 150.614 352.188L140.909 342.202C140.909 342.202 169.372 317.289 176.684 281.076C191.522 207.572 181.48 192.768 195.779 177.167L224.5 181.019Z" fill="#263238"/>
<path d="M151.445 353.626L139.325 341.158L142.728 337.496L156.802 349.885L151.445 353.626Z" fill="#6C75C7"/>
<path opacity="0.2" d="M216.457 194.925C204.686 205.146 205.955 241.415 207.191 257.758C212.122 234.519 218.064 208.639 221.546 193.667C220.299 192.746 218.614 193.049 216.457 194.925Z" fill="black"/>
<path d="M234.215 182.435C234.215 182.435 241.022 258.398 237.304 287.378C233.44 317.514 213.716 383.088 213.716 383.088L199.934 381.302C199.934 381.302 211.167 316.312 213.222 286.479C215.401 253.906 205.708 178.649 205.708 178.649L234.215 182.435Z" fill="#263238"/>
<path d="M216.727 383.885L196.935 381.324L197.239 375.484L218.715 377.562L216.727 383.885Z" fill="#6C75C7"/>
<path d="M195.442 174.819L193.308 178.043C193.15 178.301 193.442 178.616 193.892 178.672L234.755 184.209C235.103 184.209 235.417 184.119 235.462 183.906L236.181 180.536C236.237 180.3 235.945 180.053 235.563 179.997L196.082 174.707C195.974 174.67 195.859 174.661 195.747 174.681C195.635 174.7 195.53 174.748 195.442 174.819Z" fill="#6C75C7"/>
<path opacity="0.3" d="M195.442 174.819L193.308 178.043C193.15 178.301 193.442 178.616 193.892 178.672L234.755 184.209C235.103 184.209 235.417 184.119 235.462 183.906L236.181 180.536C236.237 180.3 235.945 180.053 235.563 179.997L196.082 174.707C195.974 174.67 195.859 174.661 195.747 174.681C195.635 174.7 195.53 174.748 195.442 174.819Z" fill="black"/>
<path d="M200.294 179.907L199.238 179.773C199.025 179.773 198.879 179.615 198.912 179.48L199.878 175.044C199.878 174.92 200.103 174.842 200.316 174.864L201.372 175.01C201.586 175.01 201.732 175.167 201.709 175.291L200.732 179.728C200.71 179.862 200.507 179.941 200.294 179.907Z" fill="#263238"/>
<path d="M227.004 183.558L225.948 183.412C225.735 183.412 225.589 183.255 225.611 183.131L226.589 178.694C226.589 178.571 226.813 178.481 227.027 178.515L228.083 178.649C228.296 178.649 228.442 178.807 228.408 178.941L227.442 183.378C227.409 183.502 227.218 183.592 227.004 183.558Z" fill="#263238"/>
</svg>
