<svg width="44" height="37" viewBox="0 0 44 37" fill="none" xmlns="http://www.w3.org/2000/svg">
<path d="M26.5312 3.84375C24.9688 3.53125 23.5625 3.375 22 3.375C11.6875 3.375 3.25 11.8125 3.25 22.125C3.25 26.3438 4.65625 30.25 7 33.5312C7.15625 33.8438 7.3125 34.1562 7.3125 34.4688C7.3125 35.4062 6.6875 36.0312 5.75 36.0312C5.28125 36.0312 4.65625 35.7188 4.5 35.4062C1.84375 31.6562 0.125 27.125 0.125 22.125C0.125 10.0938 9.96875 0.25 22 0.25C23.875 0.25 25.5938 0.40625 27.3125 0.875C27.9375 1.03125 28.4062 1.65625 28.4062 2.4375C28.4062 3.375 27.7812 4 26.8438 4H26.6875H26.5312V3.84375ZM37 33.375C39.3438 30.25 40.75 26.3438 40.75 22.125C40.75 17.9062 39.3438 14 37 10.875C36.6875 10.5625 36.5312 10.25 36.5312 9.78125C36.5312 8.84375 37.1562 8.21875 38.0938 8.21875C38.5625 8.21875 39.0312 8.375 39.3438 8.84375C42.1562 12.5938 43.875 17.125 43.875 22.125C43.875 27.125 42.1562 31.6562 39.5 35.4062C39.1875 35.7188 38.7188 36.0312 38.25 36.0312C37.3125 36.0312 36.6875 35.4062 36.6875 34.4688C36.6875 34 36.6875 33.6875 37 33.375ZM35.2812 1.1875L25.4375 24.1562C24.8125 25.7187 23.0938 26.3437 21.5312 25.7187C21.375 25.7187 21.375 25.5625 21.2188 25.5625C19.8125 24.7813 19.3438 22.9062 20.125 21.5C20.125 21.3438 20.2812 21.3438 20.2812 21.1875L35.2812 1.1875Z" fill="#6C75C7"/>
</svg>
