<svg width="50" height="48" viewBox="0 0 50 48" fill="none" xmlns="http://www.w3.org/2000/svg">
<path d="M18.9377 47.2173C18.8077 47.2173 18.6721 47.2003 18.5421 47.1607C14.6475 46.0811 11.0525 44.0123 8.14151 41.1691C7.83628 40.8695 7.67801 40.4512 7.70062 40.0273C7.72323 39.6034 7.93237 39.202 8.27152 38.942C10.1312 37.495 10.6456 34.8779 9.46985 32.8487C8.28848 30.8138 5.76747 29.9546 3.59127 30.8251C3.1956 30.989 2.7434 30.972 2.36468 30.7742C1.98596 30.582 1.70334 30.2316 1.6016 29.8189C1.10418 27.8575 0.855469 25.8452 0.855469 23.833C0.855469 21.8263 1.10418 19.814 1.6016 17.847C1.70899 17.4344 1.98596 17.0839 2.36468 16.8861C2.7434 16.6882 3.18994 16.6713 3.59127 16.8352C5.76182 17.717 8.28283 16.8521 9.46419 14.8173C10.6399 12.7937 10.1255 10.1709 8.26587 8.72388C7.92672 8.45822 7.72323 8.06254 7.69497 7.63861C7.67236 7.21467 7.83063 6.79639 8.13586 6.49681C11.0469 3.65361 14.6475 1.57915 18.5364 0.505181C18.9547 0.397784 19.3899 0.465614 19.7461 0.697366C20.1022 0.93477 20.3396 1.30783 20.3961 1.73177C20.7126 4.05494 22.7249 5.80721 25.0707 5.80721C26.7495 5.80721 29.1405 3.30881 29.7622 2.21223C29.717 1.98613 29.7283 1.74307 29.7962 1.50567C30.0336 0.725628 30.8588 0.290387 31.6332 0.510834C31.6332 0.510834 31.6332 0.510834 31.6389 0.510834C35.6973 1.72046 39.1849 3.7384 42.0055 6.49116C42.3107 6.79074 42.4747 7.20902 42.4521 7.63296C42.4295 8.05689 42.2203 8.45257 41.8812 8.71823C40.0271 10.1653 39.5071 12.7824 40.6828 14.8116C41.8642 16.8465 44.3909 17.717 46.5614 16.8295C46.9571 16.6656 47.4036 16.6826 47.788 16.8804C48.1724 17.0726 48.4493 17.423 48.5511 17.8413C49.0485 19.8084 49.2972 21.8207 49.2972 23.8217C49.2972 25.8226 49.0429 27.8349 48.5511 29.8076C48.4437 30.2203 48.1667 30.5707 47.788 30.7629C47.4036 30.9607 46.9627 30.9777 46.5614 30.8138C44.3909 29.9376 41.8642 30.8025 40.6828 32.8374C39.5071 34.8609 40.0215 37.4837 41.8812 38.9307C42.2203 39.1907 42.4238 39.5864 42.4521 40.016C42.4803 40.4456 42.3164 40.8582 42.0055 41.1578C39.1001 43.9953 35.5052 46.0698 31.605 47.1494C31.1923 47.2625 30.7514 47.1947 30.401 46.9572C30.0449 46.7198 29.8075 46.3411 29.7453 45.9228C29.4288 43.5997 27.4221 41.8474 25.0707 41.8474C22.7249 41.8474 20.7126 43.5997 20.3961 45.9228C20.3396 46.3468 20.1022 46.7198 19.7461 46.9572C19.5086 47.1381 19.226 47.2173 18.9377 47.2173ZM11.3295 40.0725C13.2796 41.7174 15.5123 43.0062 17.9033 43.8597C19.0112 40.943 21.8488 38.9025 25.082 38.9025C28.3152 38.9025 31.1528 40.943 32.2606 43.8597C34.6573 43.0062 36.8844 41.7174 38.8345 40.0725C36.8618 37.642 36.5113 34.1657 38.1336 31.3677C39.7502 28.5754 42.9382 27.1566 46.0131 27.6258C46.2392 26.3709 46.3466 25.0991 46.3466 23.8386C46.3466 22.5781 46.2336 21.312 46.0131 20.0515C42.9495 20.5489 39.7558 19.1018 38.1336 16.3095C36.5113 13.5172 36.8618 10.0409 38.8345 7.61035C36.9296 6.00504 34.7138 4.73889 32.2267 3.82884C30.9662 5.89765 27.9195 8.77476 25.082 8.77476C21.8544 8.77476 19.0169 6.73421 17.9033 3.81753C15.5123 4.66541 13.2796 5.95417 11.3295 7.61035C13.3022 10.0409 13.6527 13.5172 12.0304 16.3095C10.4082 19.1018 7.24277 20.5376 4.15652 20.0515C3.93042 21.3063 3.81737 22.5725 3.81737 23.8386C3.81737 25.1048 3.93042 26.3709 4.15652 27.6258C7.22581 27.1397 10.4138 28.5754 12.0361 31.3734C13.647 34.16 13.3022 37.642 11.3295 40.0725Z" fill="#6C75C7"/>
</svg>
