<svg width="47" height="70" viewBox="0 0 47 70" fill="none" xmlns="http://www.w3.org/2000/svg">
<path d="M8.91671 32.0833V17.5C8.91671 8.75 14.75 2.91666 23.5 2.91666C32.25 2.91666 38.0834 8.75 38.0834 17.5V32.0833H8.91671ZM23.5 67.0833C28.9149 67.0833 34.1079 64.9323 37.9368 61.1034C41.7657 57.2746 43.9167 52.0815 43.9167 46.6667C43.9167 41.2518 41.7657 36.0588 37.9368 32.2299C34.1079 28.401 28.9149 26.25 23.5 26.25C18.0852 26.25 12.8921 28.401 9.06328 32.2299C5.23441 36.0588 3.08337 41.2518 3.08337 46.6667C3.08337 52.0815 5.23441 57.2746 9.06328 61.1034C12.8921 64.9323 18.0852 67.0833 23.5 67.0833V67.0833ZM23.5 43.75V55.4167V43.75ZM23.5 46.6667C24.2736 46.6667 25.0155 46.3594 25.5624 45.8124C26.1094 45.2654 26.4167 44.5236 26.4167 43.75C26.4167 42.9765 26.1094 42.2346 25.5624 41.6876C25.0155 41.1406 24.2736 40.8333 23.5 40.8333C22.7265 40.8333 21.9846 41.1406 21.4376 41.6876C20.8907 42.2346 20.5834 42.9765 20.5834 43.75C20.5834 44.5236 20.8907 45.2654 21.4376 45.8124C21.9846 46.3594 22.7265 46.6667 23.5 46.6667V46.6667Z" stroke="#6C75C7" stroke-width="5.83333"/>
</svg>
