<svg width="38" height="38" viewBox="0 0 38 38" fill="none" xmlns="http://www.w3.org/2000/svg">
<path d="M32.7 37.5H5.3C2.7 37.5 0.5 35.425 0.5 32.825V8.875C0.5 6.275 2.675 4.2 5.3 4.2H32.725C35.325 4.2 37.525 6.275 37.525 8.875V32.7C37.5 35.425 35.325 37.5 32.7 37.5ZM6.15 7.9C5.05 7.9 4.2 8.775 4.2 9.85V31.95C4.2 33.05 5.075 33.9 6.15 33.9H31.825C32.925 33.9 33.775 33.025 33.775 31.95V9.85C33.775 8.75 32.9 7.9 31.825 7.9H6.15ZM26.075 15.3H11.925C11.175 15.3 10.625 16.175 10.625 17.15C10.625 18.125 11.175 19 11.925 19H25.975C26.725 19 27.275 18.125 27.275 17.15C27.275 16.175 26.725 15.3 26.075 15.3ZM26.075 23.575H11.925C11.175 23.575 10.625 24.45 10.625 25.425C10.625 26.4 11.175 27.275 11.925 27.275H25.975C26.725 27.275 27.275 26.4 27.275 25.425C27.275 24.45 26.725 23.575 26.075 23.575ZM11.6 0.5C10.625 0.5 9.75 1.15 9.75 1.925V8.225C9.75 8.975 10.625 9.65 11.6 9.65C12.575 9.65 13.45 9 13.45 8.225V1.925C13.45 1.15 12.575 0.5 11.6 0.5ZM26.4 0.5C25.425 0.5 24.55 1.15 24.55 1.925V8.225C24.55 8.975 25.425 9.65 26.4 9.65C27.375 9.65 28.25 9 28.25 8.225V1.925C28.25 1.15 27.375 0.5 26.4 0.5Z" fill="#6C75C7"/>
</svg>
