<svg width="46" height="40" viewBox="0 0 46 40" fill="none" xmlns="http://www.w3.org/2000/svg">
<path d="M41.8382 18.6653C41.3502 18.6653 40.8681 18.7771 40.4271 18.9887L24.1289 5.38332C24.5288 4.61896 24.6111 3.73117 24.3465 2.90803C23.8291 1.24997 22.0653 0.326873 20.4072 0.844256C20.4013 0.850115 20.3896 0.850115 20.3837 0.850115C18.9431 1.33229 18.0377 2.761 18.2259 4.27209L7.98362 7.61755C7.21927 6.41222 5.73763 5.88307 4.37942 6.32409C2.72137 6.87673 1.81009 8.66999 2.35096 10.3398C2.68021 11.3746 3.51512 12.1743 4.56756 12.4506L3.64446 32.5999C1.79827 32.8763 0.534161 34.5931 0.810479 36.4393C1.08685 38.2855 2.80369 39.5496 4.64988 39.2733C6.24324 39.0322 7.44857 37.6916 7.51912 36.0806L22.9001 32.8586C23.3587 33.7405 24.2701 34.2991 25.2637 34.3109C26.763 34.2991 27.9683 33.0762 27.9507 31.5769C27.9507 31.3828 27.9272 31.1829 27.8802 30.9948L39.2748 24.2097C39.9039 24.98 40.8505 25.4327 41.8441 25.4327C43.7139 25.4327 45.2249 23.9158 45.2249 22.0461C45.2249 20.1763 43.708 18.6594 41.8383 18.6653L41.8382 18.6653ZM20.8305 20.7056C20.754 19.0122 19.731 17.513 18.1905 16.8192L21.1127 7.06491C21.9358 7.12375 22.7472 6.85324 23.3705 6.31823L39.4276 19.706C39.0043 20.1529 38.7103 20.7055 38.5809 21.2994L20.8305 20.7056ZM5.83162 32.988C5.52 32.8058 5.18489 32.6764 4.83211 32.6058L5.74935 12.5271C6.23143 12.4683 6.69007 12.2919 7.08987 12.0155L12.8401 18.2714C11.5878 19.9823 11.6995 22.3401 13.0988 23.9217L5.83162 32.988ZM19.9661 6.76506L17.044 16.5017C15.8387 16.3076 14.6098 16.6428 13.6691 17.413L7.93069 11.1747C8.41282 10.4633 8.5951 9.58727 8.42459 8.74064L18.5727 5.42453C18.8844 6.00656 19.3724 6.47111 19.9662 6.76506H19.9661ZM7.35447 34.8754C7.22508 34.4638 7.01346 34.0875 6.73709 33.7524L13.9984 24.7037C15.386 25.6209 17.1792 25.6621 18.6138 24.8154L23.0764 29.9894C22.7472 30.4539 22.5708 31.0066 22.5708 31.5711C22.5708 31.6122 22.5708 31.6475 22.5826 31.6827L7.35452 34.8754L7.35447 34.8754ZM27.3686 29.8836C26.8688 29.2251 26.0868 28.8429 25.2577 28.837C24.8051 28.8429 24.3582 28.9605 23.9701 29.184L19.5605 24.0746C20.1425 23.4749 20.5541 22.7164 20.7305 21.8991L38.5339 22.4988C38.5633 22.7164 38.6162 22.9339 38.6868 23.1456L27.3686 29.8836Z" fill="black" fill-opacity="0.5"/>
</svg>
