<svg width="40" height="20" viewBox="0 0 40 20" fill="none" xmlns="http://www.w3.org/2000/svg">
<path d="M20 14.4073L1.7261 2.58333C1.2427 2.26976 1.10418 1.62601 1.41668 1.14271C1.72918 0.659408 2.374 0.52186 2.8573 0.833334L20 11.926L37.1427 0.833334C37.626 0.52186 38.2709 0.65936 38.5834 1.14271C38.8959 1.62606 38.7573 2.26976 38.274 2.58333L20 14.4072V14.4073ZM1.25105 19.4166C0.914625 19.4166 0.583375 19.2541 0.383375 18.9531C0.0635509 18.474 0.19275 17.8281 0.671901 17.5083L10.0469 11.2583C10.5261 10.9385 11.1729 11.0677 11.4917 11.5469C11.8115 12.026 11.6823 12.6719 11.2031 12.9917L1.82815 19.2417C1.65003 19.3594 1.449 19.4166 1.25105 19.4166ZM38.749 19.4166C38.551 19.4166 38.35 19.3594 38.1719 19.2416L28.7969 12.9916C28.3177 12.6719 28.1885 12.026 28.5083 11.5469C28.8271 11.0677 29.4729 10.9385 29.9531 11.2583L39.3281 17.5083C39.8073 17.8281 39.9365 18.474 39.6167 18.9531C39.4167 19.2541 39.0855 19.4166 38.749 19.4166Z" fill="#6C75C7"/>
</svg>
